<?xml version="1.0" encoding="utf-8" standalone="yes"?>
<!DOCTYPE svg PUBLIC "-//W3C//DTD SVG 1.1//EN" "http://www.w3.org/Graphics/SVG/1.1/DTD/svg11.dtd">
<svg width="734" height="1022" viewBox="0 0 734 1022" style="fill:none;stroke:none;fill-rule:evenodd;clip-rule:evenodd;stroke-linecap:round;stroke-linejoin:round;stroke-miterlimit:1.5;" version="1.1" xmlns="http://www.w3.org/2000/svg" xmlns:xlink="http://www.w3.org/1999/xlink"><style id="fontImports">@import url("https://fonts.googleapis.com/css2?family=Roboto:wght@400;700&amp;display=block");</style><g id="items" style="isolation: isolate"><g id="blend" style="mix-blend-mode:normal"><g id="g-root--1.Vector_sy_dkgozn1frzt4-fill" data-item-order="-69979" transform="translate(327, 87)"></g><g id="g-root--1.cu_sy_94n6v71fs0ld-fill" data-item-order="-69975" transform="translate(327, 951)"></g><g id="g-root-10.cr-big_cr_906mb1fs1e2-fill" data-item-order="-69972" transform="translate(291, 879)"><g id="10.cr-big_cr_906mb1fs1e2-fill" stroke="none" fill="#7f64ea"><g><path d="M 10 46C 10 65.882251 26.117749 82 46 82C 65.882251 82 82 65.882251 82 46C 82 26.117749 65.882251 10 46 10C 26.117749 10 10 26.117749 10 46"></path></g></g></g><g id="g-root-9.cr-big_cr_1uuaqgz1fs1z7-fill" data-item-order="-69968" transform="translate(291, 783)"><g id="9.cr-big_cr_1uuaqgz1fs1z7-fill" stroke="none" fill="#ba5de5"><g><path d="M 10 46C 10 65.882251 26.117749 82 46 82C 65.882251 82 82 65.882251 82 46C 82 26.117749 65.882251 10 46 10C 26.117749 10 10 26.117749 10 46"></path></g></g></g><g id="g-root-8.cr-big_cr_1uuaqgz1fs1z8-fill" data-item-order="-69964" transform="translate(291, 687)"><g id="8.cr-big_cr_1uuaqgz1fs1z8-fill" stroke="none" fill="#de58a9"><g><path d="M 10 46C 10 65.882251 26.117749 82 46 82C 65.882251 82 82 65.882251 82 46C 82 26.117749 65.882251 10 46 10C 26.117749 10 10 26.117749 10 46"></path></g></g></g><g id="g-root-7.cr-big_cr_1lza7b71frzm5-fill" data-item-order="-69960" transform="translate(291, 591)"><g id="7.cr-big_cr_1lza7b71frzm5-fill" stroke="none" fill="#e55753"><g><path d="M 10 46C 10 65.882251 26.117749 82 46 82C 65.882251 82 82 65.882251 82 46C 82 26.117749 65.882251 10 46 10C 26.117749 10 10 26.117749 10 46"></path></g></g></g><g id="g-root-6.cr-big_cr_1hjgp6r1fs0ee-fill" data-item-order="-69956" transform="translate(291, 495)"><g id="6.cr-big_cr_1hjgp6r1fs0ee-fill" stroke="none" fill="#de8431"><g><path d="M 10 46C 10 65.882251 26.117749 82 46 82C 65.882251 82 82 65.882251 82 46C 82 26.117749 65.882251 10 46 10C 26.117749 10 10 26.117749 10 46"></path></g></g></g><g id="g-root-5.cr-big_cr_18ntoxv1fs173-fill" data-item-order="-69952" transform="translate(291, 399)"><g id="5.cr-big_cr_18ntoxv1fs173-fill" stroke="none" fill="#e0cb15"><g><path d="M 10 46C 10 65.882251 26.117749 82 46 82C 65.882251 82 82 65.882251 82 46C 82 26.117749 65.882251 10 46 10C 26.117749 10 10 26.117749 10 46"></path></g></g></g><g id="g-root-4.cr-big_cr_zitnk31f6x34-fill" data-item-order="-69948" transform="translate(291, 303)"><g id="4.cr-big_cr_zitnk31f6x34-fill" stroke="none" fill="#92bd39"><g><path d="M 10 46C 10 65.882251 26.117749 82 46 82C 65.882251 82 82 65.882251 82 46C 82 26.117749 65.882251 10 46 10C 26.117749 10 10 26.117749 10 46"></path></g></g></g><g id="g-root-3.cr-big_cr_qn6nb71f6xvt-fill" data-item-order="-69944" transform="translate(291, 207)"><g id="3.cr-big_cr_qn6nb71f6xvt-fill" stroke="none" fill="#3cc583"><g><path d="M 10 46C 10 65.882251 26.117749 82 46 82C 65.882251 82 82 65.882251 82 46C 82 26.117749 65.882251 10 46 10C 26.117749 10 10 26.117749 10 46"></path></g></g></g><g id="g-root-2.cr-big_cr_m7d56r1f6yo2-fill" data-item-order="-69940" transform="translate(291, 111)"><g id="2.cr-big_cr_m7d56r1f6yo2-fill" stroke="none" fill="#1eabda"><g><path d="M 10 46C 10 65.882251 26.117749 82 46 82C 65.882251 82 82 65.882251 82 46C 82 26.117749 65.882251 10 46 10C 26.117749 10 10 26.117749 10 46"></path></g></g></g><g id="g-root-1.cr-big_cr_w3nn1f6xvv-fill" data-item-order="-69936" transform="translate(291, 15)"><g id="1.cr-big_cr_w3nn1f6xvv-fill" stroke="none" fill="#4e88e7"><g><path d="M 10 46C 10 65.882251 26.117749 82 46 82C 65.882251 82 82 65.882251 82 46C 82 26.117749 65.882251 10 46 10C 26.117749 10 10 26.117749 10 46"></path></g></g></g><g id="g-root-tx_bostonex_1hclkeb1f6z2c-fill" data-item-order="0" transform="translate(15, 267)"><g id="tx_bostonex_1hclkeb1f6z2c-fill" stroke="none" fill="#374840"><g><text style="font: 20px Roboto, sans-serif; white-space: pre;" font-size="20px" font-family="Roboto, sans-serif"><tspan x="12.75" y="34" dominant-baseline="ideographic">Boston Exchange Computer</tspan></text></g></g></g><g id="g-root-trad_1cynkoz1fs0li-fill" data-item-order="0" transform="translate(303, 219)"></g><g id="g-root-scri_1d0izyb1fp81v-fill" data-item-order="0" transform="translate(303, 315)"></g><g id="g-root-tx_1992_1hegznn1f6y2t-fill" data-item-order="0" transform="translate(387, 327)"><g id="tx_1992_1hegznn1f6y2t-fill" stroke="none" fill="#92bd39"><g><text style="font: bold 20px Roboto, sans-serif; white-space: pre;" font-weight="bold" font-size="20px" font-family="Roboto, sans-serif"><tspan x="12" y="34" dominant-baseline="ideographic">1992</tspan></text></g></g></g><g id="g-root-tx_virtualb_1uo22rn1f6xhf-fill" data-item-order="0" transform="translate(387, 363)"><g id="tx_virtualb_1uo22rn1f6xhf-fill" stroke="none" fill="#424736"><g><text style="font: 20px Roboto, sans-serif; white-space: pre;" font-size="20px" font-family="Roboto, sans-serif"><tspan x="12" y="34" dominant-baseline="ideographic">Virtual book marketplace</tspan></text></g></g></g><g id="g-root-tx_1982_18itzer1f6yvi-fill" data-item-order="0" transform="translate(207, 231)"><g id="tx_1982_18itzer1f6yvi-fill" stroke="none" fill="#3cc583"><g><text style="font: bold 20px Roboto, sans-serif; white-space: pre;" font-weight="bold" font-size="20px" font-family="Roboto, sans-serif"><tspan x="22.09" y="34" dominant-baseline="ideographic">1982</tspan></text></g></g></g><g id="g-root-tx_1994_1upb0xv1f6zno-fill" data-item-order="0" transform="translate(207, 423)"><g id="tx_1994_1upb0xv1f6zno-fill" stroke="none" fill="#e0cb15"><g><text style="font: bold 20px Roboto, sans-serif; white-space: pre;" font-weight="bold" font-size="20px" font-family="Roboto, sans-serif"><tspan x="22.09" y="34" dominant-baseline="ideographic">1994</tspan></text></g></g></g><g id="g-root-2_1hgci2r1fi7lt-fill" data-item-order="0" transform="translate(303, 411)"></g><g id="g-root-tx_netscape_8xs22r1f6z9e-fill" data-item-order="0" transform="translate(87, 459)"><g id="tx_netscape_8xs22r1f6z9e-fill" stroke="none" fill="#46432d"><g><text style="font: 20px Roboto, sans-serif; white-space: pre;" font-size="20px" font-family="Roboto, sans-serif"><tspan x="15.27" y="34" dominant-baseline="ideographic">Netscape navigator</tspan></text></g></g></g><g id="g-root-tx_electron_141rj431f6xhh-fill" data-item-order="0" transform="translate(387, 171)"><g id="tx_electron_141rj431f6xhh-fill" stroke="none" fill="#32444a"><g><text style="font: 20px Roboto, sans-serif; white-space: pre;" font-size="20px" font-family="Roboto, sans-serif"><tspan x="12" y="34" dominant-baseline="ideographic">Electronic shopping</tspan></text></g></g></g><g id="g-root-1_147dw1v1ffdhd-fill" data-item-order="0" transform="translate(303, 507)"></g><g id="g-root-tx_1995_40h371f6z2j-fill" data-item-order="0" transform="translate(387, 519)"><g id="tx_1995_40h371f6z2j-fill" stroke="none" fill="#de8431"><g><text style="font: bold 20px Roboto, sans-serif; white-space: pre;" font-weight="bold" font-size="20px" font-family="Roboto, sans-serif"><tspan x="12" y="34" dominant-baseline="ideographic">1995</tspan></text></g></g></g><g id="g-root-tx_amazon_m98kg31f6xoh-fill" data-item-order="0" transform="translate(387, 555)"><g id="tx_amazon_m98kg31f6xoh-fill" stroke="none" fill="#4c4034"><g><text style="font: 20px Roboto, sans-serif; white-space: pre;" font-size="20px" font-family="Roboto, sans-serif"><tspan x="12" y="34" dominant-baseline="ideographic">Amazon</tspan></text></g></g></g><g id="g-root-tx_1979_v7zy4j1f6xan-fill" data-item-order="0" transform="translate(387, 135)"><g id="tx_1979_v7zy4j1f6xan-fill" stroke="none" fill="#1eabda"><g><text style="font: bold 20px Roboto, sans-serif; white-space: pre;" font-weight="bold" font-size="20px" font-family="Roboto, sans-serif"><tspan x="12" y="34" dominant-baseline="ideographic">1979</tspan></text></g></g></g><g id="g-root-tx_1998_8znhc31f6y9u-fill" data-item-order="0" transform="translate(207, 615)"><g id="tx_1998_8znhc31f6y9u-fill" stroke="none" fill="#e55753"><g><text style="font: bold 20px Roboto, sans-serif; white-space: pre;" font-weight="bold" font-size="20px" font-family="Roboto, sans-serif"><tspan x="22.09" y="34" dominant-baseline="ideographic">1998</tspan></text></g></g></g><g id="g-root-payp_4l30jn1fck5d-fill" data-item-order="0" transform="translate(303, 603)"></g><g id="g-root-tx_paypal_qoflhf1f7020-fill" data-item-order="0" transform="translate(195, 651)"><g id="tx_paypal_qoflhf1f7020-fill" stroke="none" fill="#543a3a"><g><text style="font: 20px Roboto, sans-serif; white-space: pre;" font-size="20px" font-family="Roboto, sans-serif"><tspan x="19.05" y="34" dominant-baseline="ideographic">PayPal</tspan></text></g></g></g><g id="g-root-appa_i0wxoj1f8ef4-fill" data-item-order="0" transform="translate(303, 123)"></g><g id="g-root-tx_1999_dfgzgj1f6xhl-fill" data-item-order="0" transform="translate(387, 711)"><g id="tx_1999_dfgzgj1f6xhl-fill" stroke="none" fill="#de58a9"><g><text style="font: bold 20px Roboto, sans-serif; white-space: pre;" font-weight="bold" font-size="20px" font-family="Roboto, sans-serif"><tspan x="12" y="34" dominant-baseline="ideographic">1999</tspan></text></g></g></g><g id="g-root-tx_alibaba_v493lv1f6z9r-fill" data-item-order="0" transform="translate(387, 747)"><g id="tx_alibaba_v493lv1f6z9r-fill" stroke="none" fill="#573e4d"><g><text style="font: 20px Roboto, sans-serif; white-space: pre;" font-size="20px" font-family="Roboto, sans-serif"><tspan x="12" y="34" dominant-baseline="ideographic">Alibaba</tspan></text></g></g></g><g id="g-root-tx_1969_mccxvn1f6yv4-fill" data-item-order="0" transform="translate(207, 39)"><g id="tx_1969_mccxvn1f6yv4-fill" stroke="none" fill="#4e88e7"><g><text style="font: bold 20px Roboto, sans-serif; white-space: pre;" font-weight="bold" font-size="20px" font-family="Roboto, sans-serif"><tspan x="22.09" y="34" dominant-baseline="ideographic">1969</tspan></text></g></g></g><g id="g-root-tx_2004_mahimb1f6zuo-fill" data-item-order="0" transform="translate(207, 807)"><g id="tx_2004_mahimb1f6zuo-fill" stroke="none" fill="#ba5de5"><g><text style="font: bold 20px Roboto, sans-serif; white-space: pre;" font-weight="bold" font-size="20px" font-family="Roboto, sans-serif"><tspan x="22.09" y="34" dominant-baseline="ideographic">2004</tspan></text></g></g></g><g id="g-root-stor_dhcepv1fs00a-fill" data-item-order="0" transform="translate(303, 795)"></g><g id="g-root-tx_shopify_18fplz71f6xou-fill" data-item-order="0" transform="translate(195, 843)"><g id="tx_shopify_18fplz71f6xou-fill" stroke="none" fill="#4f3d58"><g><text style="font: 20px Roboto, sans-serif; white-space: pre;" font-size="20px" font-family="Roboto, sans-serif"><tspan x="13.22" y="34" dominant-baseline="ideographic">Shopify</tspan></text></g></g></g><g id="g-root-tx_covid19d_1haq54z1f701x-fill" data-item-order="0" transform="translate(387, 939)"><g id="tx_covid19d_1haq54z1f701x-fill" stroke="none" fill="#443e5c"><g><text style="font: 20px Roboto, sans-serif; white-space: pre;" font-size="20px" font-family="Roboto, sans-serif"><tspan x="12" y="34" dominant-baseline="ideographic">Covid-19 Drivers of multi-vendors </tspan><tspan x="12" y="58" dominant-baseline="ideographic">in E-Commerce Growth</tspan></text></g></g></g><g id="g-root-moni_1q6zmgz1fp821-fill" data-item-order="0" transform="translate(303, 891)"></g><g id="g-root-tx_2020_qqb0qr1f6z2f-fill" data-item-order="0" transform="translate(387, 903)"><g id="tx_2020_qqb0qr1f6z2f-fill" stroke="none" fill="#7f64ea"><g><text style="font: bold 20px Roboto, sans-serif; white-space: pre;" font-weight="bold" font-size="20px" font-family="Roboto, sans-serif"><tspan x="12" y="34" dominant-baseline="ideographic">2020</tspan></text></g></g></g><g id="g-root-tx_compserv_v64iv71f6ya6-fill" data-item-order="0" transform="translate(159, 75)"><g id="tx_compserv_v64iv71f6ya6-fill" stroke="none" fill="#3a4455"><g><text style="font: 20px Roboto, sans-serif; white-space: pre;" font-size="20px" font-family="Roboto, sans-serif"><tspan x="13.27" y="34" dominant-baseline="ideographic">CompServe</tspan></text></g></g></g><g id="g-root-1_1uooq6b1fb6kt-fill" data-item-order="0" transform="translate(303, 27)"></g><g id="g-root-cart_1lzadmr1f6xai-fill" data-item-order="0" transform="translate(303, 699)"></g><g id="g-root--1.Vector_sy_dkgozn1frzt4-stroke" data-item-order="-69979" transform="translate(327, 87)"><g id="-1.Vector_sy_dkgozn1frzt4-stroke" fill="none" stroke-linecap="round" stroke-linejoin="round" stroke-miterlimit="4" stroke="#484848" stroke-width="2"><g><path d="M 10 802L 10 778M 10 706L 10 682M 10 610L 10 586M 10 514L 10 490M 10 418L 10 394M 10 322L 10 298M 10 226L 10 202M 10 130L 10 106M 10 34L 10 10"></path></g></g></g><g id="g-root--1.cu_sy_94n6v71fs0ld-stroke" data-item-order="-69975" transform="translate(327, 951)"><g id="-1.cu_sy_94n6v71fs0ld-stroke" fill="none" stroke-linecap="round" stroke-linejoin="round" stroke-miterlimit="4" stroke="#484848" stroke-width="2"><g><path d="M 10 44L 10 10"></path><path d="M 3.5 38L 10 44.5L 16.5 38" stroke-dasharray="none"></path></g></g></g><g id="g-root-10.cr-big_cr_906mb1fs1e2-stroke" data-item-order="-69972" transform="translate(291, 879)"><g id="10.cr-big_cr_906mb1fs1e2-stroke" fill="none" stroke-linecap="round" stroke-linejoin="round" stroke-miterlimit="4" stroke="#ffffff" stroke-width="2"><g><path d="M 10 46C 10 65.882251 26.117749 82 46 82C 65.882251 82 82 65.882251 82 46C 82 26.117749 65.882251 10 46 10C 26.117749 10 10 26.117749 10 46"></path></g></g></g><g id="g-root-9.cr-big_cr_1uuaqgz1fs1z7-stroke" data-item-order="-69968" transform="translate(291, 783)"><g id="9.cr-big_cr_1uuaqgz1fs1z7-stroke" fill="none" stroke-linecap="round" stroke-linejoin="round" stroke-miterlimit="4" stroke="#ffffff" stroke-width="2"><g><path d="M 10 46C 10 65.882251 26.117749 82 46 82C 65.882251 82 82 65.882251 82 46C 82 26.117749 65.882251 10 46 10C 26.117749 10 10 26.117749 10 46"></path></g></g></g><g id="g-root-8.cr-big_cr_1uuaqgz1fs1z8-stroke" data-item-order="-69964" transform="translate(291, 687)"><g id="8.cr-big_cr_1uuaqgz1fs1z8-stroke" fill="none" stroke-linecap="round" stroke-linejoin="round" stroke-miterlimit="4" stroke="#ffffff" stroke-width="2"><g><path d="M 10 46C 10 65.882251 26.117749 82 46 82C 65.882251 82 82 65.882251 82 46C 82 26.117749 65.882251 10 46 10C 26.117749 10 10 26.117749 10 46"></path></g></g></g><g id="g-root-7.cr-big_cr_1lza7b71frzm5-stroke" data-item-order="-69960" transform="translate(291, 591)"><g id="7.cr-big_cr_1lza7b71frzm5-stroke" fill="none" stroke-linecap="round" stroke-linejoin="round" stroke-miterlimit="4" stroke="#ffffff" stroke-width="2"><g><path d="M 10 46C 10 65.882251 26.117749 82 46 82C 65.882251 82 82 65.882251 82 46C 82 26.117749 65.882251 10 46 10C 26.117749 10 10 26.117749 10 46"></path></g></g></g><g id="g-root-6.cr-big_cr_1hjgp6r1fs0ee-stroke" data-item-order="-69956" transform="translate(291, 495)"><g id="6.cr-big_cr_1hjgp6r1fs0ee-stroke" fill="none" stroke-linecap="round" stroke-linejoin="round" stroke-miterlimit="4" stroke="#ffffff" stroke-width="2"><g><path d="M 10 46C 10 65.882251 26.117749 82 46 82C 65.882251 82 82 65.882251 82 46C 82 26.117749 65.882251 10 46 10C 26.117749 10 10 26.117749 10 46"></path></g></g></g><g id="g-root-5.cr-big_cr_18ntoxv1fs173-stroke" data-item-order="-69952" transform="translate(291, 399)"><g id="5.cr-big_cr_18ntoxv1fs173-stroke" fill="none" stroke-linecap="round" stroke-linejoin="round" stroke-miterlimit="4" stroke="#ffffff" stroke-width="2"><g><path d="M 10 46C 10 65.882251 26.117749 82 46 82C 65.882251 82 82 65.882251 82 46C 82 26.117749 65.882251 10 46 10C 26.117749 10 10 26.117749 10 46"></path></g></g></g><g id="g-root-4.cr-big_cr_zitnk31f6x34-stroke" data-item-order="-69948" transform="translate(291, 303)"><g id="4.cr-big_cr_zitnk31f6x34-stroke" fill="none" stroke-linecap="round" stroke-linejoin="round" stroke-miterlimit="4" stroke="#ffffff" stroke-width="2"><g><path d="M 10 46C 10 65.882251 26.117749 82 46 82C 65.882251 82 82 65.882251 82 46C 82 26.117749 65.882251 10 46 10C 26.117749 10 10 26.117749 10 46"></path></g></g></g><g id="g-root-3.cr-big_cr_qn6nb71f6xvt-stroke" data-item-order="-69944" transform="translate(291, 207)"><g id="3.cr-big_cr_qn6nb71f6xvt-stroke" fill="none" stroke-linecap="round" stroke-linejoin="round" stroke-miterlimit="4" stroke="#ffffff" stroke-width="2"><g><path d="M 10 46C 10 65.882251 26.117749 82 46 82C 65.882251 82 82 65.882251 82 46C 82 26.117749 65.882251 10 46 10C 26.117749 10 10 26.117749 10 46"></path></g></g></g><g id="g-root-2.cr-big_cr_m7d56r1f6yo2-stroke" data-item-order="-69940" transform="translate(291, 111)"><g id="2.cr-big_cr_m7d56r1f6yo2-stroke" fill="none" stroke-linecap="round" stroke-linejoin="round" stroke-miterlimit="4" stroke="#ffffff" stroke-width="2"><g><path d="M 10 46C 10 65.882251 26.117749 82 46 82C 65.882251 82 82 65.882251 82 46C 82 26.117749 65.882251 10 46 10C 26.117749 10 10 26.117749 10 46"></path></g></g></g><g id="g-root-1.cr-big_cr_w3nn1f6xvv-stroke" data-item-order="-69936" transform="translate(291, 15)"><g id="1.cr-big_cr_w3nn1f6xvv-stroke" fill="none" stroke-linecap="round" stroke-linejoin="round" stroke-miterlimit="4" stroke="#ffffff" stroke-width="2"><g><path d="M 10 46C 10 65.882251 26.117749 82 46 82C 65.882251 82 82 65.882251 82 46C 82 26.117749 65.882251 10 46 10C 26.117749 10 10 26.117749 10 46"></path></g></g></g><g id="g-root-tx_bostonex_1hclkeb1f6z2c-stroke" data-item-order="0" transform="translate(15, 267)"></g><g id="g-root-trad_1cynkoz1fs0li-stroke" data-item-order="0" transform="translate(303, 219)"><g id="trad_1cynkoz1fs0li-stroke" fill="none" stroke-linecap="round" stroke-linejoin="round" stroke-miterlimit="4" stroke="#ffffff" stroke-width="2"><g><path d="M 10.986 18.076L 18.986 18.076L 18.986 44.076L 10.986 44.076ZM 14.941999 18.076L 14.941999 11.076M 14.941999 50.639999L 14.941999 44.076M 40.986 16.076L 48.986 16.076L 48.986 28.076L 40.986 28.076ZM 45.029999 16.076L 45.029999 11M 44.986 33.195999L 44.986 28.076M 25.968 26.076L 33.986 26.076L 33.986 38.076L 25.968 38.076ZM 29.986 26.076L 29.986 20.076M 29.986 43.995998L 29.986 38.076M 47.424 52.349998C 48.499851 53.761776 50.196407 54.560417 51.969997 54.489998C 54.754002 54.490002 57.014 52.796001 57.014 50.703999C 57.014 48.612 54.754002 46.903999 51.970001 46.903999C 49.186001 46.903999 46.925999 45.209999 46.925999 43.118C 46.925999 41.026001 49.186001 39.335999 51.970001 39.335999C 53.742756 39.26416 55.438732 40.063232 56.512001 41.476002M 51.970001 54.48L 51.970001 57M 51.970001 36.821999L 51.970001 39.344002"></path></g></g></g><g id="g-root-scri_1d0izyb1fp81v-stroke" data-item-order="0" transform="translate(303, 315)"><g id="scri_1d0izyb1fp81v-stroke" fill="none" stroke-linecap="round" stroke-linejoin="round" stroke-miterlimit="4" stroke="#ffffff" stroke-width="2"><g><path d="M 42.868 47C 42.868 50.313709 45.554291 53 48.868 53C 52.181709 53 54.868 50.313709 54.868 47C 54.868 43.686291 52.181709 41 48.868 41C 45.554291 41 42.868 43.686291 42.868 47ZM 41.968002 39.93C 41.940002 39.841999 41.93 39.743999 41.898003 39.66C 37.919998 28.4 21.658001 29.426001 21.658001 22.242001C 21.658001 18.726 25.316 17.102001 28.837999 17.102001C 30.226559 17.043734 31.610168 17.302261 32.883999 17.858C 32.061775 19.711086 32.444946 21.877644 33.85289 23.336308C 35.260826 24.794968 37.412472 25.254551 39.293488 24.498398C 41.1745 23.742245 42.409393 21.921299 42.416 19.894001C 42.416 16.462 36.493999 11 28.308001 11C 21.538 11 15.45 15.622 15.45 22.18C 15.45 35.739998 34.992001 33.598 34.992001 43.98C 34.992001 50.580002 26.860001 53.580002 21.444 47.335999C 23.055885 45.760441 23.405655 43.297405 22.296124 41.335388C 21.186596 39.373375 18.895611 38.403694 16.71468 38.972992C 14.533749 39.54229 13.009005 41.508007 13 43.762001C 14.427238 51.531197 21.261866 57.130009 29.16 57C 33.293144 57.073002 37.225262 55.220028 39.799999 51.986C 37.402199 47.992928 38.32502 42.842216 41.959999 39.93Z"></path></g></g></g><g id="g-root-tx_1992_1hegznn1f6y2t-stroke" data-item-order="0" transform="translate(387, 327)"></g><g id="g-root-tx_virtualb_1uo22rn1f6xhf-stroke" data-item-order="0" transform="translate(387, 363)"></g><g id="g-root-tx_1982_18itzer1f6yvi-stroke" data-item-order="0" transform="translate(207, 231)"></g><g id="g-root-tx_1994_1upb0xv1f6zno-stroke" data-item-order="0" transform="translate(207, 423)"></g><g id="g-root-2_1hgci2r1fi7lt-stroke" data-item-order="0" transform="translate(303, 411)"><g id="2_1hgci2r1fi7lt-stroke" fill="none" stroke-linecap="round" stroke-linejoin="round" stroke-miterlimit="4" stroke="#ffffff" stroke-width="2"><g><path d="M 15 11L 53 11C 53 11 57 11 57 15L 57 53C 57 53 57 57 53 57L 15 57C 15 57 11 57 11 53L 11 15C 11 15 11 11 15 11M 11 21L 57 21M 18 15.5C 18.276142 15.5 18.5 15.723858 18.5 16C 18.5 16.276142 18.276142 16.5 18 16.5C 17.723858 16.5 17.5 16.276142 17.5 16C 17.5 15.723858 17.723858 15.5 18 15.5M 24 15.5C 24.276142 15.5 24.5 15.723858 24.5 16C 24.5 16.276142 24.276142 16.5 24 16.5C 23.723858 16.5 23.5 16.276142 23.5 16C 23.5 15.723858 23.723858 15.5 24 15.5M 30 15.5C 30.276142 15.5 30.5 15.723858 30.5 16C 30.5 16.276142 30.276142 16.5 30 16.5C 29.723858 16.5 29.5 16.276142 29.5 16C 29.5 15.723858 29.723858 15.5 30 15.5M 27 21L 27 57M 34 25L 50 25C 50 25 51 25 51 26L 51 34C 51 34 51 35 50 35L 34 35C 34 35 33 35 33 34L 33 26C 33 26 33 25 34 25M 34 41L 50 41C 50 41 51 41 51 42L 51 50C 51 50 51 51 50 51L 34 51C 34 51 33 51 33 50L 33 42C 33 42 33 41 34 41M 15.042 25L 19 25M 19.042 29L 23 29M 19.042 33L 23 33M 19.042 37L 23 37M 15.042 41L 19 41M 19.042 45L 23 45M 19.042 49L 23 49"></path></g></g></g><g id="g-root-tx_netscape_8xs22r1f6z9e-stroke" data-item-order="0" transform="translate(87, 459)"></g><g id="g-root-tx_electron_141rj431f6xhh-stroke" data-item-order="0" transform="translate(387, 171)"></g><g id="g-root-1_147dw1v1ffdhd-stroke" data-item-order="0" transform="translate(303, 507)"><g id="1_147dw1v1ffdhd-stroke" fill="none" stroke-linecap="round" stroke-linejoin="round" stroke-miterlimit="4" stroke="#ffffff" stroke-width="2"><g><path d="M 55.900002 49.066002C 31.299999 62.504002 12.712 48.902 12.712 48.902M 51.186001 56.674C 54.049999 55.164001 56.501999 50.799999 55.911999 49.099998L 55.900002 49.066002C 55.380001 47.948002 50.728001 46.237999 47.119999 47.666M 35.856003 25.799999C 26.766001 26.48 18.6 27.99 18.6 37.372002C 18.378025 39.777393 19.216007 42.16 20.894844 43.896862C 22.573685 45.633724 24.926455 46.552147 27.337999 46.411999C 31.054251 46.634892 34.648552 45.045292 36.984001 42.146C 37.883144 43.602283 39.011688 44.903721 40.325996 46C 40.783585 46.222031 41.324848 46.183151 41.746002 45.898003C 42.966 44.882 45.099998 43.051998 46.216 42.040001C 46.652374 41.641975 46.697361 40.970692 46.318001 40.517998C 44.8866 39.091919 44.082001 37.154549 44.082001 35.134003L 44.082001 26C 44.082001 22.142 44.388 18.584 41.543999 15.95C 39.036118 13.960215 35.908257 12.915942 32.708 13C 26.200001 13 20.799999 15.658 19.6 21.938C 19.520115 22.209396 19.564806 22.502251 19.722004 22.737465C 19.8792 22.972681 20.132687 23.125996 20.414 23.156L 26.1 23.864C 26.643658 23.750961 27.05336 23.301741 27.116001 22.75C 27.649206 20.571743 29.656597 19.080898 31.896 19.200001C 33.159248 19.1661 34.364223 19.73114 35.146 20.723999C 35.85968 22.314308 36.105942 24.074907 35.856003 25.799999ZM 34.739998 37.884003C 32.799999 41.753998 27.122 41.765999 27.122 36.360001C 27.006115 33.698318 28.869839 31.358423 31.49 30.876001C 32.926239 30.582817 34.390396 30.448675 35.856003 30.476L 35.856003 31.695999C 36.106667 33.823074 35.718155 35.976612 34.739998 37.882Z"></path></g></g></g><g id="g-root-tx_1995_40h371f6z2j-stroke" data-item-order="0" transform="translate(387, 519)"></g><g id="g-root-tx_amazon_m98kg31f6xoh-stroke" data-item-order="0" transform="translate(387, 555)"></g><g id="g-root-tx_1979_v7zy4j1f6xan-stroke" data-item-order="0" transform="translate(387, 135)"></g><g id="g-root-tx_1998_8znhc31f6y9u-stroke" data-item-order="0" transform="translate(207, 615)"></g><g id="g-root-payp_4l30jn1fck5d-stroke" data-item-order="0" transform="translate(303, 603)"><g id="payp_4l30jn1fck5d-stroke" fill="none" stroke-linecap="round" stroke-linejoin="round" stroke-miterlimit="4" stroke="#ffffff" stroke-width="2"><g><path d="M 39.554287 15.451428L 22.342857 11.748571C 21.90135 11.635739 21.432947 11.707101 21.045071 11.946292C 20.657194 12.185482 20.383123 12.571979 20.285715 13.017143L 15.622857 34.994286L 12.16 51.142857C 11.968214 52.041035 12.533243 52.926758 13.428572 53.131428L 17.542858 54.022858C 17.979355 54.114082 18.43421 54.028023 18.807213 53.783642C 19.180212 53.539261 19.440752 53.156612 19.531429 52.720001L 22.959999 36.674286L 34.754284 39.21143C 38.312283 39.976532 42.025551 39.0952 44.860229 36.812817C 47.694916 34.53043 49.348282 31.090738 49.360001 27.451429C 49.335701 21.637585 45.246719 16.633591 39.554283 15.451428ZM 34.89143 31.428572L 24.605715 29.200001L 26.491428 20.285715L 36.777142 22.514286C 39.219246 23.045004 40.768974 25.45466 40.238876 27.896898C 39.708778 30.339136 37.299515 31.889477 34.85714 31.359999ZM 27.691429 56.285713L 29.817144 46.342857L 40.102856 48.502857C 47.78286 50.182858 55.874287 42.125713 55.977142 33.794285C 55.978447 32.405499 55.746655 31.026342 55.291428 29.714285"></path></g></g></g><g id="g-root-tx_paypal_qoflhf1f7020-stroke" data-item-order="0" transform="translate(195, 651)"></g><g id="g-root-appa_i0wxoj1f8ef4-stroke" data-item-order="0" transform="translate(303, 123)"><g id="appa_i0wxoj1f8ef4-stroke" fill="none" stroke-linecap="round" stroke-linejoin="round" stroke-miterlimit="4" stroke="#ffffff" stroke-width="2"><g><path d="M 36 50L 15 50C 12.790861 50 11 48.209141 11 46L 11 15C 11 12.790861 12.790861 11 15 11L 53 11C 55.209141 11 57 12.790861 57 15L 57 37M 11 21L 57 21M 18 15.5C 18.276142 15.5 18.5 15.723858 18.5 16C 18.5 16.276142 18.276142 16.5 18 16.5C 17.723858 16.5 17.5 16.276142 17.5 16C 17.5 15.723858 17.723858 15.5 18 15.5M 24 15.5C 24.276142 15.5 24.5 15.723858 24.5 16C 24.5 16.276142 24.276142 16.5 24 16.5C 23.723858 16.5 23.5 16.276142 23.5 16C 23.5 15.723858 23.723858 15.5 24 15.5M 30 15.5C 30.276142 15.5 30.5 15.723858 30.5 16C 30.5 16.276142 30.276142 16.5 30 16.5C 29.723858 16.5 29.5 16.276142 29.5 16C 29.5 15.723858 29.723858 15.5 30 15.5M 41 35L 45 35L 43.377998 28.514C 43.155083 27.624138 42.355358 27.000025 41.438 27L 37 27C 37 28.656855 35.656853 30 34 30C 32.343147 30 31 28.656855 31 27L 26.562 27C 25.644642 27.000025 24.844917 27.624138 24.622 28.514L 23 35L 27 35L 27 43L 34 43M 57 57L 48 48M 44.094002 52.799999C 44.247486 53.172306 44.609318 53.416222 45.012012 53.418842C 45.414707 53.421463 45.779682 53.182278 45.938 52.812L 48 48L 52.812 45.938C 53.182278 45.779682 53.421463 45.414707 53.418842 45.012012C 53.416222 44.609318 53.172306 44.247486 52.799999 44.094002L 40.220001 38.914001C 39.846512 38.75975 39.416901 38.84544 39.131172 39.131172C 38.84544 39.416901 38.75975 39.846512 38.914001 40.220001Z"></path></g></g></g><g id="g-root-tx_1999_dfgzgj1f6xhl-stroke" data-item-order="0" transform="translate(387, 711)"></g><g id="g-root-tx_alibaba_v493lv1f6z9r-stroke" data-item-order="0" transform="translate(387, 747)"></g><g id="g-root-tx_1969_mccxvn1f6yv4-stroke" data-item-order="0" transform="translate(207, 39)"></g><g id="g-root-tx_2004_mahimb1f6zuo-stroke" data-item-order="0" transform="translate(207, 807)"></g><g id="g-root-stor_dhcepv1fs00a-stroke" data-item-order="0" transform="translate(303, 795)"><g id="stor_dhcepv1fs00a-stroke" fill="none" stroke-linecap="round" stroke-linejoin="round" stroke-miterlimit="4" stroke="#ffffff" stroke-width="2"><g><path d="M 36.220001 34.200001L 46.959999 53.220001C 47.74435 54.611534 49.508186 55.103855 50.899818 54.319679C 52.291451 53.535507 52.783997 51.771732 52 50.380001L 49.200001 45.400002L 54.139999 45.400002C 55.643139 45.274849 56.799377 44.018337 56.799377 42.510002C 56.799377 41.001663 55.643139 39.745155 54.140003 39.620003L 46 39.620003L 39.440002 28.16M 16.98 48.66L 16 50.380001C 15.215755 51.766235 15.703766 53.525757 17.09 54.310001C 18.476234 55.094246 20.235756 54.606236 21.02 53.220001L 23.6 48.68M 35.120003 39.620003L 28.719999 39.620003L 41.16 17.619999C 41.944244 16.233765 41.456238 14.474245 40.07 13.690001C 38.683769 12.905756 36.924248 13.393765 36.139999 14.780001L 34 18.560001L 31.860001 14.780001C 31.075756 13.393765 29.316236 12.905756 27.93 13.690001C 26.543766 14.474245 26.055756 16.233765 26.84 17.620001L 30.68 24.42L 22.1 39.620003L 13.88 39.620003C 12.376863 39.745155 11.220624 41.001663 11.220624 42.510002C 11.220624 44.018337 12.376863 45.274849 13.88 45.400002L 38.52 45.400002"></path></g></g></g><g id="g-root-tx_shopify_18fplz71f6xou-stroke" data-item-order="0" transform="translate(195, 843)"></g><g id="g-root-tx_covid19d_1haq54z1f701x-stroke" data-item-order="0" transform="translate(387, 939)"></g><g id="g-root-moni_1q6zmgz1fp821-stroke" data-item-order="0" transform="translate(303, 891)"><g id="moni_1q6zmgz1fp821-stroke" fill="none" stroke-linecap="round" stroke-linejoin="round" stroke-miterlimit="4" stroke="#ffffff" stroke-width="2"><g><path d="M 40 55L 28 55C 29.717556 52.660442 30.755709 49.892033 31 47L 37 47C 37.256348 49.889305 38.293324 52.654568 40 55ZM 24 55L 44 55M 11 41L 57 41M 57 44.919998C 57 46.02457 56.104568 46.919998 55 46.919998L 13 46.919998C 11.895431 46.919998 11 46.02457 11 44.919998L 11 15C 11 13.895431 11.895431 13 13 13L 55 13C 56.104568 13 57 13.895431 57 15ZM 28 25L 30.540001 19M 37.459999 19L 40 25M 42 25L 26 25L 27.52 32C 27.612257 32.626236 28.16814 33.077888 28.799999 33.040001L 39.200001 33.040001C 39.831856 33.077888 40.387741 32.626236 40.48 32Z"></path></g></g></g><g id="g-root-tx_2020_qqb0qr1f6z2f-stroke" data-item-order="0" transform="translate(387, 903)"></g><g id="g-root-tx_compserv_v64iv71f6ya6-stroke" data-item-order="0" transform="translate(159, 75)"></g><g id="g-root-1_1uooq6b1fb6kt-stroke" data-item-order="0" transform="translate(303, 27)"><g id="1_1uooq6b1fb6kt-stroke" fill="none" stroke-linecap="round" stroke-linejoin="round" stroke-miterlimit="4" stroke="#ffffff" stroke-width="2"><g><path d="M 46.411999 33.860001L 49.490002 41L 55.48 41C 56.09922 40.97747 56.66608 41.345642 56.897285 41.920517C 57.128494 42.495396 56.974392 43.153526 56.512001 43.566002L 51.312 48.198002L 54.192001 54.824001C 54.451164 55.445415 54.285248 56.162895 53.779583 56.607445C 53.273918 57.051998 52.541096 57.124634 51.958 56.788002L 45 52.866001L 38.040001 56.787998C 37.456905 57.124634 36.724083 57.051998 36.218422 56.607445C 35.712753 56.162895 35.546837 55.445415 35.806 54.824001L 38.686001 48.198002L 33.486 43.568001C 33.022644 43.156311 32.867306 42.498215 33.097656 41.922783C 33.328011 41.347351 33.894554 40.978233 34.514 41L 40.514 41L 43.596001 33.860001C 43.875305 33.342522 44.415958 33.019958 45.004002 33.019958C 45.592041 33.019958 46.132694 33.342522 46.411999 33.860001ZM 21 51L 27 51M 27.002001 41L 27.002001 51M 16.5 50C 16.223858 50 16 50.223858 16 50.5C 16 50.776142 16.223858 51 16.5 51C 16.776142 51 17 50.776142 17 50.5C 17 50.223858 16.776142 50 16.5 50L 16.5 50M 11.5 50C 11.223858 50 11 50.223858 11 50.5C 11 50.776142 11.223858 51 11.5 51C 11.776142 51 12 50.776142 12 50.5C 12 50.223858 11.776142 50 11.5 50L 11.5 50M 18.5 35.5C 18.223858 35.5 18 35.723858 18 36C 18 36.276142 18.223858 36.5 18.5 36.5C 18.776142 36.5 19 36.276142 19 36C 19 35.723858 18.776142 35.5 18.5 35.5L 18.5 35.5M 23.5 35.5C 23.223858 35.5 23 35.723858 23 36C 23 36.276142 23.223858 36.5 23.5 36.5C 23.776142 36.5 24 36.276142 24 36C 24 35.723858 23.776142 35.5 23.5 35.5L 23.5 35.5M 35 31L 16 31C 13.238577 31 11 33.238579 11 36C 11 38.761425 13.238577 41 16 41L 29 41M 18.5 25.5C 18.223858 25.5 18 25.723858 18 26C 18 26.276142 18.223858 26.5 18.5 26.5C 18.776142 26.5 19 26.276142 19 26C 19 25.723858 18.776142 25.5 18.5 25.5L 18.5 25.5M 23.5 25.5C 23.223858 25.5 23 25.723858 23 26C 23 26.276142 23.223858 26.5 23.5 26.5C 23.776142 26.5 24 26.276142 24 26C 24 25.723858 23.776142 25.5 23.5 25.5L 23.5 25.5M 45 26C 45 23.238577 42.761425 21 40 21L 16 21C 13.238577 21 11 23.238577 11 26C 11 28.761423 13.238577 31 16 31L 35 31M 18.5 15.5C 18.223858 15.5 18 15.723858 18 16C 18 16.276142 18.223858 16.5 18.5 16.5C 18.776142 16.5 19 16.276142 19 16C 19 15.723858 18.776142 15.5 18.5 15.5L 18.5 15.5M 23.5 15.5C 23.223858 15.5 23 15.723858 23 16C 23 16.276142 23.223858 16.5 23.5 16.5C 23.776142 16.5 24 16.276142 24 16C 24 15.723858 23.776142 15.5 23.5 15.5L 23.5 15.5M 45 16C 45 13.238576 42.761425 11 40 11L 16 11C 13.238577 11 11 13.238577 11 16C 11 18.761425 13.238577 21 16 21L 40 21C 42.761425 21 45 18.761425 45 16Z"></path></g></g></g><g id="g-root-cart_1lzadmr1f6xai-stroke" data-item-order="0" transform="translate(303, 699)"><g id="cart_1lzadmr1f6xai-stroke" fill="none" stroke-linecap="round" stroke-linejoin="round" stroke-miterlimit="4" stroke="#ffffff" stroke-width="2"><g><path d="M 57 57L 48 48M 44.094002 52.799999C 44.247486 53.172306 44.609318 53.416222 45.012012 53.418842C 45.414707 53.421463 45.779682 53.182278 45.938 52.812L 48 48L 52.812 45.938C 53.182278 45.779682 53.421463 45.414707 53.418842 45.012012C 53.416222 44.609318 53.172306 44.247486 52.799999 44.094002L 40.220001 38.914001C 39.846512 38.75975 39.416901 38.84544 39.131172 39.131172C 38.84544 39.416901 38.75975 39.846512 38.914001 40.220001ZM 30 37C 30 38.104568 30.89543 39 32 39C 33.104568 39 34 38.104568 34 37C 34 35.895432 33.104568 35 32 35C 30.89543 35 30 35.895432 30 37ZM 22 37C 22 38.104568 22.895432 39 24 39C 25.104568 39 26 38.104568 26 37C 26 35.895432 25.104568 35 24 35C 22.895432 35 22 35.895432 22 37ZM 38 18L 33 33L 23 33L 20 23L 36.334 23M 35.542 45.773998C 27.540775 48.891232 18.451937 45.918385 13.83942 38.675362C 9.226904 31.432333 10.377058 21.939075 16.585789 16.007095C 22.794521 10.075114 32.330326 9.358733 39.355652 14.296501C 46.380978 19.234268 48.936584 28.449129 45.458004 36.300003"></path></g></g></g></g></g></svg>