<?xml version="1.0" encoding="UTF-8"?><svg id="Layer_2" xmlns="http://www.w3.org/2000/svg" width="1025.37" height="945.27" viewBox="0 0 1025.37 945.27"><g id="Layer_2-2"><path d="M1025.37,51.69v487.83c0,28.55-23.14,51.69-51.69,51.69h-312.85c-27.25,0-49.34,22.09-49.34,49.34v253.03c0,28.55-23.14,51.69-51.69,51.69H51.69c-28.54,0-51.69-23.14-51.69-51.69v-487.84c0-28.55,23.15-51.69,51.69-51.69h310c28.83,0,52.19-23.37,52.19-52.19V51.69c0-28.55,23.14-51.69,51.69-51.69h508.11c28.55,0,51.69,23.14,51.69,51.69Z" style="fill:#fff;"/></g></svg>