<?xml version="1.0" encoding="utf-8" standalone="yes"?>
<!DOCTYPE svg PUBLIC "-//W3C//DTD SVG 1.1//EN" "http://www.w3.org/Graphics/SVG/1.1/DTD/svg11.dtd">
<svg width="674" height="336" viewBox="0 0 674 336" style="fill:none;stroke:none;fill-rule:evenodd;clip-rule:evenodd;stroke-linecap:round;stroke-linejoin:round;stroke-miterlimit:1.5;" version="1.1" xmlns="http://www.w3.org/2000/svg" xmlns:xlink="http://www.w3.org/1999/xlink"><style id="fontImports"></style><g id="items" style="isolation: isolate"><g id="blend" style="mix-blend-mode:normal"><g id="g-root--1.line_sy_hrjqahbouq6i-fill" data-item-order="-3737" transform="translate(570, 156.99609375)"></g><g id="g-root--1.vector_sy_dbq861bouqyr-fill" data-item-order="-3733" transform="translate(15, 156.99609375)"></g><g id="g-root-6.cu-smallCircle_sy_dbq861bouqys-fill" data-item-order="-3729" transform="translate(564, 154)"></g><g id="g-root-5.cu-smallCircle_sy_4g37x5bourrh-fill" data-item-order="-3725" transform="translate(468, 154)"></g><g id="g-root-4.cu-smallCircle_sy_w6vtboupdy-fill" data-item-order="-3721" transform="translate(372, 154)"></g><g id="g-root-3.cu-smallCircle_sy_1q6d8m1boupzj-fill" data-item-order="-3717" transform="translate(276, 154)"></g><g id="g-root-2.cu-smallCircle_sy_1lqjqhlbouqrs-fill" data-item-order="-3713" transform="translate(180, 154)"></g><g id="g-root-1.cu-smallCircle_sy_1haq8d5bourk1-fill" data-item-order="-3709" transform="translate(84, 154)"></g><g id="g-root-tx_webserve_18gyndlbourd3-fill" data-item-order="0" transform="translate(27, 13)"><g id="tx_webserve_18gyndlbourd3-fill" stroke="none" fill="#484848"><g><text style="font: 20px Arial, Helvetica, sans-serif; white-space: pre;" font-size="20px" font-family="Arial, Helvetica, sans-serif"><tspan x="14.6" y="33" dominant-baseline="ideographic">Web Server </tspan><tspan x="32.76" y="57" dominant-baseline="ideographic">Initiates </tspan><tspan x="16.63" y="81" dominant-baseline="ideographic">Connection</tspan></text></g></g></g><g id="g-root-tx_sslcerti_1q7m6s9bous5p-fill" data-item-order="0" transform="translate(207, 37)"><g id="tx_sslcerti_1q7m6s9bous5p-fill" stroke="none" fill="#484848"><g><text style="font: 20px Arial, Helvetica, sans-serif; white-space: pre;" font-size="20px" font-family="Arial, Helvetica, sans-serif"><tspan x="13.84" y="33" dominant-baseline="ideographic">SSL Certificate </tspan><tspan x="59.59" y="57" dominant-baseline="ideographic">Sent</tspan></text></g></g></g><g id="g-root-tx_digitala_hssogpbouscr-fill" data-item-order="0" transform="translate(393, 37)"><g id="tx_digitala_hssogpbouscr-fill" stroke="none" fill="#484848"><g><text style="font: 20px Arial, Helvetica, sans-serif; white-space: pre;" font-size="20px" font-family="Arial, Helvetica, sans-serif"><tspan x="60.2" y="33" dominant-baseline="ideographic">Digital </tspan><tspan x="11.84" y="57" dominant-baseline="ideographic">Acknowledgment</tspan></text></g></g></g><g id="g-root-brow_qqwct5byx53h-fill" data-item-order="0" transform="translate(63, 97)"></g><g id="g-root-1_1hjgyqhboxjb8-fill" data-item-order="0" transform="translate(255, 97)"></g><g id="g-root-chec_djueahbpczk6-fill" data-item-order="0" transform="translate(447, 97)"></g><g id="g-root-2_zqy02hbp8snc-fill" data-item-order="0" transform="translate(159, 169)"></g><g id="g-root-1_1qa46ahbourkd-fill" data-item-order="0" transform="translate(351, 169)"></g><g id="g-root-lock_8wj74pbp8sg4-fill" data-item-order="0" transform="translate(543, 169)"></g><g id="g-root-tx_identity_1lsf5qxboups6-fill" data-item-order="0" transform="translate(117, 229)"><g id="tx_identity_1lsf5qxboups6-fill" stroke="none" fill="#484848"><g><text style="font: 20px Arial, Helvetica, sans-serif; white-space: pre;" font-size="20px" font-family="Arial, Helvetica, sans-serif"><tspan x="40.98" y="33" dominant-baseline="ideographic">Identity </tspan><tspan x="16.52" y="57" dominant-baseline="ideographic">Confirmation </tspan><tspan x="35.98" y="81" dominant-baseline="ideographic">Request</tspan></text></g></g></g><g id="g-root-tx_trustver_4hyn6hbouqrw-fill" data-item-order="0" transform="translate(321, 229)"><g id="tx_trustver_4hyn6hbouqrw-fill" stroke="none" fill="#484848"><g><text style="font: 20px Arial, Helvetica, sans-serif; white-space: pre;" font-size="20px" font-family="Arial, Helvetica, sans-serif"><tspan x="41.58" y="33" dominant-baseline="ideographic">Trust </tspan><tspan x="15.08" y="57" dominant-baseline="ideographic">Verification</tspan></text></g></g></g><g id="g-root-tx_encrypte_13zw72xboupz6-fill" data-item-order="0" transform="translate(489, 229)"><g id="tx_encrypte_13zw72xboupz6-fill" stroke="none" fill="#484848"><g><text style="font: 20px Arial, Helvetica, sans-serif; white-space: pre;" font-size="20px" font-family="Arial, Helvetica, sans-serif"><tspan x="17.53" y="33" dominant-baseline="ideographic">Encrypted Data </tspan><tspan x="41.98" y="57" dominant-baseline="ideographic">Exchange</tspan></text></g></g></g><g id="g-root--1.line_sy_hrjqahbouq6i-stroke" data-item-order="-3737" transform="translate(570, 156.99609375)"><g id="-1.line_sy_hrjqahbouq6i-stroke" fill="none" stroke-linecap="round" stroke-linejoin="round" stroke-miterlimit="4" stroke="#484848" stroke-width="2"><g><path d="M 77 10.003906L 10 10.003906"></path><path d="M 71 16.503906L 77.5 10.003906L 71 3.503906" stroke-dasharray="none"></path></g></g></g><g id="g-root--1.vector_sy_dbq861bouqyr-stroke" data-item-order="-3733" transform="translate(15, 156.99609375)"><g id="-1.vector_sy_dbq861bouqyr-stroke" fill="none" stroke-linecap="round" stroke-linejoin="round" stroke-miterlimit="4" stroke="#484848" stroke-width="2"><g><path d="M 559 10L 469 10M 463 10L 373 10M 367 10L 277 10M 271 10L 181 10M 174.9976 10L 84.9976 10M 78.9976 10L 10 10"></path></g></g></g><g id="g-root-6.cu-smallCircle_sy_dbq861bouqys-stroke" data-item-order="-3729" transform="translate(564, 154)"><g id="6.cu-smallCircle_sy_dbq861bouqys-stroke" fill="none" stroke-linecap="round" stroke-linejoin="round" stroke-miterlimit="4" stroke="#484848" stroke-width="2"><g><path d="M 16 13C 16 14.6569 14.6569 16 13 16C 11.3431 16 10 14.6569 10 13C 10 11.3431 11.3431 10 13 10C 14.6569 10 16 11.3431 16 13Z"></path></g></g></g><g id="g-root-5.cu-smallCircle_sy_4g37x5bourrh-stroke" data-item-order="-3725" transform="translate(468, 154)"><g id="5.cu-smallCircle_sy_4g37x5bourrh-stroke" fill="none" stroke-linecap="round" stroke-linejoin="round" stroke-miterlimit="4" stroke="#484848" stroke-width="2"><g><path d="M 16 13C 16 14.6569 14.6569 16 13 16C 11.3431 16 10 14.6569 10 13C 10 11.3431 11.3431 10 13 10C 14.6569 10 16 11.3431 16 13Z"></path></g></g></g><g id="g-root-4.cu-smallCircle_sy_w6vtboupdy-stroke" data-item-order="-3721" transform="translate(372, 154)"><g id="4.cu-smallCircle_sy_w6vtboupdy-stroke" fill="none" stroke-linecap="round" stroke-linejoin="round" stroke-miterlimit="4" stroke="#484848" stroke-width="2"><g><path d="M 16 13C 16 14.6569 14.6569 16 13 16C 11.3431 16 10 14.6569 10 13C 10 11.3431 11.3431 10 13 10C 14.6569 10 16 11.3431 16 13Z"></path></g></g></g><g id="g-root-3.cu-smallCircle_sy_1q6d8m1boupzj-stroke" data-item-order="-3717" transform="translate(276, 154)"><g id="3.cu-smallCircle_sy_1q6d8m1boupzj-stroke" fill="none" stroke-linecap="round" stroke-linejoin="round" stroke-miterlimit="4" stroke="#484848" stroke-width="2"><g><path d="M 16 13C 16 14.6569 14.6569 16 13 16C 11.3431 16 10 14.6569 10 13C 10 11.3431 11.3431 10 13 10C 14.6569 10 16 11.3431 16 13Z"></path></g></g></g><g id="g-root-2.cu-smallCircle_sy_1lqjqhlbouqrs-stroke" data-item-order="-3713" transform="translate(180, 154)"><g id="2.cu-smallCircle_sy_1lqjqhlbouqrs-stroke" fill="none" stroke-linecap="round" stroke-linejoin="round" stroke-miterlimit="4" stroke="#484848" stroke-width="2"><g><path d="M 16 13C 16 14.6569 14.6569 16 13 16C 11.3431 16 10 14.6569 10 13C 10 11.3431 11.3431 10 13 10C 14.6569 10 16 11.3431 16 13Z"></path></g></g></g><g id="g-root-1.cu-smallCircle_sy_1haq8d5bourk1-stroke" data-item-order="-3709" transform="translate(84, 154)"><g id="1.cu-smallCircle_sy_1haq8d5bourk1-stroke" fill="none" stroke-linecap="round" stroke-linejoin="round" stroke-miterlimit="4" stroke="#484848" stroke-width="2"><g><path d="M 16 13C 16 14.6569 14.6569 16 13 16C 11.3431 16 10 14.6569 10 13C 10 11.3431 11.3431 10 13 10C 14.6569 10 16 11.3431 16 13Z"></path></g></g></g><g id="g-root-tx_webserve_18gyndlbourd3-stroke" data-item-order="0" transform="translate(27, 13)"></g><g id="g-root-tx_sslcerti_1q7m6s9bous5p-stroke" data-item-order="0" transform="translate(207, 37)"></g><g id="g-root-tx_digitala_hssogpbouscr-stroke" data-item-order="0" transform="translate(393, 37)"></g><g id="g-root-brow_qqwct5byx53h-stroke" data-item-order="0" transform="translate(63, 97)"><g id="brow_qqwct5byx53h-stroke" fill="none" stroke-linecap="round" stroke-linejoin="round" stroke-miterlimit="4" stroke="#4e88e7" stroke-width="2"><g><path d="M 11 19L 51 19M 17 14.5C 16.723858 14.5 16.5 14.723858 16.5 15C 16.5 15.276142 16.723858 15.5 17 15.5C 17.276142 15.5 17.5 15.276142 17.5 15C 17.5 14.723858 17.276142 14.5 17 14.5L 17 14.5M 21 14.5C 20.723858 14.5 20.5 14.723858 20.5 15C 20.5 15.276142 20.723858 15.5 21 15.5C 21.276142 15.5 21.5 15.276142 21.5 15C 21.5 14.723858 21.276142 14.5 21 14.5L 21 14.5M 25 14.5C 24.723858 14.5 24.5 14.723858 24.5 15C 24.5 15.276142 24.723858 15.5 25 15.5C 25.276142 15.5 25.5 15.276142 25.5 15C 25.5 14.723858 25.276142 14.5 25 14.5L 25 14.5M 25 43L 15 43C 12.790861 43 11 41.209137 11 39L 11 15C 11 12.790861 12.790861 11 15 11L 47 11C 49.209141 11 51 12.790861 51 15L 51 27M 43 57C 39 54 37 48 37 43C 37 38 39 32 43 29M 43 57C 47 54 49 48 49 43C 49 38 47 32 43 29M 30.348 37L 55.652 37M 30.348 49L 55.652 49M 29 43L 57 43M 29 43C 29.000002 50.731987 35.268013 57 43 57C 50.731987 57 57 50.731987 57 43C 57 35.268013 50.731987 29.000002 43 29.000002C 35.268013 29.000002 29.000002 35.268013 29.000002 43Z"></path></g></g></g><g id="g-root-1_1hjgyqhboxjb8-stroke" data-item-order="0" transform="translate(255, 97)"><g id="1_1hjgyqhboxjb8-stroke" fill="none" stroke-linecap="round" stroke-linejoin="round" stroke-miterlimit="4" stroke="#3cc583" stroke-width="2"><g><path d="M 57 55C 57 56.104568 56.104568 57 55 57L 41 57C 39.895432 57 39 56.104568 39 55L 39 43C 39 41.895432 39.895432 41 41 41L 55 41C 56.104568 41 57 41.895432 57 43ZM 45.5 49.125999C 45.5 50.506714 46.619289 51.625999 48 51.625999C 49.380711 51.625999 50.5 50.506714 50.5 49.125999C 50.5 47.745289 49.380711 46.625999 48 46.625999C 46.619289 46.625999 45.5 47.745289 45.5 49.125999ZM 53 38C 53 35.238579 50.761425 33 48 33C 45.238575 33 43 35.238579 43 38L 43 41L 53 41ZM 21 51L 33 51M 27.002001 41L 27.002001 51M 16.5 50C 16.223858 50 16 50.223858 16 50.5C 16 50.776142 16.223858 51 16.5 51C 16.776142 51 17 50.776142 17 50.5C 17 50.223858 16.776142 50 16.5 50L 16.5 50M 11.5 50C 11.223858 50 11 50.223858 11 50.5C 11 50.776142 11.223858 51 11.5 51C 11.776142 51 12 50.776142 12 50.5C 12 50.223858 11.776142 50 11.5 50L 11.5 50M 18.5 35.5C 18.223858 35.5 18 35.723858 18 36C 18 36.276142 18.223858 36.5 18.5 36.5C 18.776142 36.5 19 36.276142 19 36C 19 35.723858 18.776142 35.5 18.5 35.5L 18.5 35.5M 23.5 35.5C 23.223858 35.5 23 35.723858 23 36C 23 36.276142 23.223858 36.5 23.5 36.5C 23.776142 36.5 24 36.276142 24 36C 24 35.723858 23.776142 35.5 23.5 35.5L 23.5 35.5M 35 31L 16 31C 13.238577 31 11 33.238579 11 36C 11 38.761425 13.238577 41 16 41L 35 41M 18.5 15.5C 18.223858 15.5 18 15.723858 18 16C 18 16.276142 18.223858 16.5 18.5 16.5C 18.776142 16.5 19 16.276142 19 16C 19 15.723858 18.776142 15.5 18.5 15.5L 18.5 15.5M 23.5 15.5C 23.223858 15.5 23 15.723858 23 16C 23 16.276142 23.223858 16.5 23.5 16.5C 23.776142 16.5 24 16.276142 24 16C 24 15.723858 23.776142 15.5 23.5 15.5L 23.5 15.5M 45 16C 45 13.238576 42.761425 11 40 11L 16 11C 13.238577 11 11 13.238577 11 16C 11 18.761425 13.238577 21 16 21L 40 21C 42.761425 21 45 18.761425 45 16ZM 18.5 25.5C 18.223858 25.5 18 25.723858 18 26C 18 26.276142 18.223858 26.5 18.5 26.5C 18.776142 26.5 19 26.276142 19 26C 19 25.723858 18.776142 25.5 18.5 25.5L 18.5 25.5M 23.5 25.5C 23.223858 25.5 23 25.723858 23 26C 23 26.276142 23.223858 26.5 23.5 26.5C 23.776142 26.5 24 26.276142 24 26C 24 25.723858 23.776142 25.5 23.5 25.5L 23.5 25.5M 45 26C 45 23.238577 42.761425 21 40 21L 16 21C 13.238577 21 11 23.238577 11 26C 11 28.761423 13.238577 31 16 31L 40 31C 42.761425 31 45 28.761423 45 26Z"></path></g></g></g><g id="g-root-chec_djueahbpczk6-stroke" data-item-order="0" transform="translate(447, 97)"><g id="chec_djueahbpczk6-stroke" fill="none" stroke-linecap="round" stroke-linejoin="round" stroke-miterlimit="4" stroke="#e0cb15" stroke-width="2"><g><path d="M 53 19C 53 21.209139 51.209141 23 49 23L 15 23C 12.790861 23 11 21.209139 11 19L 11 15C 11 12.790861 12.790861 11 15 11L 49 11C 51.209141 11 53 12.790861 53 15ZM 15 35C 12.790861 35 11 33.209137 11 31L 11 27C 11 24.790861 12.790861 23 15 23L 49 23C 51.209141 23 53 24.790861 53 27L 53 30M 19.5 16.5C 19.223858 16.5 19 16.723858 19 17C 19 17.276142 19.223858 17.5 19.5 17.5C 19.776142 17.5 20 17.276142 20 17C 20 16.723858 19.776142 16.5 19.5 16.5L 19.5 16.5M 26.5 16.5C 26.223858 16.5 26 16.723858 26 17C 26 17.276142 26.223858 17.5 26.5 17.5C 26.776142 17.5 27 17.276142 27 17C 27 16.723858 26.776142 16.5 26.5 16.5L 26.5 16.5M 19.5 28.5C 19.223858 28.5 19 28.723858 19 29C 19 29.276142 19.223858 29.5 19.5 29.5C 19.776142 29.5 20 29.276142 20 29C 20 28.723858 19.776142 28.5 19.5 28.5L 19.5 28.5M 26.5 28.5C 26.223858 28.5 26 28.723858 26 29C 26 29.276142 26.223858 29.5 26.5 29.5C 26.776142 29.5 27 29.276142 27 29C 27 28.723858 26.776142 28.5 26.5 28.5L 26.5 28.5M 28 47L 15 47C 12.790861 47 11 45.209141 11 43L 11 39C 11 36.790863 12.790861 35 15 35L 31 35M 19.5 40.5C 19.223858 40.5 19 40.723858 19 41C 19 41.276142 19.223858 41.5 19.5 41.5C 19.776142 41.5 20 41.276142 20 41C 20 40.723858 19.776142 40.5 19.5 40.5L 19.5 40.5M 26.5 40.5C 26.223858 40.5 26 40.723858 26 41C 26 41.276142 26.223858 41.5 26.5 41.5C 26.776142 41.5 27 41.276142 27 41C 27 40.723858 26.776142 40.5 26.5 40.5L 26.5 40.5M 33 45C 33 51.627419 38.372581 57 45 57C 51.627419 57 57 51.627419 57 45C 57 38.372581 51.627419 33 45 33C 38.372581 33 33 38.372581 33 45ZM 50.348 41.512001L 44.537998 49.259998C 44.276993 49.607555 43.878059 49.824806 43.444496 49.855503C 43.010933 49.886196 42.585373 49.727318 42.278 49.420002L 39.278 46.419998"></path></g></g></g><g id="g-root-2_zqy02hbp8snc-stroke" data-item-order="0" transform="translate(159, 169)"><g id="2_zqy02hbp8snc-stroke" fill="none" stroke-linecap="round" stroke-linejoin="round" stroke-miterlimit="4" stroke="#1eabda" stroke-width="2"><g><path d="M 56.285713 46L 56.285713 52.857143C 56.285713 54.750694 54.750694 56.285713 52.857143 56.285713L 46 56.285713M 46 11.714286L 52.857143 11.714286C 54.750694 11.714286 56.285713 13.24931 56.285713 15.142858L 56.285713 22M 11.714286 22L 11.714286 15.142858C 11.714286 13.24931 13.24931 11.714286 15.142858 11.714286L 22 11.714286M 22 56.285713L 15.142858 56.285713C 13.24931 56.285713 11.714286 54.750694 11.714286 52.857143L 11.714286 46M 23.714287 22L 23.714287 28.857143M 44.285713 22L 44.285713 28.857143M 34 25.428572L 34 37.428574L 28.857143 37.428574M 25.428572 44.285713C 30.232044 48.848454 37.76796 48.848454 42.57143 44.285713"></path></g></g></g><g id="g-root-1_1qa46ahbourkd-stroke" data-item-order="0" transform="translate(351, 169)"><g id="1_1qa46ahbourkd-stroke" fill="none" stroke-linecap="round" stroke-linejoin="round" stroke-miterlimit="4" stroke="#92bd39" stroke-width="2"><g><path d="M 33 45C 33 51.627419 38.372581 57 45 57C 51.627419 57 57 51.627419 57 45C 57 38.372581 51.627419 33 45 33C 38.372581 33 33 38.372581 33 45ZM 50.348 41.512001L 44.537998 49.259998C 44.276993 49.607555 43.878059 49.824806 43.444496 49.855503C 43.010933 49.886196 42.585373 49.727318 42.278 49.420002L 39.278 46.419998M 21 51L 27 51M 27.002001 41L 27.002001 51M 16.5 50C 16.223858 50 16 50.223858 16 50.5C 16 50.776142 16.223858 51 16.5 51C 16.776142 51 17 50.776142 17 50.5C 17 50.223858 16.776142 50 16.5 50L 16.5 50M 11.5 50C 11.223858 50 11 50.223858 11 50.5C 11 50.776142 11.223858 51 11.5 51C 11.776142 51 12 50.776142 12 50.5C 12 50.223858 11.776142 50 11.5 50L 11.5 50M 18.5 35.5C 18.223858 35.5 18 35.723858 18 36C 18 36.276142 18.223858 36.5 18.5 36.5C 18.776142 36.5 19 36.276142 19 36C 19 35.723858 18.776142 35.5 18.5 35.5L 18.5 35.5M 23.5 35.5C 23.223858 35.5 23 35.723858 23 36C 23 36.276142 23.223858 36.5 23.5 36.5C 23.776142 36.5 24 36.276142 24 36C 24 35.723858 23.776142 35.5 23.5 35.5L 23.5 35.5M 35 31L 16 31C 13.238577 31 11 33.238579 11 36C 11 38.761425 13.238577 41 16 41L 29 41M 18.5 25.5C 18.223858 25.5 18 25.723858 18 26C 18 26.276142 18.223858 26.5 18.5 26.5C 18.776142 26.5 19 26.276142 19 26C 19 25.723858 18.776142 25.5 18.5 25.5L 18.5 25.5M 23.5 25.5C 23.223858 25.5 23 25.723858 23 26C 23 26.276142 23.223858 26.5 23.5 26.5C 23.776142 26.5 24 26.276142 24 26C 24 25.723858 23.776142 25.5 23.5 25.5L 23.5 25.5M 45 26C 45 23.238577 42.761425 21 40 21L 16 21C 13.238577 21 11 23.238577 11 26C 11 28.761423 13.238577 31 16 31L 35 31M 18.5 15.5C 18.223858 15.5 18 15.723858 18 16C 18 16.276142 18.223858 16.5 18.5 16.5C 18.776142 16.5 19 16.276142 19 16C 19 15.723858 18.776142 15.5 18.5 15.5L 18.5 15.5M 23.5 15.5C 23.223858 15.5 23 15.723858 23 16C 23 16.276142 23.223858 16.5 23.5 16.5C 23.776142 16.5 24 16.276142 24 16C 24 15.723858 23.776142 15.5 23.5 15.5L 23.5 15.5M 45 16C 45 13.238576 42.761425 11 40 11L 16 11C 13.238577 11 11 13.238577 11 16C 11 18.761425 13.238577 21 16 21L 40 21C 42.761425 21 45 18.761425 45 16Z"></path></g></g></g><g id="g-root-lock_8wj74pbp8sg4-stroke" data-item-order="0" transform="translate(543, 169)"><g id="lock_8wj74pbp8sg4-stroke" fill="none" stroke-linecap="round" stroke-linejoin="round" stroke-miterlimit="4" stroke="#de8431" stroke-width="2"><g><path d="M 37.428574 22L 54.57143 22C 54.57143 22 56.285713 22 56.285713 23.714287L 56.285713 35.714287C 56.285713 35.714287 56.285713 37.428574 54.57143 37.428574L 37.428574 37.428574C 37.428574 37.428574 35.714287 37.428574 35.714287 35.714287L 35.714287 23.714287C 35.714287 23.714287 35.714287 22 37.428574 22M 39.142857 22L 39.142857 18.571428C 39.142857 14.784333 42.212906 11.714286 46 11.714286C 49.787094 11.714286 52.857143 14.784333 52.857143 18.571428L 52.857143 22M 11.714286 39.142857L 22 39.142857C 26.73387 39.142857 30.571428 42.980419 30.571428 47.714287L 30.571428 47.714287M 20.285715 47.714287L 37.428574 47.714287C 41.215668 47.714287 44.285713 50.784332 44.285713 54.57143L 44.285713 54.57143C 44.285713 55.518204 43.518204 56.285713 42.57143 56.285713L 11.714286 56.285713"></path></g></g></g><g id="g-root-tx_identity_1lsf5qxboups6-stroke" data-item-order="0" transform="translate(117, 229)"></g><g id="g-root-tx_trustver_4hyn6hbouqrw-stroke" data-item-order="0" transform="translate(321, 229)"></g><g id="g-root-tx_encrypte_13zw72xboupz6-stroke" data-item-order="0" transform="translate(489, 229)"></g></g></g></svg>