<?xml version="1.0" encoding="utf-8" standalone="yes"?>
<!DOCTYPE svg PUBLIC "-//W3C//DTD SVG 1.1//EN" "http://www.w3.org/Graphics/SVG/1.1/DTD/svg11.dtd">
<svg width="818" height="476" viewBox="0 0 818 476" style="fill:none;stroke:none;fill-rule:evenodd;clip-rule:evenodd;stroke-linecap:round;stroke-linejoin:round;stroke-miterlimit:1.5;" version="1.1" xmlns="http://www.w3.org/2000/svg" xmlns:xlink="http://www.w3.org/1999/xlink"><style id="fontImports"></style><g id="items" style="isolation: isolate"><g id="blend" style="mix-blend-mode:normal"><g id="g-root-ro_1hitltvb4wyyx-fill" data-item-order="-19800" transform="translate(333, 82)"><g id="ro_1hitltvb4wyyx-fill" stroke="none" fill="#f0f0f0"><g><path d="M 34 10L 118 10C 118 10 142 10 142 34L 142 136C 142 136 142 160 118 160L 34 160C 34 160 10 160 10 136L 10 34C 10 34 10 10 34 10"></path></g></g></g><g id="g-root-ro_90vwebb4zsw1-fill" data-item-order="-13608" transform="translate(507, 169)"><g id="ro_90vwebb4zsw1-fill" stroke="none" fill="#fff9ce"><g><path d="M 22 10L 250 10C 250 10 262 10 262 22L 262 52C 262 52 262 64 250 64L 22 64C 22 64 10 64 10 52L 10 22C 10 22 10 10 22 10"></path></g></g></g><g id="g-root-ro_3dn7nb517gj-fill" data-item-order="-8424" transform="translate(141, 169)"><g id="ro_3dn7nb517gj-fill" stroke="none" fill="#fdd0eb"><g><path d="M 22 10L 154 10C 154 10 166 10 166 22L 166 52C 166 52 166 64 154 64L 22 64C 22 64 10 64 10 52L 10 22C 10 22 10 10 22 10"></path></g></g></g><g id="g-root-ro_4gp8znb4srns-fill" data-item-order="-8424" transform="translate(321, 319)"><g id="ro_4gp8znb4srns-fill" stroke="none" fill="#ffd0ce"><g><path d="M 22 10L 154 10C 154 10 166 10 166 22L 166 52C 166 52 166 64 154 64L 22 64C 22 64 10 64 10 52L 10 22C 10 22 10 10 22 10"></path></g></g></g><g id="g-root-ro_qn6airb4u5u7-fill" data-item-order="-6480" transform="translate(171, 19)"><g id="ro_qn6airb4u5u7-fill" stroke="none" fill="#ecf7d5"><g><path d="M 22 10L 118 10C 118 10 130 10 130 22L 130 52C 130 52 130 64 118 64L 22 64C 22 64 10 64 10 52L 10 22C 10 22 10 10 22 10"></path></g></g></g><g id="g-root-ro_de7f0jb52l1l-fill" data-item-order="-6480" transform="translate(507, 19)"><g id="ro_de7f0jb52l1l-fill" stroke="none" fill="#f0cffd"><g><path d="M 22 10L 118 10C 118 10 130 10 130 22L 130 52C 130 52 130 64 118 64L 22 64C 22 64 10 64 10 52L 10 22C 10 22 10 10 22 10"></path></g></g></g><g id="g-root-cu_18i75j7b5179j-fill" data-item-order="0" transform="translate(465, 46)"></g><g id="g-root-cu_zofkjnb517v3-fill" data-item-order="0" transform="translate(347, 373)"></g><g id="g-root-tx_revision_4iko8zb4sqo6-fill" data-item-order="0" transform="translate(555, 271)"><g id="tx_revision_4iko8zb4sqo6-fill" stroke="none" fill="#484848"><g><text style="font: 20px Arial, Helvetica, sans-serif; white-space: pre;" font-size="20px" font-family="Arial, Helvetica, sans-serif"><tspan x="15.76" y="33" dominant-baseline="ideographic">Revision History</tspan></text></g></g></g><g id="g-root-tx_customem_vqv7b4ssg1-fill" data-item-order="0" transform="translate(15, 85)"><g id="tx_customem_vqv7b4ssg1-fill" stroke="none" fill="#484848"><g><text style="font: 20px Arial, Helvetica, sans-serif; white-space: pre;" font-size="20px" font-family="Arial, Helvetica, sans-serif"><tspan x="12.29" y="33" dominant-baseline="ideographic">Custom Email Addresses</tspan></text></g></g></g><g id="g-root-cu_592gzb516ha-fill" data-item-order="0" transform="translate(242.45452880859375, 73)"></g><g id="g-root-cu_mbq403b5179f-fill" data-item-order="0" transform="translate(249, 73)"></g><g id="g-root-tx_taskinte_1cxe6kjb4sqh4-fill" data-item-order="0" transform="translate(87, 271)"><g id="tx_taskinte_1cxe6kjb4sqh4-fill" stroke="none" fill="#484848"><g><text style="font: 20px Arial, Helvetica, sans-serif; white-space: pre;" font-size="20px" font-family="Arial, Helvetica, sans-serif"><tspan x="17.4" y="33" dominant-baseline="ideographic">Task Integration</tspan></text></g></g></g><g id="g-root-cu_1ltnnwjb515ok-fill" data-item-order="0" transform="translate(291, 46)"></g><g id="g-root-cu_1qaq477b517ur-fill" data-item-order="0" transform="translate(524.368408203125, 73)"></g><g id="g-root-tx_realtime_m987nnb4srgt-fill" data-item-order="0" transform="translate(555, 235)"><g id="tx_realtime_m987nnb4srgt-fill" stroke="none" fill="#484848"><g><text style="font: 20px Arial, Helvetica, sans-serif; white-space: pre;" font-size="20px" font-family="Arial, Helvetica, sans-serif"><tspan x="13.51" y="33" dominant-baseline="ideographic">Real-time Collaboration</tspan></text></g></g></g><g id="g-root-cu_1uqjmbnb5172g-fill" data-item-order="0" transform="translate(531, 73)"></g><g id="g-root-cu_1czw2wzb516a0-fill" data-item-order="0" transform="translate(530.5384521484375, 223)"></g><g id="g-root-cu_v98jibb515hm-fill" data-item-order="0" transform="translate(347, 373)"></g><g id="g-root-cu_mbq403b5179c-fill" data-item-order="0" transform="translate(399, 232)"></g><g id="g-root-tx_storageo_18fp96rb4ss8z-fill" data-item-order="0" transform="translate(555, 85)"><g id="tx_storageo_18fp96rb4ss8z-fill" stroke="none" fill="#484848"><g><text style="font: 20px Arial, Helvetica, sans-serif; white-space: pre;" font-size="20px" font-family="Arial, Helvetica, sans-serif"><tspan x="15.73" y="33" dominant-baseline="ideographic">Storage Options</tspan></text></g></g></g><g id="g-root-tx_247suppo_1lr5rk3b4sqo2-fill" data-item-order="0" transform="translate(117, 121)"><g id="tx_247suppo_1lr5rk3b4sqo2-fill" stroke="none" fill="#484848"><g><text style="font: 20px Arial, Helvetica, sans-serif; white-space: pre;" font-size="20px" font-family="Arial, Helvetica, sans-serif"><tspan x="12.73" y="33" dominant-baseline="ideographic">24/7 Support</tspan></text></g></g></g><g id="g-root-cu_18k2ksjb5172d-fill" data-item-order="0" transform="translate(249, 223)"></g><g id="g-root-cu_18k2ksjb5172a-fill" data-item-order="0" transform="translate(249, 223)"></g><g id="g-root-tx_meetingm_1uo1pz7b4sr9r-fill" data-item-order="0" transform="translate(39, 235)"><g id="tx_meetingm_1uo1pz7b4sr9r-fill" stroke="none" fill="#484848"><g><text style="font: 20px Arial, Helvetica, sans-serif; white-space: pre;" font-size="20px" font-family="Arial, Helvetica, sans-serif"><tspan x="15.27" y="33" dominant-baseline="ideographic">Meeting Management</tspan></text></g></g></g><g id="g-root-cu_18i75j7b5179m-fill" data-item-order="0" transform="translate(465, 182)"></g><g id="g-root-tx_fileform_zkoq0zb4spvw-fill" data-item-order="0" transform="translate(555, 121)"><g id="tx_fileform_zkoq0zb4spvw-fill" stroke="none" fill="#484848"><g><text style="font: 20px Arial, Helvetica, sans-serif; white-space: pre;" font-size="20px" font-family="Arial, Helvetica, sans-serif"><tspan x="13.41" y="33" dominant-baseline="ideographic">File Format Compatibility</tspan></text></g></g></g><g id="g-root-tx_restrict_mb3mwzb4sqh6-fill" data-item-order="0" transform="translate(375, 421)"><g id="tx_restrict_mb3mwzb4sqh6-fill" stroke="none" fill="#484848"><g><text style="font: 20px Arial, Helvetica, sans-serif; white-space: pre;" font-size="20px" font-family="Arial, Helvetica, sans-serif"><tspan x="14.52" y="33" dominant-baseline="ideographic">Restricted Access</tspan></text></g></g></g><g id="g-root-cu_qrjm4jb516h1-fill" data-item-order="0" transform="translate(297, 182)"></g><g id="g-root-tx_secureen_v6qn5vb4spoh-fill" data-item-order="0" transform="translate(375, 385)"><g id="tx_secureen_v6qn5vb4spoh-fill" stroke="none" fill="#484848"><g><text style="font: 20px Arial, Helvetica, sans-serif; white-space: pre;" font-size="20px" font-family="Arial, Helvetica, sans-serif"><tspan x="15.4" y="33" dominant-baseline="ideographic">Secure Environment</tspan></text></g></g></g><g id="g-root-cu_1hfpl1fb515hp-fill" data-item-order="0" transform="translate(530.3333129882812, 223)"></g><g id="g-root-pad_4j75c3b516oa-fill" data-item-order="1000000000" transform="translate(255, 181)"></g><g id="g-root-tx_calendar_hunnpfb5153d-fill" data-item-order="1000000000" transform="translate(153, 184)"><g id="tx_calendar_hunnpfb5153d-fill" stroke="none" fill="#da5da8"><g><text style="font: 20px Arial, Helvetica, sans-serif; white-space: pre;" font-size="20px" font-family="Arial, Helvetica, sans-serif"><tspan x="17.41" y="33" dominant-baseline="ideographic">Calendar</tspan></text></g></g></g><g id="g-root-tx_gsuiteto_1uua477b4wxdz-fill" data-item-order="1000000000" transform="translate(357, 160)"><g id="tx_gsuiteto_1uua477b4wxdz-fill" stroke="none" fill="#484848"><g><text style="font: 20px Arial, Helvetica, sans-serif; white-space: pre;" font-size="20px" font-family="Arial, Helvetica, sans-serif"><tspan x="16.05" y="33" dominant-baseline="ideographic">G Suite </tspan><tspan x="26.05" y="57" dominant-baseline="ideographic">Tools</tspan></text></g></g></g><g id="g-root-chat_dgpeirb4zs3s-fill" data-item-order="1000000000" transform="translate(519, 181)"></g><g id="g-root-tx_docsshee_qs5ww3b4zqiv-fill" data-item-order="1000000000" transform="translate(555, 184)"><g id="tx_docsshee_qs5ww3b4zqiv-fill" stroke="none" fill="#93c131"><g><text style="font: 20px Arial, Helvetica, sans-serif; white-space: pre;" font-size="20px" font-family="Arial, Helvetica, sans-serif"><tspan x="13.73" y="33" dominant-baseline="ideographic">Docs, Sheets, Slides</tspan></text></g></g></g><g id="g-root-driv_1qegm2rb4wy68-fill" data-item-order="1000000000" transform="translate(375, 106)"></g><g id="g-root-tx_drive_qpnxdvb52jgn-fill" data-item-order="1000000000" transform="translate(555, 34)"><g id="tx_drive_qpnxdvb52jgn-fill" stroke="none" fill="#b65edf"><g><text style="font: 20px Arial, Helvetica, sans-serif; white-space: pre;" font-size="20px" font-family="Arial, Helvetica, sans-serif"><tspan x="16.66" y="33" dominant-baseline="ideographic">Drive</tspan></text></g></g></g><g id="g-root-1_hs5rczb4sq2v-fill" data-item-order="1000000000" transform="translate(339, 331)"></g><g id="g-root-tx_google_m7csebb4ssge-fill" data-item-order="1000000000" transform="translate(375, 334)"><g id="tx_google_m7csebb4ssge-fill" stroke="none" fill="#e15e5a"><g><text style="font: 20px Arial, Helvetica, sans-serif; white-space: pre;" font-size="20px" font-family="Arial, Helvetica, sans-serif"><tspan x="13.91" y="33" dominant-baseline="ideographic">Google+</tspan></text></g></g></g><g id="g-root-driv_m9uf9fb52k8w-fill" data-item-order="1000000000" transform="translate(519, 31)"></g><g id="g-root-gmai_13ymsw3b4u49a-fill" data-item-order="1000000000" transform="translate(249, 31)"></g><g id="g-root-tx_gmail_1d3mxfnb4ss1x-fill" data-item-order="1000000000" transform="translate(183, 34)"><g id="tx_gmail_1d3mxfnb4ss1x-fill" stroke="none" fill="#93c131"><g><text style="font: 20px Arial, Helvetica, sans-serif; white-space: pre;" font-size="20px" font-family="Arial, Helvetica, sans-serif"><tspan x="13.88" y="33" dominant-baseline="ideographic">Gmail</tspan></text></g></g></g><g id="g-root-ro_1hitltvb4wyyx-stroke" data-item-order="-19800" transform="translate(333, 82)"><g id="ro_1hitltvb4wyyx-stroke" fill="none" stroke-linecap="round" stroke-linejoin="round" stroke-miterlimit="4" stroke="#2c2c2c" stroke-width="2"><g><path d="M 34 10L 118 10C 118 10 142 10 142 34L 142 136C 142 136 142 160 118 160L 34 160C 34 160 10 160 10 136L 10 34C 10 34 10 10 34 10"></path></g></g></g><g id="g-root-ro_90vwebb4zsw1-stroke" data-item-order="-13608" transform="translate(507, 169)"><g id="ro_90vwebb4zsw1-stroke" fill="none" stroke-linecap="round" stroke-linejoin="round" stroke-miterlimit="4" stroke="#2c2c2c" stroke-width="2"><g><path d="M 22 10L 250 10C 250 10 262 10 262 22L 262 52C 262 52 262 64 250 64L 22 64C 22 64 10 64 10 52L 10 22C 10 22 10 10 22 10"></path></g></g></g><g id="g-root-ro_3dn7nb517gj-stroke" data-item-order="-8424" transform="translate(141, 169)"><g id="ro_3dn7nb517gj-stroke" fill="none" stroke-linecap="round" stroke-linejoin="round" stroke-miterlimit="4" stroke="#2c2c2c" stroke-width="2"><g><path d="M 22 10L 154 10C 154 10 166 10 166 22L 166 52C 166 52 166 64 154 64L 22 64C 22 64 10 64 10 52L 10 22C 10 22 10 10 22 10"></path></g></g></g><g id="g-root-ro_4gp8znb4srns-stroke" data-item-order="-8424" transform="translate(321, 319)"><g id="ro_4gp8znb4srns-stroke" fill="none" stroke-linecap="round" stroke-linejoin="round" stroke-miterlimit="4" stroke="#2c2c2c" stroke-width="2"><g><path d="M 22 10L 154 10C 154 10 166 10 166 22L 166 52C 166 52 166 64 154 64L 22 64C 22 64 10 64 10 52L 10 22C 10 22 10 10 22 10"></path></g></g></g><g id="g-root-ro_qn6airb4u5u7-stroke" data-item-order="-6480" transform="translate(171, 19)"><g id="ro_qn6airb4u5u7-stroke" fill="none" stroke-linecap="round" stroke-linejoin="round" stroke-miterlimit="4" stroke="#2c2c2c" stroke-width="2"><g><path d="M 22 10L 118 10C 118 10 130 10 130 22L 130 52C 130 52 130 64 118 64L 22 64C 22 64 10 64 10 52L 10 22C 10 22 10 10 22 10"></path></g></g></g><g id="g-root-ro_de7f0jb52l1l-stroke" data-item-order="-6480" transform="translate(507, 19)"><g id="ro_de7f0jb52l1l-stroke" fill="none" stroke-linecap="round" stroke-linejoin="round" stroke-miterlimit="4" stroke="#2c2c2c" stroke-width="2"><g><path d="M 22 10L 118 10C 118 10 130 10 130 22L 130 52C 130 52 130 64 118 64L 22 64C 22 64 10 64 10 52L 10 22C 10 22 10 10 22 10"></path></g></g></g><g id="g-root-cu_18i75j7b5179j-stroke" data-item-order="0" transform="translate(465, 46)"><g id="cu_18i75j7b5179j-stroke" fill="none" stroke-linecap="round" stroke-linejoin="round" stroke-miterlimit="4" stroke="#A3A3A3" stroke-width="2" stroke-dasharray="5.0, 7.0"><g><path d="M 10 96L 12.7 96L 12.8 96C 23.127724 95.999993 31.499998 87.627718 31.499998 77.299995L 31.5 77.2L 31.5 74.4L 31.4 63.7L 31 53L 30.6 42.3L 30.5 31.6L 30.5 31.5L 30.5 28.7C 30.500001 18.372275 38.872276 10 49.200001 10L 49.3 10L 52 10"></path></g></g></g><g id="g-root-cu_zofkjnb517v3-stroke" data-item-order="0" transform="translate(347, 373)"><g id="cu_zofkjnb517v3-stroke" fill="none" stroke-linecap="round" stroke-linejoin="round" stroke-miterlimit="4" stroke="#A3A3A3" stroke-width="2" stroke-dasharray="5.0, 7.0"><g><path d="M 10 10L 10 22L 10 34L 21 34L 32 34"></path></g></g></g><g id="g-root-tx_revision_4iko8zb4sqo6-stroke" data-item-order="0" transform="translate(555, 271)"></g><g id="g-root-tx_customem_vqv7b4ssg1-stroke" data-item-order="0" transform="translate(15, 85)"></g><g id="g-root-cu_592gzb516ha-stroke" data-item-order="0" transform="translate(242.45452880859375, 73)"><g id="cu_592gzb516ha-stroke" fill="none" stroke-linecap="round" stroke-linejoin="round" stroke-miterlimit="4" stroke="#A3A3A3" stroke-width="2" stroke-dasharray="5.0, 7.0"><g><path d="M 34.5 10L 34.5 13.8L 34.5 28L 34.6 34L 34.8 40L 35 46L 35.1 52L 35.1 52.1L 35.1 58C 35.099999 64.627415 29.727416 69.999998 23.099999 69.999998L 23 70L 10 70"></path></g></g></g><g id="g-root-cu_mbq403b5179f-stroke" data-item-order="0" transform="translate(249, 73)"><g id="cu_mbq403b5179f-stroke" fill="none" stroke-linecap="round" stroke-linejoin="round" stroke-miterlimit="4" stroke="#A3A3A3" stroke-width="2" stroke-dasharray="5.0, 7.0"><g><path d="M 28 10L 28 22L 28 34L 19 34L 10 34"></path></g></g></g><g id="g-root-tx_taskinte_1cxe6kjb4sqh4-stroke" data-item-order="0" transform="translate(87, 271)"></g><g id="g-root-cu_1ltnnwjb515ok-stroke" data-item-order="0" transform="translate(291, 46)"><g id="cu_1ltnnwjb515ok-stroke" fill="none" stroke-linecap="round" stroke-linejoin="round" stroke-miterlimit="4" stroke="#A3A3A3" stroke-width="2" stroke-dasharray="5.0, 7.0"><g><path d="M 52 96L 49.3 96L 49.2 96C 38.872273 95.999999 30.499999 87.627724 30.499999 77.299999L 30.5 77.2L 30.5 74.4L 30.6 63.7L 31 53L 31.4 42.3L 31.5 31.6L 31.5 31.5L 31.5 28.7C 31.499999 18.372275 23.127724 10.000001 12.8 10L 12.7 10L 10 10"></path></g></g></g><g id="g-root-cu_1qaq477b517ur-stroke" data-item-order="0" transform="translate(524.368408203125, 73)"><g id="cu_1qaq477b517ur-stroke" fill="none" stroke-linecap="round" stroke-linejoin="round" stroke-miterlimit="4" stroke="#A3A3A3" stroke-width="2" stroke-dasharray="5.0, 7.0"><g><path d="M 16.6 10L 16.6 13.8L 16.6 28C 16.615312 29.888669 16.345461 31.980016 15.800001 34.200001C 15.459988 35.528389 14.57742 37.575948 13.299998 40C 12.022577 42.424053 11.140008 44.471612 10.799998 45.8C 10.25454 48.019987 9.984689 50.111334 10 52.000002L 10 52.1L 10 58C 10.000002 64.627417 15.372585 70 22.000002 69.999999L 22.1 70L 34.6 70"></path></g></g></g><g id="g-root-tx_realtime_m987nnb4srgt-stroke" data-item-order="0" transform="translate(555, 235)"></g><g id="g-root-cu_1uqjmbnb5172g-stroke" data-item-order="0" transform="translate(531, 73)"><g id="cu_1uqjmbnb5172g-stroke" fill="none" stroke-linecap="round" stroke-linejoin="round" stroke-miterlimit="4" stroke="#A3A3A3" stroke-width="2" stroke-dasharray="5.0, 7.0"><g><path d="M 10 10L 10 22L 10 34L 19 34L 28 34"></path></g></g></g><g id="g-root-cu_1czw2wzb516a0-stroke" data-item-order="0" transform="translate(530.5384521484375, 223)"><g id="cu_1czw2wzb516a0-stroke" fill="none" stroke-linecap="round" stroke-linejoin="round" stroke-miterlimit="4" stroke="#A3A3A3" stroke-width="2" stroke-dasharray="5.0, 7.0"><g><path d="M 10.5 10L 10.5 13.8L 10.5 28L 10.4 34L 10.2 40L 10.1 46L 10 52L 10 52.1L 10 58C 10.000002 64.627417 15.372585 70 22.000002 69.999999L 22.1 70L 28.5 70"></path></g></g></g><g id="g-root-cu_v98jibb515hm-stroke" data-item-order="0" transform="translate(347, 373)"><g id="cu_v98jibb515hm-stroke" fill="none" stroke-linecap="round" stroke-linejoin="round" stroke-miterlimit="4" stroke="#A3A3A3" stroke-width="2" stroke-dasharray="5.0, 7.0"><g><path d="M 10 10L 10 17.5L 10 58C 10.000002 64.627417 15.372585 70 22.000002 69.999999L 22.1 70L 32 70"></path></g></g></g><g id="g-root-cu_mbq403b5179c-stroke" data-item-order="0" transform="translate(399, 232)"><g id="cu_mbq403b5179c-stroke" fill="none" stroke-linecap="round" stroke-linejoin="round" stroke-miterlimit="4" stroke="#A3A3A3" stroke-width="2" stroke-dasharray="5.0, 7.0"><g><path d="M 10 10L 10 53.5L 10 97"></path></g></g></g><g id="g-root-tx_storageo_18fp96rb4ss8z-stroke" data-item-order="0" transform="translate(555, 85)"></g><g id="g-root-tx_247suppo_1lr5rk3b4sqo2-stroke" data-item-order="0" transform="translate(117, 121)"></g><g id="g-root-cu_18k2ksjb5172d-stroke" data-item-order="0" transform="translate(249, 223)"><g id="cu_18k2ksjb5172d-stroke" fill="none" stroke-linecap="round" stroke-linejoin="round" stroke-miterlimit="4" stroke="#A3A3A3" stroke-width="2" stroke-dasharray="5.0, 7.0"><g><path d="M 32 10L 32 17.5L 32 58C 31.999999 64.627421 26.627415 70.000004 19.999998 70.000003L 19.9 70L 10 70"></path></g></g></g><g id="g-root-cu_18k2ksjb5172a-stroke" data-item-order="0" transform="translate(249, 223)"><g id="cu_18k2ksjb5172a-stroke" fill="none" stroke-linecap="round" stroke-linejoin="round" stroke-miterlimit="4" stroke="#A3A3A3" stroke-width="2" stroke-dasharray="5.0, 7.0"><g><path d="M 32 10L 32 22L 32 34L 21 34L 10 34"></path></g></g></g><g id="g-root-tx_meetingm_1uo1pz7b4sr9r-stroke" data-item-order="0" transform="translate(39, 235)"></g><g id="g-root-cu_18i75j7b5179m-stroke" data-item-order="0" transform="translate(465, 182)"><g id="cu_18i75j7b5179m-stroke" fill="none" stroke-linecap="round" stroke-linejoin="round" stroke-miterlimit="4" stroke="#A3A3A3" stroke-width="2" stroke-dasharray="5.0, 7.0"><g><path d="M 10 10L 12.6 10L 12.7 10C 15.720144 9.994222 19.046826 10.605245 22.500001 11.8C 24.562824 12.51932 27.575104 14.362127 31 16.999999C 34.424896 19.637872 37.437177 21.480678 39.5 22.199999C 42.953177 23.394756 46.279859 24.005779 49.300003 24.000001L 49.4 24L 52 24"></path></g></g></g><g id="g-root-tx_fileform_zkoq0zb4spvw-stroke" data-item-order="0" transform="translate(555, 121)"></g><g id="g-root-tx_restrict_mb3mwzb4sqh6-stroke" data-item-order="0" transform="translate(375, 421)"></g><g id="g-root-cu_qrjm4jb516h1-stroke" data-item-order="0" transform="translate(297, 182)"><g id="cu_qrjm4jb516h1-stroke" fill="none" stroke-linecap="round" stroke-linejoin="round" stroke-miterlimit="4" stroke="#A3A3A3" stroke-width="2" stroke-dasharray="5.0, 7.0"><g><path d="M 46 10L 43.8 10L 43.7 10C 41.028168 9.985073 38.095679 10.59885 35.1 11.8C 33.327765 12.511132 30.800291 14.36224 28.000001 17.000001C 25.199712 19.637761 22.672237 21.488869 20.900001 22.200001C 17.942045 23.385942 15.045283 23.999374 12.399999 24L 12.3 24L 10 24"></path></g></g></g><g id="g-root-tx_secureen_v6qn5vb4spoh-stroke" data-item-order="0" transform="translate(375, 385)"></g><g id="g-root-cu_1hfpl1fb515hp-stroke" data-item-order="0" transform="translate(530.3333129882812, 223)"><g id="cu_1hfpl1fb515hp-stroke" fill="none" stroke-linecap="round" stroke-linejoin="round" stroke-miterlimit="4" stroke="#A3A3A3" stroke-width="2" stroke-dasharray="5.0, 7.0"><g><path d="M 10.7 10L 10.7 16L 10.7 22L 10.3 22L 10 22L 10 28L 10 34L 19.3 34L 28.7 34"></path></g></g></g><g id="g-root-pad_4j75c3b516oa-stroke" data-item-order="1000000000" transform="translate(255, 181)"><g id="pad_4j75c3b516oa-stroke" fill="none" stroke-linecap="round" stroke-linejoin="round" stroke-miterlimit="4" stroke="#484848" stroke-width="2"><g><path d="M 18.571428 17.5L 18.571428 11.071428M 25 17.5L 25 11.071428M 31.42857 17.5L 31.42857 11.071428M 13.214286 14.285714L 36.785713 14.285714C 36.785713 14.285714 38.92857 14.285714 38.92857 16.428572L 38.92857 36.785713C 38.92857 36.785713 38.92857 38.92857 36.785713 38.92857L 13.214286 38.92857C 13.214286 38.92857 11.071428 38.92857 11.071428 36.785713L 11.071428 16.428572C 11.071428 16.428572 11.071428 14.285714 13.214286 14.285714"></path></g></g></g><g id="g-root-tx_calendar_hunnpfb5153d-stroke" data-item-order="1000000000" transform="translate(153, 184)"></g><g id="g-root-tx_gsuiteto_1uua477b4wxdz-stroke" data-item-order="1000000000" transform="translate(357, 160)"></g><g id="g-root-chat_dgpeirb4zs3s-stroke" data-item-order="1000000000" transform="translate(519, 181)"><g id="chat_dgpeirb4zs3s-stroke" fill="none" stroke-linecap="round" stroke-linejoin="round" stroke-miterlimit="4" stroke="#93c131" stroke-width="2"><g><path d="M 26.875 30.625L 36.25 30.625M 26.875 33.125L 33.125 33.125M 28.125 25.625C 28.066381 24.11595 28.640167 22.650896 29.708031 21.583031C 30.775898 20.515167 32.240948 19.941381 33.75 20C 35.259052 19.941381 36.724106 20.515167 37.791969 21.583031C 38.859833 22.650896 39.43362 24.11595 39.375 25.625ZM 30 14.375C 30 16.446068 31.678932 18.125 33.75 18.125C 35.821068 18.125 37.5 16.446068 37.5 14.375C 37.5 12.303932 35.821068 10.625 33.75 10.625C 31.678932 10.625 30 12.303932 30 14.375ZM 37.463753 13.85375C 36.801102 14.203506 36.061749 14.382651 35.3125 14.375C 33.515987 14.375628 31.877239 13.349163 31.09375 11.7325M 10.625 39.375C 10.566381 37.865952 11.140166 36.400898 12.208032 35.333031C 13.275896 34.265167 14.74095 33.69138 16.25 33.75C 17.75905 33.69138 19.224104 34.265167 20.291969 35.333031C 21.359833 36.400898 21.93362 37.865952 21.875 39.375ZM 12.5 28.125C 12.5 30.196068 14.178932 31.875 16.25 31.875C 18.321068 31.875 20 30.196068 20 28.125C 20 26.053932 18.321068 24.375 16.25 24.375C 14.178932 24.375 12.5 26.053932 12.5 28.125ZM 19.966249 27.625C 19.311604 27.961449 18.584749 28.13308 17.848749 28.124998C 16.041206 28.125229 14.394491 27.086428 13.61625 25.455M 25.625 28.125C 24.934643 28.125 24.375 28.684643 24.375 29.375L 24.375 35.625C 24.375 36.315353 24.934643 36.875 25.625 36.875L 27.5 36.875L 27.5 39.375L 30.625 36.875L 38.125 36.875C 38.815353 36.875 39.375 36.315353 39.375 35.625L 39.375 29.375C 39.375 28.684643 38.815353 28.125 38.125 28.125ZM 22.5 13.125L 13.125 13.125M 19.375 15.625L 13.125 15.625M 24.375 10.625C 25.065357 10.625 25.625 11.184644 25.625 11.875L 25.625 18.125C 25.625 18.815355 25.065357 19.375 24.375 19.375L 22.5 19.375L 22.5 22.5L 19.375 19.375L 11.875 19.375C 11.184644 19.375 10.625 18.815355 10.625 18.125L 10.625 11.875C 10.625 11.184644 11.184644 10.625 11.875 10.625Z"></path></g></g></g><g id="g-root-tx_docsshee_qs5ww3b4zqiv-stroke" data-item-order="1000000000" transform="translate(555, 184)"></g><g id="g-root-driv_1qegm2rb4wy68-stroke" data-item-order="1000000000" transform="translate(375, 106)"><g id="driv_1qegm2rb4wy68-stroke" fill="none" stroke-linecap="round" stroke-linejoin="round" stroke-miterlimit="4" stroke="#484848" stroke-width="2"><g><path d="M 11 40.299999L 57 40.299999M 56.439999 38.200001C 57.178097 39.502716 57.178097 41.097282 56.440002 42.400002L 50.68 52.400002C 49.901402 53.65892 48.520123 54.417866 47.039997 54.399998L 21.040001 54.400002C 19.559872 54.417866 18.178593 53.65892 17.4 52.399998L 11.64 42.400002C 10.901902 41.097282 10.901902 39.502716 11.64 38.200001L 24.6 15.62C 25.375751 14.358088 26.758873 13.598129 28.24 13.62L 39.760002 13.62C 41.241127 13.598129 42.624249 14.358088 43.399998 15.62ZM 41.860001 14.08L 18.860001 53.919998M 26.139999 14.08L 49.139999 53.919998"></path></g></g></g><g id="g-root-tx_drive_qpnxdvb52jgn-stroke" data-item-order="1000000000" transform="translate(555, 34)"></g><g id="g-root-1_hs5rczb4sq2v-stroke" data-item-order="1000000000" transform="translate(339, 331)"><g id="1_hs5rczb4sq2v-stroke" fill="none" stroke-linecap="round" stroke-linejoin="round" stroke-miterlimit="4" stroke="#484848" stroke-width="2"><g><path d="M 26.875 18.1875C 23.686216 15.24993 18.933886 14.788811 15.239839 17.05854C 11.545793 19.328268 9.809654 23.776089 10.989242 27.948166C 12.16883 32.120239 15.976874 35.00053 20.3125 35C 26.875 35 29.375 30.3125 29.375 25.3125C 29.375 24.995834 29.360416 24.68375 29.331249 24.376251L 20.625 24.376251L 20.625 26.876251L 26.639999 26.876251C 26.569292 28.469387 25.856823 29.966087 24.664862 31.025478C 23.472898 32.084869 21.902925 32.616756 20.3125 32.5C 17.1208 32.500168 14.3113 30.395542 13.414304 27.332478C 12.517307 24.269415 13.747705 20.98173 16.435312 19.260185C 19.122919 17.538639 22.623875 17.79566 25.03125 19.891251ZM 39.375 24.375L 36.875 24.375L 36.875 21.875L 34.375 21.875L 34.375 24.375L 31.875 24.375L 31.875 26.875L 34.375 26.875L 34.375 29.375L 36.875 29.375L 36.875 26.875L 39.375 26.875L 39.375 24.375Z"></path></g></g></g><g id="g-root-tx_google_m7csebb4ssge-stroke" data-item-order="1000000000" transform="translate(375, 334)"></g><g id="g-root-driv_m9uf9fb52k8w-stroke" data-item-order="1000000000" transform="translate(519, 31)"><g id="driv_m9uf9fb52k8w-stroke" fill="none" stroke-linecap="round" stroke-linejoin="round" stroke-miterlimit="4" stroke="#484848" stroke-width="2"><g><path d="M 33.938747 28.091249C 33.938747 28.091249 39.375 27.3925 39.375 21.875C 39.37656 20.178406 38.68708 18.554348 37.465443 17.377047C 36.243805 16.199747 34.595379 15.570753 32.900002 15.635C 31.196297 12.023304 27.260471 10.026576 23.339767 10.784889C 19.419064 11.543203 16.51162 14.863504 16.2775 18.85C 14.895172 18.559196 13.455414 18.907272 12.358598 19.797436C 11.261781 20.687599 10.624878 22.024916 10.625 23.437502C 10.625 28.19875 15.41875 28.1175 15.41875 28.1175M 36.875 36.25C 36.875 37.975891 35.475891 39.375 33.75 39.375L 16.25 39.375C 14.52411 39.375 13.125 37.975891 13.125 36.25L 13.125 33.125L 36.875 33.125ZM 13.125 33.125L 16.04125 26.76C 16.389843 26.095457 17.063093 25.664045 17.8125 25.625002L 31.25 25.625C 32.00993 25.669497 32.704575 26.069149 33.125 26.703751L 36.875 33.125ZM 28.75 36.875L 32.5 36.875"></path></g></g></g><g id="g-root-gmai_13ymsw3b4u49a-stroke" data-item-order="1000000000" transform="translate(249, 31)"><g id="gmai_13ymsw3b4u49a-stroke" fill="none" stroke-linecap="round" stroke-linejoin="round" stroke-miterlimit="4" stroke="#484848" stroke-width="2"><g><path d="M 39.375 21.1625L 25 27.549999L 10.625 21.1625M 31.712502 15.5L 31.712502 35.862499L 36.824997 35.862499C 38.215763 35.828568 39.325413 34.691177 39.324997 33.299999L 39.324997 17.975C 39.308006 16.648136 38.611084 15.42289 37.479305 14.73012C 36.347527 14.03735 34.939362 13.974057 33.749996 14.5625L 25 18.637501L 16.25 14.5625C 15.056461 13.950405 13.630821 14.001351 12.484019 14.697078C 11.337216 15.392805 10.633471 16.633686 10.625 17.975L 10.625 33.299999C 10.624586 34.691177 11.734237 35.828568 13.125 35.862499L 18.2875 35.862499L 18.2875 15.5"></path></g></g></g><g id="g-root-tx_gmail_1d3mxfnb4ss1x-stroke" data-item-order="1000000000" transform="translate(183, 34)"></g></g></g></svg>