<?xml version="1.0" encoding="utf-8" standalone="yes"?>
<!DOCTYPE svg PUBLIC "-//W3C//DTD SVG 1.1//EN" "http://www.w3.org/Graphics/SVG/1.1/DTD/svg11.dtd">
<svg width="914" height="398" viewBox="0 0 914 398" style="fill:none;stroke:none;fill-rule:evenodd;clip-rule:evenodd;stroke-linecap:round;stroke-linejoin:round;stroke-miterlimit:1.5;" version="1.1" xmlns="http://www.w3.org/2000/svg" xmlns:xlink="http://www.w3.org/1999/xlink"><style id="fontImports">@import url("https://fonts.googleapis.com/css2?family=Roboto:wght@400;700&amp;display=block");</style><g id="items" style="isolation: isolate"><g id="blend" style="mix-blend-mode:normal"><g id="g-root-ro_hx5ais96x05h-fill" data-item-order="-22968" transform="translate(351, 27)"><g id="ro_hx5ais96x05h-fill" stroke="none" fill="#f0f0f0"><g><path d="M 34 10L 118 10C 118 10 142 10 142 34L 142 160C 142 160 142 184 118 184L 34 184C 34 184 10 184 10 160L 10 34C 10 34 10 10 34 10"></path></g></g></g><g id="g-root-ro_4nkakk96ztoj-fill" data-item-order="-19440" transform="translate(237, 237)"><g id="ro_4nkakk96ztoj-fill" stroke="none" fill="#f5fbe9"><g><path d="M 22 10L 358 10C 358 10 370 10 370 22L 370 52C 370 52 370 64 358 64L 22 64C 22 64 10 64 10 52L 10 22C 10 22 10 10 22 10"></path></g></g></g><g id="g-root-ro_94mqv89741kw-fill" data-item-order="-9720" transform="translate(123, 15)"><g id="ro_94mqv89741kw-fill" stroke="none" fill="#e6efff"><g><path d="M 22 10L 178 10C 178 10 190 10 190 22L 190 52C 190 52 190 64 178 64L 22 64C 22 64 10 64 10 52L 10 22C 10 22 10 10 22 10"></path></g></g></g><g id="g-root-ro_4kftz897faq1-fill" data-item-order="-8424" transform="translate(531, 15)"><g id="ro_4kftz897faq1-fill" stroke="none" fill="#f7e6fe"><g><path d="M 22 10L 154 10C 154 10 166 10 166 22L 166 52C 166 52 166 64 154 64L 22 64C 22 64 10 64 10 52L 10 22C 10 22 10 10 22 10"></path></g></g></g><g id="g-root-tx_maintain_zrjrlw96zrwo-fill" data-item-order="0" transform="translate(285, 303)"><g id="tx_maintain_zrjrlw96zrwo-fill" stroke="none" fill="#484848"><g><text style="font: 20px Roboto, sans-serif; white-space: pre;" font-size="20px" font-family="Roboto, sans-serif"><tspan x="17.34" y="34" dominant-baseline="ideographic">Maintains Infrastructure</tspan></text></g></g></g><g id="g-root-cu_hs5kzo975edj-fill" data-item-order="0" transform="translate(261, 291)"></g><g id="g-root-cu_m7cm10975gr0-fill" data-item-order="0" transform="translate(261, 291)"></g><g id="g-root-cu_9m7pg973z7t-fill" data-item-order="0" transform="translate(303, 42)"></g><g id="g-root-cu_1hjg96s9741dz-fill" data-item-order="0" transform="translate(417, 201)"></g><g id="g-root-cu_1lz9rb89740lo-fill" data-item-order="0" transform="translate(483, 42)"></g><g id="g-root-tx_accommod_146qsn896zua7-fill" data-item-order="0" transform="translate(579, 117)"><g id="tx_accommod_146qsn896zua7-fill" stroke="none" fill="#484848"><g><text style="font: 20px Roboto, sans-serif; white-space: pre;" font-size="20px" font-family="Roboto, sans-serif"><tspan x="16.94" y="34" dominant-baseline="ideographic">Accommodate Business Growth</tspan></text></g></g></g><g id="g-root-tx_purchase_mg398k96zthl-fill" data-item-order="0" transform="translate(285, 339)"><g id="tx_purchase_mg398k96zthl-fill" stroke="none" fill="#484848"><g><text style="font: 20px Roboto, sans-serif; white-space: pre;" font-size="20px" font-family="Roboto, sans-serif"><tspan x="12.11" y="34" dominant-baseline="ideographic">Purchases Software and Hardware</tspan></text></g></g></g><g id="g-root-tx_payperus_1ut1cas96zua4-fill" data-item-order="0" transform="translate(75, 81)"><g id="tx_payperus_1ut1cas96zua4-fill" stroke="none" fill="#484848"><g><text style="font: 20px Roboto, sans-serif; white-space: pre;" font-size="20px" font-family="Roboto, sans-serif"><tspan x="16.63" y="34" dominant-baseline="ideographic">Pay-per-Use Model</tspan></text></g></g></g><g id="g-root-cu_1d3mr2c97426a-fill" data-item-order="0" transform="translate(261, 69)"></g><g id="g-root-cu_13ymmis975edp-fill" data-item-order="0" transform="translate(261, 69)"></g><g id="g-root-tx_avoidmai_1qdub9g96zrwl-fill" data-item-order="0" transform="translate(15, 117)"><g id="tx_avoidmai_1qdub9g96zrwl-fill" stroke="none" fill="#484848"><g><text style="font: 20px Roboto, sans-serif; white-space: pre;" font-size="20px" font-family="Roboto, sans-serif"><tspan x="16.75" y="34" dominant-baseline="ideographic">Avoid Maintenance Costs</tspan></text></g></g></g><g id="g-root-tx_unlimite_1hi7b0k96zspa-fill" data-item-order="0" transform="translate(579, 81)"><g id="tx_unlimite_1hi7b0k96zspa-fill" stroke="none" fill="#484848"><g><text style="font: 20px Roboto, sans-serif; white-space: pre;" font-size="20px" font-family="Roboto, sans-serif"><tspan x="15.91" y="34" dominant-baseline="ideographic">Unlimited Scalability</tspan></text></g></g></g><g id="g-root-cu_zit4ec975f5z-fill" data-item-order="0" transform="translate(555, 69)"></g><g id="g-root-cu_v2zm9w975fya-fill" data-item-order="0" transform="translate(555, 69)"></g><g id="g-root-tx_cloudhos_18jfu6c96x05f-fill" data-item-order="1000000000" transform="translate(375, 105)"><g id="tx_cloudhos_18jfu6c96x05f-fill" stroke="none" fill="#484848"><g><text style="font: 20px Roboto, sans-serif; white-space: pre;" font-size="20px" font-family="Roboto, sans-serif"><tspan x="25.16" y="34" dominant-baseline="ideographic">Cloud </tspan><tspan x="16.14" y="58" dominant-baseline="ideographic">Hosting </tspan><tspan x="13.28" y="82" dominant-baseline="ideographic">Services</tspan></text></g></g></g><g id="g-root-tx_scalabil_mbpuh097f8cv-fill" data-item-order="1000000000" transform="translate(579, 30)"><g id="tx_scalabil_mbpuh097f8cv-fill" stroke="none" fill="#b65edf"><g><text style="font: 20px Roboto, sans-serif; white-space: pre;" font-size="20px" font-family="Roboto, sans-serif"><tspan x="12.63" y="34" dominant-baseline="ideographic">Scalability</tspan></text></g></g></g><g id="g-root-serv_v8lsw496wykk-fill" data-item-order="1000000000" transform="translate(393, 51)"></g><g id="g-root-2_93dsp096zswa-fill" data-item-order="1000000000" transform="translate(249, 249)"></g><g id="g-root-tx_servicep_me7tz896zuh5-fill" data-item-order="1000000000" transform="translate(285, 252)"><g id="tx_servicep_me7tz896zuh5-fill" stroke="none" fill="#3bc482"><g><text style="font: 20px Arial, Helvetica, sans-serif; white-space: pre;" font-size="20px" font-family="Arial, Helvetica, sans-serif"><tspan x="14.38" y="33" dominant-baseline="ideographic">Service Provider Responsibilities</tspan></text></g></g></g><g id="g-root-expa_dg2u8497f9xc-fill" data-item-order="1000000000" transform="translate(543, 27)"></g><g id="g-root-bank_dkg8zo9740sn-fill" data-item-order="1000000000" transform="translate(261, 27)"></g><g id="g-root-tx_costsavi_qvwrd0973z7q-fill" data-item-order="1000000000" transform="translate(135, 30)"><g id="tx_costsavi_qvwrd0973z7q-fill" stroke="none" fill="#4682e3"><g><text style="font: 20px Roboto, sans-serif; white-space: pre;" font-size="20px" font-family="Roboto, sans-serif"><tspan x="12.03" y="34" dominant-baseline="ideographic">Cost Savings</tspan></text></g></g></g><g id="g-root-ro_hx5ais96x05h-stroke" data-item-order="-22968" transform="translate(351, 27)"><g id="ro_hx5ais96x05h-stroke" fill="none" stroke-linecap="round" stroke-linejoin="round" stroke-miterlimit="4" stroke="#484848" stroke-width="2"><g><path d="M 34 10L 118 10C 118 10 142 10 142 34L 142 160C 142 160 142 184 118 184L 34 184C 34 184 10 184 10 160L 10 34C 10 34 10 10 34 10"></path></g></g></g><g id="g-root-ro_4nkakk96ztoj-stroke" data-item-order="-19440" transform="translate(237, 237)"><g id="ro_4nkakk96ztoj-stroke" fill="none" stroke-linecap="round" stroke-linejoin="round" stroke-miterlimit="4" stroke="#93c131" stroke-width="2"><g><path d="M 22 10L 358 10C 358 10 370 10 370 22L 370 52C 370 52 370 64 358 64L 22 64C 22 64 10 64 10 52L 10 22C 10 22 10 10 22 10"></path></g></g></g><g id="g-root-ro_94mqv89741kw-stroke" data-item-order="-9720" transform="translate(123, 15)"><g id="ro_94mqv89741kw-stroke" fill="none" stroke-linecap="round" stroke-linejoin="round" stroke-miterlimit="4" stroke="#4682e3" stroke-width="2"><g><path d="M 22 10L 178 10C 178 10 190 10 190 22L 190 52C 190 52 190 64 178 64L 22 64C 22 64 10 64 10 52L 10 22C 10 22 10 10 22 10"></path></g></g></g><g id="g-root-ro_4kftz897faq1-stroke" data-item-order="-8424" transform="translate(531, 15)"><g id="ro_4kftz897faq1-stroke" fill="none" stroke-linecap="round" stroke-linejoin="round" stroke-miterlimit="4" stroke="#b65edf" stroke-width="2"><g><path d="M 22 10L 154 10C 154 10 166 10 166 22L 166 52C 166 52 166 64 154 64L 22 64C 22 64 10 64 10 52L 10 22C 10 22 10 10 22 10"></path></g></g></g><g id="g-root-tx_maintain_zrjrlw96zrwo-stroke" data-item-order="0" transform="translate(285, 303)"></g><g id="g-root-cu_hs5kzo975edj-stroke" data-item-order="0" transform="translate(261, 291)"><g id="cu_hs5kzo975edj-stroke" fill="none" stroke-linecap="round" stroke-linejoin="round" stroke-miterlimit="4" stroke="#888888" stroke-width="2" stroke-dasharray="5.0, 7.0"><g><path d="M 10 10L 10 17.5L 10 58C 10.000002 64.627417 15.372585 70 22.000002 69.999999L 22.1 70L 28 70"></path></g></g></g><g id="g-root-cu_m7cm10975gr0-stroke" data-item-order="0" transform="translate(261, 291)"><g id="cu_m7cm10975gr0-stroke" fill="none" stroke-linecap="round" stroke-linejoin="round" stroke-miterlimit="4" stroke="#888888" stroke-width="2" stroke-dasharray="5.0, 7.0"><g><path d="M 10 10L 10 22L 10 34L 19 34L 28 34"></path></g></g></g><g id="g-root-cu_9m7pg973z7t-stroke" data-item-order="0" transform="translate(303, 42)"><g id="cu_9m7pg973z7t-stroke" fill="none" stroke-linecap="round" stroke-linejoin="round" stroke-miterlimit="4" stroke="#888888" stroke-width="2" stroke-dasharray="5.0, 7.0"><g><path d="M 58 53L 55 53L 54.9 53C 43.357252 53.000001 34.000002 43.642752 34.000002 32.1L 34 32L 34 30.9C 33.999998 19.357248 24.64275 10 13.1 10L 13 10L 10 10"></path></g></g></g><g id="g-root-cu_1hjg96s9741dz-stroke" data-item-order="0" transform="translate(417, 201)"><g id="cu_1hjg96s9741dz-stroke" fill="none" stroke-linecap="round" stroke-linejoin="round" stroke-miterlimit="4" stroke="#888888" stroke-width="2" stroke-dasharray="5.0, 7.0"><g><path d="M 10 10L 10 28L 10 46"></path></g></g></g><g id="g-root-cu_1lz9rb89740lo-stroke" data-item-order="0" transform="translate(483, 42)"><g id="cu_1lz9rb89740lo-stroke" fill="none" stroke-linecap="round" stroke-linejoin="round" stroke-miterlimit="4" stroke="#888888" stroke-width="2" stroke-dasharray="5.0, 7.0"><g><path d="M 10 53L 13 53L 13.1 53C 24.642753 52.999998 34.000001 43.642749 34 32.099998L 34 32L 34 30.9C 33.999999 19.357249 43.357248 10.000001 54.899999 10.000002L 55 10L 58 10"></path></g></g></g><g id="g-root-tx_accommod_146qsn896zua7-stroke" data-item-order="0" transform="translate(579, 117)"></g><g id="g-root-tx_purchase_mg398k96zthl-stroke" data-item-order="0" transform="translate(285, 339)"></g><g id="g-root-tx_payperus_1ut1cas96zua4-stroke" data-item-order="0" transform="translate(75, 81)"></g><g id="g-root-cu_1d3mr2c97426a-stroke" data-item-order="0" transform="translate(261, 69)"><g id="cu_1d3mr2c97426a-stroke" fill="none" stroke-linecap="round" stroke-linejoin="round" stroke-miterlimit="4" stroke="#888888" stroke-width="2" stroke-dasharray="5.0, 7.0"><g><path d="M 28 10L 28 22L 28 34L 19 34L 10 34"></path></g></g></g><g id="g-root-cu_13ymmis975edp-stroke" data-item-order="0" transform="translate(261, 69)"><g id="cu_13ymmis975edp-stroke" fill="none" stroke-linecap="round" stroke-linejoin="round" stroke-miterlimit="4" stroke="#888888" stroke-width="2" stroke-dasharray="5.0, 7.0"><g><path d="M 28 10L 28 17.5L 28 58C 27.999999 64.627415 22.627416 69.999998 16 69.999998L 15.9 70L 10 70"></path></g></g></g><g id="g-root-tx_avoidmai_1qdub9g96zrwl-stroke" data-item-order="0" transform="translate(15, 117)"></g><g id="g-root-tx_unlimite_1hi7b0k96zspa-stroke" data-item-order="0" transform="translate(579, 81)"></g><g id="g-root-cu_zit4ec975f5z-stroke" data-item-order="0" transform="translate(555, 69)"><g id="cu_zit4ec975f5z-stroke" fill="none" stroke-linecap="round" stroke-linejoin="round" stroke-miterlimit="4" stroke="#888888" stroke-width="2" stroke-dasharray="5.0, 7.0"><g><path d="M 10 10L 10 22L 10 34L 19 34L 28 34"></path></g></g></g><g id="g-root-cu_v2zm9w975fya-stroke" data-item-order="0" transform="translate(555, 69)"><g id="cu_v2zm9w975fya-stroke" fill="none" stroke-linecap="round" stroke-linejoin="round" stroke-miterlimit="4" stroke="#888888" stroke-width="2" stroke-dasharray="5.0, 7.0"><g><path d="M 10 10L 10 17.5L 10 58C 10.000002 64.627417 15.372585 70 22.000002 69.999999L 22.1 70L 28 70"></path></g></g></g><g id="g-root-tx_cloudhos_18jfu6c96x05f-stroke" data-item-order="1000000000" transform="translate(375, 105)"></g><g id="g-root-tx_scalabil_mbpuh097f8cv-stroke" data-item-order="1000000000" transform="translate(579, 30)"></g><g id="g-root-serv_v8lsw496wykk-stroke" data-item-order="1000000000" transform="translate(393, 51)"><g id="serv_v8lsw496wykk-stroke" fill="none" stroke-linecap="round" stroke-linejoin="round" stroke-miterlimit="4" stroke="#484848" stroke-width="2"><g><path d="M 51 23.854C 50.966511 21.881111 50.131657 20.006788 48.687508 18.662231C 47.243355 17.317677 45.314247 16.618662 43.343998 16.726C 41.574951 13.192698 37.951328 10.972141 34 11C 28.620384 10.922284 24.105413 15.036353 23.684 20.4C 22.078552 20.044861 20.398424 20.42691 19.104412 21.441368C 17.810402 22.455822 17.038349 23.996189 17 25.639999C 17 31.084 22.911999 31 22.911999 31L 44.348 31C 44.348 31 51 30.158001 51 23.854ZM 23.5 51.498001C 23.224117 51.498001 23.00037 51.721455 23.000004 51.997337C 22.999638 52.273216 23.222792 52.497265 23.498672 52.497997C 23.774551 52.498734 23.998898 52.275879 24 52C 24.000534 51.867226 23.948027 51.739738 23.854143 51.645855C 23.760258 51.551971 23.632771 51.499466 23.5 51.5L 23.5 51.5M 28.5 51.498001C 28.224119 51.498001 28.00037 51.721455 28.000004 51.997337C 27.999638 52.273216 28.222792 52.497265 28.498672 52.497997C 28.774553 52.498734 28.998896 52.275879 29 52C 29.000534 51.867226 28.948027 51.739738 28.854143 51.645855C 28.760258 51.551971 28.632771 51.499466 28.5 51.5L 28.5 51.5M 51 54C 51 55.656857 49.656857 57 48 57L 20 57C 18.343147 57 17 55.656857 17 54L 17 50C 17 48.343147 18.343147 47 20 47L 48 47C 49.656857 47 51 48.343147 51 50ZM 23.5 41.498001C 23.224117 41.498001 23.00037 41.721455 23.000004 41.997337C 22.999638 42.273216 23.222792 42.497265 23.498672 42.497997C 23.774551 42.498734 23.998898 42.275879 24 42C 24.000534 41.867226 23.948027 41.739738 23.854143 41.645855C 23.760258 41.551971 23.632771 41.499466 23.5 41.5L 23.5 41.5M 28.5 41.498001C 28.224119 41.498001 28.00037 41.721455 28.000004 41.997337C 27.999638 42.273216 28.222792 42.497265 28.498672 42.497997C 28.774553 42.498734 28.998896 42.275879 29 42C 29.000534 41.867226 28.948027 41.739738 28.854143 41.645855C 28.760258 41.551971 28.632771 41.499466 28.5 41.5L 28.5 41.5M 51 44C 51 45.656857 49.656857 47 48 47L 20 47C 18.343147 47 17 45.656857 17 44L 17 40C 17 38.343147 18.343147 37 20 37L 48 37C 49.656857 37 51 38.343147 51 40Z"></path></g></g></g><g id="g-root-2_93dsp096zswa-stroke" data-item-order="1000000000" transform="translate(249, 249)"><g id="2_93dsp096zswa-stroke" fill="none" stroke-linecap="round" stroke-linejoin="round" stroke-miterlimit="4" stroke="#3bc482" stroke-width="2"><g><path d="M 10.625 31.397499C 10.625 33.249725 12.126525 34.751251 13.97875 34.751251C 15.830976 34.751251 17.3325 33.249725 17.3325 31.397499C 17.3325 29.545277 15.830976 28.043751 13.97875 28.043751C 12.126525 28.043751 10.625 29.545277 10.625 31.397499M 19.268749 39.201248C 18.583487 37.59642 17.206522 36.38961 15.525685 35.920723C 13.84485 35.451843 12.042029 35.771622 10.625 36.790001M 32.6675 31.397499C 32.6675 33.249725 34.169025 34.751251 36.021252 34.751251C 37.873474 34.751251 39.375004 33.249725 39.375004 31.397499C 39.375004 29.545277 37.873474 28.043751 36.021252 28.043751C 34.169025 28.043751 32.6675 29.545277 32.6675 31.397499M 30.731249 39.201248C 31.416512 37.59642 32.793476 36.38961 34.474312 35.920723C 36.155151 35.451843 37.95797 35.771622 39.374996 36.790001M 20.6875 30.438749C 20.68689 32.820908 22.61784 34.752354 25 34.752354C 27.38216 34.752354 29.31311 32.820908 29.3125 30.438749C 29.31311 28.056591 27.38216 26.125145 25 26.125145C 22.61784 26.125145 20.68689 28.056591 20.6875 30.438749M 30.731249 39.201248C 29.262579 37.587753 27.181822 36.668076 24.999998 36.668076C 22.818176 36.668076 20.737419 37.587753 19.268749 39.201248M 23.08375 19.42375C 23.08375 20.482065 23.941685 21.34 25 21.34C 26.058315 21.34 26.91625 20.482065 26.91625 19.42375C 26.91625 18.365435 26.058315 17.5075 25 17.5075C 23.941685 17.5075 23.08375 18.365435 23.08375 19.42375M 21.307499 24.11125L 19.424999 24.547499C 18.693716 24.711058 17.941133 24.379435 17.568363 23.72938C 17.195593 23.079327 17.289486 22.262299 17.800001 21.713751L 19.11375 20.293749C 19.568741 19.8025 19.568741 19.043749 19.11375 18.5525L 17.797501 17.133749C 17.287766 16.584837 17.19429 15.768196 17.566805 15.118299C 17.939322 14.468402 18.691231 14.136329 19.422499 14.29875L 21.305 14.735001C 21.957451 14.88414 22.613667 14.501347 22.805 13.86L 23.375 12.00875C 23.590919 11.289978 24.252623 10.79784 25.003124 10.79784C 25.753628 10.79784 26.415331 11.289978 26.63125 12.00875L 27.196251 13.865C 27.387583 14.506347 28.0438 14.88914 28.696251 14.74L 30.571251 14.30375C 31.302517 14.141329 32.054428 14.473402 32.426945 15.123299C 32.799458 15.773195 32.705986 16.589838 32.196247 17.13875L 30.885 18.5525C 30.431215 19.044222 30.431215 19.802027 30.884998 20.293749L 32.202499 21.713751C 32.713017 22.262299 32.806908 23.079327 32.434135 23.72938C 32.061367 24.379435 31.308786 24.711058 30.577499 24.547501L 28.702499 24.11125M 21.625 27.75C 23.741421 29.608793 26.49777 30.571655 29.311251 30.435001M 11.345 29.327499C 13.000301 30.762785 15.145448 31.50425 17.33375 31.397499M 33.38625 29.327499C 35.04155 30.762785 37.186699 31.50425 39.375004 31.397499"></path></g></g></g><g id="g-root-tx_servicep_me7tz896zuh5-stroke" data-item-order="1000000000" transform="translate(285, 252)"></g><g id="g-root-expa_dg2u8497f9xc-stroke" data-item-order="1000000000" transform="translate(543, 27)"><g id="expa_dg2u8497f9xc-stroke" fill="none" stroke-linecap="round" stroke-linejoin="round" stroke-miterlimit="4" stroke="#b65edf" stroke-width="2"><g><path d="M 34.642857 11.071428L 36.785713 11.071428C 37.969181 11.071428 38.92857 12.030818 38.92857 13.214286L 38.92857 15.357142M 11.071428 15.357142L 11.071428 13.214286C 11.071428 12.030818 12.030818 11.071428 13.214286 11.071428L 15.357142 11.071428M 21.785713 11.071428L 28.214285 11.071428M 38.92857 21.785713L 38.92857 28.214285M 11.071428 21.785713L 11.071428 28.214285M 34.642857 38.92857L 36.785713 38.92857C 37.969181 38.92857 38.92857 37.969181 38.92857 36.785713L 38.92857 34.642857M 11.071428 34.642857L 11.071428 36.785713C 11.071428 37.969181 12.030818 38.92857 13.214286 38.92857L 15.357142 38.92857M 21.785713 38.92857L 28.214285 38.92857M 20.714285 18.571428L 29.285713 18.571428C 29.285713 18.571428 31.42857 18.571428 31.42857 20.714285L 31.42857 29.285713C 31.42857 29.285713 31.42857 31.42857 29.285713 31.42857L 20.714285 31.42857C 20.714285 31.42857 18.571428 31.42857 18.571428 29.285713L 18.571428 20.714285C 18.571428 20.714285 18.571428 18.571428 20.714285 18.571428"></path></g></g></g><g id="g-root-bank_dkg8zo9740sn-stroke" data-item-order="1000000000" transform="translate(261, 27)"><g id="bank_dkg8zo9740sn-stroke" fill="none" stroke-linecap="round" stroke-linejoin="round" stroke-miterlimit="4" stroke="#4682e3" stroke-width="2"><g><path d="M 25 18.125C 27.238144 17.972408 29.456505 18.629932 31.25 19.977501M 39.375 21.875C 39.375 23.255713 38.255714 24.375 36.875 24.375M 21.9375 14.725C 20.962845 12.999311 18.949862 12.144371 17.03125 12.641251C 16.811573 12.698722 16.640348 12.870819 16.583994 13.090785C 16.527637 13.310752 16.595018 13.543979 16.76 13.7C 17.36524 14.270366 17.795376 15.001423 18 15.807501C 18.065151 16.066378 17.958689 16.338058 17.735001 16.483749C 15.348071 17.947979 13.704714 20.366581 13.2225 23.125L 11.875 23.125C 11.184644 23.125 10.625 23.684643 10.625 24.375L 10.625 26.875C 10.625 27.565357 11.184644 28.125 11.875 28.125L 14 28.125C 16.188206 32.122364 20.445942 34.541534 25 34.375C 31.55875 34.375 36.875 29.89875 36.875 24.375C 36.875 17.91625 29.625 13 21.9375 14.725ZM 17.5 22.1875C 17.672588 22.1875 17.8125 22.327412 17.8125 22.5C 17.8125 22.672588 17.672588 22.8125 17.5 22.8125C 17.327412 22.8125 17.1875 22.672588 17.1875 22.5C 17.188185 22.327694 17.327696 22.188185 17.5 22.1875M 19.380001 33.182499L 18.130001 37.5M 30.629999 33.182499L 31.879999 37.5"></path></g></g></g><g id="g-root-tx_costsavi_qvwrd0973z7q-stroke" data-item-order="1000000000" transform="translate(135, 30)"></g></g></g></svg>