<?xml version="1.0" encoding="utf-8" standalone="yes"?>
<!DOCTYPE svg PUBLIC "-//W3C//DTD SVG 1.1//EN" "http://www.w3.org/Graphics/SVG/1.1/DTD/svg11.dtd">
<svg width="770" height="192" viewBox="0 0 770 192" style="fill:none;stroke:none;fill-rule:evenodd;clip-rule:evenodd;stroke-linecap:round;stroke-linejoin:round;stroke-miterlimit:1.5;" version="1.1" xmlns="http://www.w3.org/2000/svg" xmlns:xlink="http://www.w3.org/1999/xlink"><style id="fontImports">@import url("https://fonts.googleapis.com/css2?family=Roboto:wght@400;700&amp;display=block");</style><g id="items" style="isolation: isolate"><g id="blend" style="mix-blend-mode:normal"><g id="g-root-1.cr-1_cr_1uqjm7n7ixzwq-fill" data-item-order="-41036" transform="translate(33, 25.000030517578125)"><g id="1.cr-1_cr_1uqjm7n7ixzwq-fill" stroke="none" fill="#714486"><g><path d="M 10 39.999969C 10.000013 56.568539 23.43147 69.999997 40.000013 69.999997C 56.568555 69.999997 70.000013 56.568539 70.000013 39.999997C 70.000013 23.431454 56.568555 9.999997 40.000013 9.999997C 23.43147 9.999997 10.000013 23.431454 10.000013 39.999997"></path></g></g></g><g id="g-root-2.cr-2_cr_1qaq4377iy0oz-fill" data-item-order="-41024" transform="translate(189, 25.000030517578125)"><g id="2.cr-2_cr_1qaq4377iy0oz-fill" stroke="none" fill="#8c5ba3"><g><path d="M 10 39.999969C 10.000021 56.568539 23.431478 69.999997 40.000021 69.999997C 56.568563 69.999997 70.000021 56.568539 70.000021 39.999997C 70.000021 23.431454 56.568563 9.999997 40.000021 9.999997C 23.431478 9.999997 10.000021 23.431454 10.000021 39.999997"></path></g></g></g><g id="g-root-3.cr-3_cr_1cz9lpv7iy29w-fill" data-item-order="-41012" transform="translate(345, 25.000030517578125)"><g id="3.cr-3_cr_1cz9lpv7iy29w-fill" stroke="none" fill="#a871c1"><g><path d="M 10 39.999969C 10.000029 56.568539 23.431486 69.999997 40.000029 69.999997C 56.568571 69.999997 70.000029 56.568539 70.000029 39.999997C 70.000029 23.431454 56.568571 9.999997 40.000029 9.999997C 23.431486 9.999997 10.000029 23.431454 10.000029 39.999997"></path></g></g></g><g id="g-root-4.cr-4_cr_1cz9lpv7iy29x-fill" data-item-order="-41000" transform="translate(501, 25.000030517578125)"><g id="4.cr-4_cr_1cz9lpv7iy29x-fill" stroke="none" fill="#c388de"><g><path d="M 10 39.999969C 10.000037 56.568539 23.431494 69.999997 40.000037 69.999997C 56.568579 69.999997 70.000037 56.568539 70.000037 39.999997C 70.000037 23.431454 56.568579 9.999997 40.000037 9.999997C 23.431494 9.999997 10.000037 23.431454 10.000037 39.999997"></path></g></g></g><g id="g-root-5.cr-5_cr_14492k37ixzwu-fill" data-item-order="-40988" transform="translate(657, 25.000030517578125)"><g id="5.cr-5_cr_14492k37ixzwu-fill" stroke="none" fill="#de9ffb"><g><path d="M 10 39.999969C 10.000045 56.568539 23.431503 69.999997 40.000045 69.999997C 56.568588 69.999997 70.000045 56.568539 70.000045 39.999997C 70.000045 23.431454 56.568588 9.999997 40.000045 9.999997C 23.431503 9.999997 10.000045 23.431454 10.000045 39.999997"></path></g></g></g><g id="g-root-atta_v2zsj77j2a6j-fill" data-item-order="0" transform="translate(45, 37.000030517578125)"></g><g id="g-root-lock_143mlgz7j3m6f-fill" data-item-order="0" transform="translate(201, 37.000030517578125)"></g><g id="g-root-web_18gy78z7j6h35-fill" data-item-order="0" transform="translate(357, 37.000030517578125)"></g><g id="g-root-3_24oxf7j981x-fill" data-item-order="0" transform="translate(513, 37.000030517578125)"></g><g id="g-root-clou_qssk6r7jao0b-fill" data-item-order="0" transform="translate(669, 37.000030517578125)"></g><g id="g-root-tx_ddosprot_hs5r8z7j28lo-fill" data-item-order="0" transform="translate(15, 109)"><g id="tx_ddosprot_hs5r8z7j28lo-fill" stroke="none" fill="#8e8e8e"><g><text style="font: 20px Roboto, sans-serif; white-space: pre;" font-size="20px" font-family="Roboto, sans-serif"><tspan x="33.23" y="34" dominant-baseline="ideographic">DDoS </tspan><tspan x="12.69" y="58" dominant-baseline="ideographic">protection</tspan></text></g></g></g><g id="g-root-tx_sslinteg_znt3cj7j3myo-fill" data-item-order="0" transform="translate(165, 109)"><g id="tx_sslinteg_znt3cj7j3myo-fill" stroke="none" fill="#8e8e8e"><g><text style="font: 20px Roboto, sans-serif; white-space: pre;" font-size="20px" font-family="Roboto, sans-serif"><tspan x="46.76" y="34" dominant-baseline="ideographic">SSL </tspan><tspan x="16.34" y="58" dominant-baseline="ideographic">integration</tspan></text></g></g></g><g id="g-root-tx_globalne_zlb7037j6hvu-fill" data-item-order="0" transform="translate(333, 109)"><g id="tx_globalne_zlb7037j6hvu-fill" stroke="none" fill="#8e8e8e"><g><text style="font: 20px Roboto, sans-serif; white-space: pre;" font-size="20px" font-family="Roboto, sans-serif"><tspan x="24.79" y="34" dominant-baseline="ideographic">global </tspan><tspan x="16.24" y="58" dominant-baseline="ideographic">network</tspan></text></g></g></g><g id="g-root-tx_customer_1lrs8j77j99fq-fill" data-item-order="0" transform="translate(483, 109)"><g id="tx_customer_1lrs8j77j99fq-fill" stroke="none" fill="#8e8e8e"><g><text style="font: 20px Roboto, sans-serif; white-space: pre;" font-size="20px" font-family="Roboto, sans-serif"><tspan x="13.3" y="34" dominant-baseline="ideographic">customer </tspan><tspan x="21.03" y="58" dominant-baseline="ideographic">support</tspan></text></g></g></g><g id="g-root-tx_intellig_dhc1tf7japl8-fill" data-item-order="0" transform="translate(639, 109)"><g id="tx_intellig_dhc1tf7japl8-fill" stroke="none" fill="#8e8e8e"><g><text style="font: 20px Arial, Helvetica, sans-serif; white-space: pre;" font-size="20px" font-family="Arial, Helvetica, sans-serif"><tspan x="12.96" y="33" dominant-baseline="ideographic">intelligent </tspan><tspan x="20.76" y="57" dominant-baseline="ideographic">caching</tspan></text></g></g></g><g id="g-root-1.cr-1_cr_1uqjm7n7ixzwq-stroke" data-item-order="-41036" transform="translate(33, 25.000030517578125)"><g id="1.cr-1_cr_1uqjm7n7ixzwq-stroke" fill="none" stroke-linecap="round" stroke-linejoin="round" stroke-miterlimit="4" stroke="#2C2C2C" stroke-width="2"><g><path d="M 10 39.999969C 10.000013 56.568539 23.43147 69.999997 40.000013 69.999997C 56.568555 69.999997 70.000013 56.568539 70.000013 39.999997C 70.000013 23.431454 56.568555 9.999997 40.000013 9.999997C 23.43147 9.999997 10.000013 23.431454 10.000013 39.999997"></path></g></g></g><g id="g-root-2.cr-2_cr_1qaq4377iy0oz-stroke" data-item-order="-41024" transform="translate(189, 25.000030517578125)"><g id="2.cr-2_cr_1qaq4377iy0oz-stroke" fill="none" stroke-linecap="round" stroke-linejoin="round" stroke-miterlimit="4" stroke="#2C2C2C" stroke-width="2"><g><path d="M 10 39.999969C 10.000021 56.568539 23.431478 69.999997 40.000021 69.999997C 56.568563 69.999997 70.000021 56.568539 70.000021 39.999997C 70.000021 23.431454 56.568563 9.999997 40.000021 9.999997C 23.431478 9.999997 10.000021 23.431454 10.000021 39.999997"></path></g></g></g><g id="g-root-3.cr-3_cr_1cz9lpv7iy29w-stroke" data-item-order="-41012" transform="translate(345, 25.000030517578125)"><g id="3.cr-3_cr_1cz9lpv7iy29w-stroke" fill="none" stroke-linecap="round" stroke-linejoin="round" stroke-miterlimit="4" stroke="#2C2C2C" stroke-width="2"><g><path d="M 10 39.999969C 10.000029 56.568539 23.431486 69.999997 40.000029 69.999997C 56.568571 69.999997 70.000029 56.568539 70.000029 39.999997C 70.000029 23.431454 56.568571 9.999997 40.000029 9.999997C 23.431486 9.999997 10.000029 23.431454 10.000029 39.999997"></path></g></g></g><g id="g-root-4.cr-4_cr_1cz9lpv7iy29x-stroke" data-item-order="-41000" transform="translate(501, 25.000030517578125)"><g id="4.cr-4_cr_1cz9lpv7iy29x-stroke" fill="none" stroke-linecap="round" stroke-linejoin="round" stroke-miterlimit="4" stroke="#2C2C2C" stroke-width="2"><g><path d="M 10 39.999969C 10.000037 56.568539 23.431494 69.999997 40.000037 69.999997C 56.568579 69.999997 70.000037 56.568539 70.000037 39.999997C 70.000037 23.431454 56.568579 9.999997 40.000037 9.999997C 23.431494 9.999997 10.000037 23.431454 10.000037 39.999997"></path></g></g></g><g id="g-root-5.cr-5_cr_14492k37ixzwu-stroke" data-item-order="-40988" transform="translate(657, 25.000030517578125)"><g id="5.cr-5_cr_14492k37ixzwu-stroke" fill="none" stroke-linecap="round" stroke-linejoin="round" stroke-miterlimit="4" stroke="#2C2C2C" stroke-width="2"><g><path d="M 10 39.999969C 10.000045 56.568539 23.431503 69.999997 40.000045 69.999997C 56.568588 69.999997 70.000045 56.568539 70.000045 39.999997C 70.000045 23.431454 56.568588 9.999997 40.000045 9.999997C 23.431503 9.999997 10.000045 23.431454 10.000045 39.999997"></path></g></g></g><g id="g-root-atta_v2zsj77j2a6j-stroke" data-item-order="0" transform="translate(45, 37.000030517578125)"><g id="atta_v2zsj77j2a6j-stroke" fill="none" stroke-linecap="round" stroke-linejoin="round" stroke-miterlimit="4" stroke="#FFFFFF" stroke-width="2"><g><path d="M 23.5 45.25C 24.858732 43.534355 25.645609 41.43602 25.75 39.25M 32.5 45.25C 31.141268 43.534355 30.354391 41.43602 30.25 39.25M 21.248501 45.25L 34.748501 45.25M 10.75 34.75L 45.25 34.75M 42.25 13.75L 43.75 13.75C 44.578426 13.75 45.25 14.421573 45.25 15.25L 45.25 37.75C 45.25 38.578426 44.578426 39.25 43.75 39.25L 12.25 39.25C 11.421573 39.25 10.75 38.578426 10.75 37.75L 10.75 15.25C 10.75 14.421573 11.421573 13.75 12.25 13.75L 13.75 13.75M 19.75 10.75L 19.75 21.25M 16.75 18.25L 19.75 21.25L 22.75 18.25M 36.25 10.75L 36.25 21.25M 39.25 18.25L 36.25 21.25L 33.25 18.25M 28 16.75L 28 29.5M 31.75 25.75L 28 29.5L 24.25 25.75"></path></g></g></g><g id="g-root-lock_143mlgz7j3m6f-stroke" data-item-order="0" transform="translate(201, 37.000030517578125)"><g id="lock_143mlgz7j3m6f-stroke" fill="none" stroke-linecap="round" stroke-linejoin="round" stroke-miterlimit="4" stroke="#FFFFFF" stroke-width="2"><g><path d="M 10.75 45.25L 10.75 30.25M 10.75 33.25L 21.25 33.25C 23.735283 33.25 25.75 35.264717 25.75 37.75L 34.75 37.75C 37.235283 37.75 39.25 39.764717 39.25 42.25L 10.75 42.25ZM 25.75 37.75L 21.25 37.75M 31.75 18.25L 43.75 18.25C 43.75 18.25 45.25 18.25 45.25 19.75L 45.25 30.25C 45.25 30.25 45.25 31.75 43.75 31.75L 31.75 31.75C 31.75 31.75 30.25 31.75 30.25 30.25L 30.25 19.75C 30.25 19.75 30.25 18.25 31.75 18.25M 33.25 18.25L 33.25 15.25C 33.25 12.764719 35.264717 10.75 37.75 10.75C 40.235283 10.75 42.25 12.764719 42.25 15.25L 42.25 18.25M 35.5 25C 35.5 26.242641 36.507362 27.25 37.75 27.25C 38.992641 27.25 40 26.242641 40 25C 40 23.75736 38.992641 22.75 37.75 22.75C 36.507362 22.75 35.5 23.75736 35.5 25"></path></g></g></g><g id="g-root-web_18gy78z7j6h35-stroke" data-item-order="0" transform="translate(357, 37.000030517578125)"><g id="web_18gy78z7j6h35-stroke" fill="none" stroke-linecap="round" stroke-linejoin="round" stroke-miterlimit="4" stroke="#FFFFFF" stroke-width="2"><g><path d="M 11.285714 28C 11.285715 37.231045 18.768955 44.714287 28.000002 44.714287C 37.231045 44.714287 44.714287 37.231045 44.714287 28.000002C 44.714287 18.768955 37.231045 11.285715 28.000002 11.285715C 18.768955 11.285715 11.285715 18.768955 11.285715 28.000002M 11.285714 28L 44.714287 28M 34.42857 28C 34.112801 34.112259 31.861462 39.965752 28 44.714287C 24.138538 39.965752 21.887196 34.112259 21.571428 28C 21.887196 21.887739 24.138538 16.034246 28 11.285714C 31.861462 16.034246 34.112801 21.887739 34.42857 28Z"></path></g></g></g><g id="g-root-3_24oxf7j981x-stroke" data-item-order="0" transform="translate(513, 37.000030517578125)"><g id="3_24oxf7j981x-stroke" fill="none" stroke-linecap="round" stroke-linejoin="round" stroke-miterlimit="4" stroke="#FFFFFF" stroke-width="2"><g><path d="M 16.634285 25.428572L 16.634285 22.214285C 16.760857 16.060453 21.845936 11.170954 28.000002 11.285714L 28 11.285714C 34.154064 11.170954 39.239143 16.060453 39.365715 22.214285L 39.365715 25.428572M 13.857142 25.428572L 17.714285 25.428572C 18.424366 25.428572 19 26.004204 19 26.714285L 19 33.785713C 19 34.495792 18.424366 35.071426 17.714285 35.071426L 13.857142 35.071426C 12.436982 35.071426 11.285714 33.920162 11.285714 32.5L 11.285714 28C 11.285714 26.57984 12.436982 25.428572 13.857142 25.428572ZM 42.142857 35.071426L 38.285713 35.071426C 37.575634 35.071426 37 34.495792 37 33.785713L 37 26.714285C 37 26.004206 37.575634 25.428572 38.285713 25.428572L 42.142857 25.428572C 43.563019 25.428572 44.714287 26.579838 44.714287 28L 44.714287 32.5C 44.714287 33.920158 43.563019 35.071426 42.142857 35.071426ZM 39.365715 35.071426L 39.365715 36.357143L 39.365715 36.357143C 39.366837 37.757515 38.796852 39.09779 37.787418 40.068401C 36.777981 41.039009 35.416393 41.556015 34.017143 41.5L 33.142857 41.5M 33.142857 41.5C 33.142857 43.2752 31.703773 44.714287 29.928572 44.714287L 26.071428 44.714287C 24.296228 44.714287 22.857143 43.2752 22.857143 41.5C 22.857143 39.7248 24.296228 38.285713 26.071428 38.285713L 29.928572 38.285713C 31.703773 38.285713 33.142857 39.7248 33.142857 41.5Z"></path></g></g></g><g id="g-root-clou_qssk6r7jao0b-stroke" data-item-order="0" transform="translate(669, 37.000030517578125)"><g id="clou_qssk6r7jao0b-stroke" fill="none" stroke-linecap="round" stroke-linejoin="round" stroke-miterlimit="4" stroke="#FFFFFF" stroke-width="2"><g><path d="M 37 38.285713C 40.506241 38.288265 43.573189 35.925957 44.465759 32.535229C 45.35833 29.144495 43.85199 25.578321 40.798923 23.854214C 37.745865 22.130106 33.914112 22.681784 31.47143 25.197144C 30.023342 20.084171 24.918777 16.916035 19.694283 17.887684C 14.46979 18.859335 10.845559 23.65085 11.332534 28.94257C 11.819509 34.234287 16.257349 38.283886 21.571428 38.285713Z"></path></g></g></g><g id="g-root-tx_ddosprot_hs5r8z7j28lo-stroke" data-item-order="0" transform="translate(15, 109)"></g><g id="g-root-tx_sslinteg_znt3cj7j3myo-stroke" data-item-order="0" transform="translate(165, 109)"></g><g id="g-root-tx_globalne_zlb7037j6hvu-stroke" data-item-order="0" transform="translate(333, 109)"></g><g id="g-root-tx_customer_1lrs8j77j99fq-stroke" data-item-order="0" transform="translate(483, 109)"></g><g id="g-root-tx_intellig_dhc1tf7japl8-stroke" data-item-order="0" transform="translate(639, 109)"></g></g></g></svg>