<?xml version="1.0" encoding="UTF-8"?><svg id="Layer_1" xmlns="http://www.w3.org/2000/svg" width="361.19" height="338.59" viewBox="0 0 361.19 338.59"><path d="M291.15,252.8c1.85,14.08-6.68,25.23-21.12,25.39.97,12.7-9.64,23.45-22.51,21.74,1.46,15.39-13.55,25.53-27.74,20.25-1.34,19.17-24.19,24.54-36.38,10.53-11.09,12.59-32.5,6.27-34.13-10.53-12.64,4.68-26.53-2.76-27.75-16.5-14.14,4.13-27.13-5.37-26.57-20.3-.85-1.23-4.8-.51-6.62-.88-7.34-1.48-13.84-8.56-14.72-16.03-.32-2.69.89-9.4-.06-10.42l-22.15-12.36c-3.17,4.77-3.24,7.01-9.35,4.84-13.07-4.64-26.31-13.42-39.56-18.18-1.88-.92-2.67-2.95-2.45-4.98l44.42-96.65c2.22-3.56,3.97-2.85,7.31-1.66,9.29,3.32,30.8,12.95,39.07,17.93,2.24,1.35,2.54,3.08,4.67,4.33,16.01,9.41,42.45-6.32,60.16-6.9,7.35-.24,15.65,2.92,21.75,2.85,7.38-.08,18.11-4.43,26.99-4.43,21.48.01,48.18,20.42,66.32,2.64l42.44-19,2.6,1.06,45.42,97.1-.49,4.82-42.65,20.35c-4.74,1.79-5.65-2.79-7.89-5.64l-19.01,10.6ZM311.22,135.73l-32.97,14.61,40.14,87.34,32.53-15.34-39.7-86.6ZM83.28,151.45l-32.93-14.21L10.53,224.17l32.99,15.01,39.76-87.74ZM201.63,150.16c-15.35.62-43.27,8.75-53.48,20.77-8,9.41-10.58,30.48-9.41,42.43.39,3.98,3.38,5.41,7.19,5.61,10.82.58,15.92-14.53,21.04-21.71,9.28-13.02,22.11-17.86,37-10.13l82.55,57.7,19.94-10.87-35.68-77.69c-4.07.31-7.53,2.87-11.71,3.35-20.46,2.36-37.77-10.24-57.45-9.45ZM159.78,151.44c-19.71.07-37.35,11.96-57.29,9.66-4.18-.48-7.64-3.04-11.71-3.35l-35.91,77.32,23.67,13.76c9.52-6.54,17.03-21.12,29.89-21.66,9.26-.39,18.75,6.3,19.85,15.76,12.28-9.24,30.73-3.23,32.25,12.75,17.09-5.42,32.97,8.87,26.25,26.24,3.89.45,8.78,2.58,11.62,5.26,3.37,3.18,4.09,7.86,7.11,10.89,2.31,2.3,14.85,12.02,17.51,13.24,8.6,3.94,16.88-2.5,15.45-11.71-.7-4.51-5.39-7.41-8.61-10.14-11.78-9.99-24.92-18.55-36.78-28.47-1.77-1.79-1.27-4.64-.14-6.63l5.79-.52,48.01,36.74c13.97,2.8,19.35-12.9,7.88-20.62l-39.79-30.71c-3.34-4.16.9-9.29,5.66-7.15,16.57,11.93,31.74,26.84,49.51,36.79,10.56.89,16.24-11.14,8.98-18.78l-79.21-55.04c-30.41-14.08-26.64,35.63-55.29,32.79-3.83-.38-13.9-4.38-14.69-8.56-1.11-5.87-.02-21.21.94-27.53,1.64-10.76,5.36-22.44,13.65-29.85l15.39-10.47ZM107.85,236.35c-4.94.72-22.36,17.6-24.39,22.14-4.7,10.53,6.29,19.49,15.82,13.57,2.08-1.29,17.98-17.13,19.14-19.11,4.66-7.95-1.35-17.95-10.57-16.6ZM139.34,247.59c-2.15.36-4.15,1.89-5.82,3.21-4.68,3.69-24.36,23-27.32,27.43-7.12,10.66,4.39,22.71,15.57,14.82,4.28-3.02,24.98-23.51,27.83-27.67,5.9-8.61-.15-19.47-10.26-17.79ZM168.53,263.46c-2.09.02-4.43.8-6.13,1.97-3.49,2.4-27.65,26.61-29.94,30.06-6.7,10.04,4.53,21.82,14.54,15.29,3.13-2.04,28.22-27.19,30.36-30.39,4.88-7.31.15-16.99-8.82-16.93ZM160.79,325.18c3.34,3.33,8.88,4.06,13.02,1.91,2.37-1.23,16.09-15.06,18.25-17.75,7.92-9.93-.68-22.06-12.2-17.45-3.25,1.3-19.5,17.71-20.96,21.04-1.75,3.99-1.3,9.07,1.89,12.26ZM203.67,308.18c-3.27,6.62-8.88,10.88-13.88,16.13,13.64,15.04,31.3-5.41,13.88-16.13Z"/><path d="M83.54,77.45c15.16-15.3,40.63-16.53,57.12-2.58,20.55-25.54,59.56-25.31,80.24-.06,25.48-21.35,65.64-5.33,69.17,27.71.51,4.79.71,9.16-5.38,9.2l-209.24-.08c-4.33-.68-4.35-4.14-4.17-7.81.45-8.91,6.01-20.08,12.25-26.38ZM222.78,102.68c-1.58-24.65-26.41-41.96-50.29-37.17-17.61,3.53-32.83,18.91-33.71,37.17h84ZM81.03,102.68h47.62c1.5-2.84,1.57-6.62,2.61-10.14,2.31-7.79,7.2-9.54-1.47-14.25-20.61-11.18-46.04,1.24-48.76,24.39ZM280.53,102.68c-2.62-25.49-34.06-37.49-53.67-20.99l6.04,20.99h47.62Z"/><path d="M178.36.15c32.76-3.15,36.81,46.07,7.23,49.98-36.6,4.83-39.81-46.84-7.23-49.98ZM179.12,9.11c-20.85,2.29-18.88,35.34,4.97,32.01,19.29-2.69,15.62-34.27-4.97-32.01Z"/><path d="M109.34,20.36c30.32-4.76,33.57,39.06,6.49,41.74s-31.26-37.85-6.49-41.74ZM110.07,29.36c-11,2.28-11.83,20.76.91,23.49,18.42,3.95,19.91-27.81-.91-23.49Z"/><path d="M243.59,20.37c30.27-4.84,34.35,38.97,6.49,41.74-26.88,2.67-31.1-37.8-6.49-41.74ZM245.08,29.36c-15.9,2.96-8.84,30.31,8.21,22.45,12.25-5.65,7.02-25.29-8.21-22.45Z"/><path d="M25.04,224.67c-10.39-11.35,6.52-27.44,17.29-16.16,10.86,11.37-7.01,27.4-17.29,16.16ZM35.83,214.62c-1.73-1.71-5.04-.53-4.84,2.33.39,5.28,8.15.95,4.84-2.33Z"/><path d="M336.52,223.17c-10.93,11.92-28.72-6.26-16.62-17,10.93-9.7,26.74,5.96,16.62,17ZM329.84,213.12c-3.02-3.02-7.58,2.66-2.78,4.72,2.71,1.16,4.69-2.81,2.78-4.72Z"/></svg>