<?xml version="1.0" encoding="UTF-8"?>
<!-- Generator: Adobe Illustrator 21.0.0, SVG Export Plug-In . SVG Version: 6.00 Build 0)  -->
<svg version="1.1" id="Layer_1" xmlns="http://www.w3.org/2000/svg" xmlns:xlink="http://www.w3.org/1999/xlink" x="0px" y="0px" viewBox="0 0 76 60" style="enable-background:new 0 0 76 60;" xml:space="preserve">
<style type="text/css">
	.st0,.st1,.st2,.st3,.st4,.st5{fill:#000000;}
</style>
<g>
	<g>
		<g>
			<path class="st3" d="M66.7,27.3c-2.6-1.3-7.3-1.3-7.5-1.3c-0.6,0-1.1,0.5-1.1,1.1c0,0.6,0.5,1.1,1.1,1.1c1.2,0,4.8,0.2,6.6,1     c0.2,0.1,0.3,0.1,0.5,0.1c0.4,0,0.8-0.2,1-0.6C67.4,28.2,67.2,27.6,66.7,27.3z M72.1,42.6l-4.5-1.3c-0.2-0.1-0.3-0.2-0.3-0.4     v-1.5c0.4-0.3,0.7-0.5,1.1-0.8c1.6-1.5,2.5-3.6,2.5-5.7v-2.1l0.4-0.9c0.5-0.9,0.7-2,0.7-3.1v-5.6c0-0.6-0.5-1.1-1.1-1.1H60.3     c-3.8,0-7,3.1-7,6.8v0.1c0,0.9,0.2,1.8,0.6,2.5l0.6,1.1v1.8c0,2.8,1.4,5.3,3.5,6.8l0,1.6c0,0.2,0,0.3-0.9,0.6l-2.2,0.6l-6.4-2.3     c0-0.3-0.1-0.6-0.3-0.8l-2-2.1v-3.5c0.2-0.2,0.4-0.4,0.6-0.5c2.6-2.4,4.1-5.7,4.1-9.2v-2.8c0.8-1.7,1.2-3.4,1.2-5.2V4.1     C52,3.5,51.5,3,50.9,3H34.5C28.7,3,24,7.6,24,13.3v2.3c0,1.8,0.4,3.6,1.2,5.2v2.4c0,4,1.8,7.7,4.7,10v3.6l-2,2.1     c-0.2,0.2-0.3,0.5-0.3,0.8l-6.8,2.4c-0.5,0.2-0.9,0.4-1.4,0.7l-1.1-0.5c3.2-1.3,4.2-3.2,4.2-3.3c0.2-0.3,0.2-0.7,0-1     c-0.8-1.6-0.9-4.4-1-6.7c0-0.8,0-1.5-0.1-2.1c-0.4-5.2-4.4-9.1-9.3-9.1c-4.9,0-8.9,3.9-9.3,9.1c0,0.6-0.1,1.4-0.1,2.1     c-0.1,2.3-0.2,5.1-1,6.7c-0.2,0.3-0.2,0.7,0,1c0,0.1,1,2,4.2,3.3l-2.9,1.4c-1.6,0.8-2.6,2.3-2.6,4.1v8C0.5,56.5,1,57,1.6,57     c0.6,0,1.1-0.5,1.1-1.1v-8c0-0.9,0.5-1.7,1.3-2.1L7.7,44L9,45.2c0.9,0.8,2,1.2,3.2,1.2c1.1,0,2.3-0.4,3.2-1.2l1.3-1.2l1.2,0.6     c-0.6,0.9-0.9,1.9-0.9,3v8.3c0,0.6,0.5,1.1,1.1,1.1c0.6,0,1.1-0.5,1.1-1.1v-8.3c0-1.5,1-2.8,2.4-3.3l7.1-2.5l3,4.4     c0.4,0.6,1,0.9,1.7,1c0.1,0,0.2,0,0.2,0c0.6,0,1.2-0.2,1.6-0.7l1.8-1.8v11.2c0,0.6,0.5,1.1,1.1,1.1c0.6,0,1.1-0.5,1.1-1.1V44.7     l1.8,1.8c0.4,0.4,1,0.7,1.6,0.7c0.1,0,0.2,0,0.2,0c0.7-0.1,1.3-0.4,1.7-1l3-4.4l7.1,2.5c1.4,0.5,2.4,1.8,2.4,3.3v8.3     c0,0.6,0.5,1.1,1.1,1.1s1.1-0.5,1.1-1.1v-8.3c0-1.5-0.6-2.9-1.6-3.9l0.3-0.1c0.3-0.1,0.6-0.2,1-0.4l2.8,2.8v9.9     c0,0.6,0.5,1.1,1.1,1.1c0.6,0,1.1-0.5,1.1-1.1V46l2.8-2.7c0.1,0.1,0.3,0.1,0.5,0.2l4.5,1.3c1,0.3,1.8,1.2,1.8,2.3v8.9     c0,0.6,0.5,1.1,1.1,1.1c0.6,0,1.1-0.5,1.1-1.1V47C75.5,45,74.1,43.2,72.1,42.6z M7.5,40.7C5.5,40,4.5,39.1,4,38.5     c0.3-0.8,0.5-1.6,0.6-2.6c0.6,1.4,1.6,2.6,2.9,3.5V40.7z M13.8,43.7c-0.9,0.9-2.4,0.9-3.3,0l-1-1c0.2-0.3,0.3-0.7,0.3-1.1v-1.1     c0.8,0.2,1.6,0.4,2.4,0.4c0.8,0,1.7-0.1,2.4-0.4l0,1.1c0,0.4,0.1,0.7,0.3,1.1L13.8,43.7z M12.2,38.7c-3.3,0-5.9-2.6-5.9-5.8     c0-0.6-0.5-1.1-1.1-1.1c-0.1,0-0.1,0-0.2,0c0-0.1,0-0.2,0-0.3c0-0.7,0-1.4,0.1-2c0.1-1.9,0.9-3.7,2.2-5c1.3-1.3,3-2,4.9-2     c1.9,0,3.6,0.7,4.9,2c1.3,1.3,2.1,3.1,2.2,5c0,0.6,0.1,1.3,0.1,2c0,0.1,0,0.1,0,0.2c-1.2-1.8-3-3.1-5.4-3.9     c-2.2-0.7-4.1-0.7-4.2-0.6c-0.3,0-0.6,0.1-0.8,0.3l-2,2c-0.4,0.4-0.4,1.1,0,1.5c0.4,0.4,1.1,0.4,1.6,0l1.6-1.7     c1.4,0.1,6,0.6,7.8,4.4C17.6,36.6,15.1,38.7,12.2,38.7z M16.8,40.7l0-1.3c1.3-0.9,2.3-2.1,2.9-3.5c0.1,0.9,0.3,1.8,0.6,2.6     C19.9,39,18.8,40,16.8,40.7z M27.4,23.3v-2.7c0-0.2,0-0.3-0.1-0.5c-0.7-1.4-1.1-3-1.1-4.5v-2.3c0-4.5,3.7-8.1,8.3-8.1h15.3v10.4     c0,1.6-0.4,3.1-1.1,4.5c-0.1,0.1-0.1,0.3-0.1,0.5v3.1c0,2.9-1.2,5.6-3.4,7.6c-0.3,0.2-0.6,0.5-0.8,0.7c0,0,0,0,0,0     c-2,1.5-4.5,2.3-7.1,2.1C31.7,33.7,27.4,29,27.4,23.3z M33.6,44.9C33.5,45,33.5,45,33.6,44.9c-0.1,0-0.1,0-0.1,0l-3.4-5l1.1-1.1     l5.2,3.5L33.6,44.9z M38,40.8l-5.9-4v-2c1.5,0.8,3.3,1.3,5.1,1.4c0.3,0,0.6,0,0.9,0c2.1,0,4.1-0.5,5.9-1.4v2L38,40.8z M42.6,44.9     C42.6,44.9,42.6,45,42.6,44.9c-0.1,0-0.1,0-0.1,0l-2.7-2.7l5.2-3.5l1.1,1.1L42.6,44.9z M62.7,44l-2.5-2.4c0-0.2,0.1-0.4,0.1-0.6     l0-0.5c0.7,0.2,1.4,0.4,2.2,0.4c0.1,0,0.2,0,0.3,0c0.8,0,1.6-0.1,2.4-0.4v0.4c0,0.2,0,0.4,0.1,0.6L62.7,44z M66.8,37.1     c-1.2,1.1-2.7,1.7-4.3,1.6c-3.2-0.1-5.8-2.8-5.8-6.1v-2c0-0.2,0-0.3-0.1-0.5l-0.7-1.3c-0.2-0.5-0.4-1-0.4-1.6v-0.1     c0-2.6,2.1-4.7,4.8-4.7h9.5v4.5c0,0.7-0.2,1.4-0.5,2.1l-0.6,1.1c-0.1,0.1-0.1,0.3-0.1,0.5v2.3C68.6,34.5,68,36,66.8,37.1z      M69.7,47.9c-0.6,0-1.1,0.5-1.1,1.1v6.9c0,0.6,0.5,1.1,1.1,1.1c0.6,0,1.1-0.5,1.1-1.1V49C70.8,48.4,70.3,47.9,69.7,47.9z      M6.3,49.4c-0.6,0-1.1,0.5-1.1,1.1v5.5c0,0.6,0.5,1.1,1.1,1.1c0.6,0,1.1-0.5,1.1-1.1v-5.5C7.4,49.8,6.9,49.4,6.3,49.4z      M30.9,17.9v-2.5c0,0,0-0.1,0.1-0.1c1.4-0.2,4.2-0.5,7.1-0.3c3.4,0.2,5.9,1.1,7.4,2.5c0.4,0.4,1.1,0.4,1.6,0     c0.4-0.4,0.4-1.1,0-1.5c-4.2-4.1-12.8-3.3-16.4-2.8c-1.1,0.2-1.9,1.1-1.9,2.2v2.5c0,0.6,0.5,1.1,1.1,1.1     C30.4,19,30.9,18.5,30.9,17.9z M25.1,50.2c-0.6,0-1.1,0.5-1.1,1.1v4.6c0,0.6,0.5,1.1,1.1,1.1c0.6,0,1.1-0.5,1.1-1.1v-4.6     C26.2,50.7,25.7,50.2,25.1,50.2z M50.9,50.2c-0.6,0-1.1,0.5-1.1,1.1v4.6c0,0.6,0.5,1.1,1.1,1.1s1.1-0.5,1.1-1.1v-4.6     C52,50.7,51.5,50.2,50.9,50.2z"/>
		</g>
	</g>
</g>
</svg>