<?xml version="1.0" encoding="utf-8" standalone="yes"?>
<!DOCTYPE svg PUBLIC "-//W3C//DTD SVG 1.1//EN" "http://www.w3.org/Graphics/SVG/1.1/DTD/svg11.dtd">
<svg width="794" height="360" viewBox="0 0 794 360" style="fill:none;stroke:none;fill-rule:evenodd;clip-rule:evenodd;stroke-linecap:round;stroke-linejoin:round;stroke-miterlimit:1.5;" version="1.1" xmlns="http://www.w3.org/2000/svg" xmlns:xlink="http://www.w3.org/1999/xlink"><style id="fontImports">@import url("https://fonts.googleapis.com/css2?family=Roboto:wght@400;700&amp;display=block");</style><g id="items" style="isolation: isolate"><g id="blend" style="mix-blend-mode:normal"><g id="g-root-4.Rectangle_sy_m8ky2r6p3f29-fill" data-item-order="-69688" transform="translate(291, 61)"></g><g id="g-root-4.cu_sy_dcxxtv6p3fuy-fill" data-item-order="-69686" transform="translate(255, 25)"></g><g id="g-root-3.Rectangle_sy_8x4fpf6p3gn7-fill" data-item-order="-69682" transform="translate(291, 181)"></g><g id="g-root-3.cu_sy_1hfgj6p3hfw-fill" data-item-order="-69678" transform="translate(255, 181)"></g><g id="g-root-2.cu_sy_1umrzb76p3i11-fill" data-item-order="-69674" transform="translate(411, 181)"></g><g id="g-root-2.Rectangle_sy_1lrrg5f6p3fny-fill" data-item-order="-69672" transform="translate(411, 181)"></g><g id="g-root-1.cu_sy_18gaxs36p3h8v-fill" data-item-order="-69668" transform="translate(411, 25)"></g><g id="g-root-1.Rectangle_sy_140hfnn6p3i14-fill" data-item-order="-69666" transform="translate(411, 61)"></g><g id="g-root-tx_higherse_142cuwz6p3h1j-fill" data-item-order="0" transform="translate(87, 1)"><g id="tx_higherse_142cuwz6p3h1j-fill" stroke="none" fill="#FD6A65"><g><text style="font: bold 20px Roboto, sans-serif; white-space: pre;" font-weight="bold" font-size="20px" font-family="Roboto, sans-serif"><tspan x="12.75" y="34" dominant-baseline="ideographic">Higher Security</tspan></text></g></g></g><g id="g-root-tx_costsavi_dg2b9f6p3h1l-fill" data-item-order="0" transform="translate(543, 1)"><g id="tx_costsavi_dg2b9f6p3h1l-fill" stroke="none" fill="#44E095"><g><text style="font: bold 20px Roboto, sans-serif; white-space: pre;" font-weight="bold" font-size="20px" font-family="Roboto, sans-serif"><tspan x="12" y="34" dominant-baseline="ideographic">Cost Savings</tspan></text></g></g></g><g id="g-root-tx_robustse_m9tw8z6p3h8i-fill" data-item-order="0" transform="translate(15, 37)"><g id="tx_robustse_m9tw8z6p3h8i-fill" stroke="none" fill="#A3A3A3"><g><text style="font: 15px Roboto, sans-serif; white-space: pre;" font-size="15px" font-family="Roboto, sans-serif"><tspan x="35.63" y="28" dominant-baseline="ideographic">Robust security features like </tspan><tspan x="22.25" y="46" dominant-baseline="ideographic">encryption for data protection.</tspan></text></g></g></g><g id="g-root-tx_predicta_1lt0ebn6p3hu5-fill" data-item-order="0" transform="translate(543, 37)"><g id="tx_predicta_1lt0ebn6p3hu5-fill" stroke="none" fill="#A3A3A3"><g><text style="font: 15px Roboto, sans-serif; white-space: pre;" font-size="15px" font-family="Roboto, sans-serif"><tspan x="12" y="31" dominant-baseline="ideographic">Predictable charges based on </tspan><tspan x="12" y="49" dominant-baseline="ideographic">resource usage without excess </tspan><tspan x="12" y="67" dominant-baseline="ideographic">capacity costs.</tspan></text></g></g></g><g id="g-root-lock_dffu6b6pg26f-fill" data-item-order="0" transform="translate(303, 73)"></g><g id="g-root-coin_dbp5z76p7ock-fill" data-item-order="0" transform="translate(423, 73)"></g><g id="g-root-grea_qoejcz6peqde-fill" data-item-order="0" transform="translate(303, 193)"></g><g id="g-root-clou_1hgbfyb6p0nwu-fill" data-item-order="0" transform="translate(423, 193)"></g><g id="g-root-tx_easeofus_qritmr6p3fgo-fill" data-item-order="0" transform="translate(111, 229)"><g id="tx_easeofus_qritmr6p3fgo-fill" stroke="none" fill="#1AC6FF"><g><text style="font: bold 20px Roboto, sans-serif; white-space: pre;" font-weight="bold" font-size="20px" font-family="Roboto, sans-serif"><tspan x="22.23" y="34" dominant-baseline="ideographic">Ease of Use</tspan></text></g></g></g><g id="g-root-tx_scalabil_18i6d1f6p3g9a-fill" data-item-order="0" transform="translate(543, 229)"><g id="tx_scalabil_18i6d1f6p3g9a-fill" stroke="none" fill="#A8DD38"><g><text style="font: bold 20px Roboto, sans-serif; white-space: pre;" font-weight="bold" font-size="20px" font-family="Roboto, sans-serif"><tspan x="12" y="34" dominant-baseline="ideographic">Scalability</tspan></text></g></g></g><g id="g-root-tx_simplema_8yzuyr6p3fnn-fill" data-item-order="0" transform="translate(27, 265)"><g id="tx_simplema_8yzuyr6p3fnn-fill" stroke="none" fill="#A3A3A3"><g><text style="font: 15px Roboto, sans-serif; white-space: pre;" font-size="15px" font-family="Roboto, sans-serif"><tspan x="11.78" y="31" dominant-baseline="ideographic">Simple management requiring </tspan><tspan x="97.81" y="49" dominant-baseline="ideographic">minimal in-house </tspan><tspan x="72.52" y="67" dominant-baseline="ideographic">administrative effort.</tspan></text></g></g></g><g id="g-root-tx_abilityt_3cupv6p3ggc-fill" data-item-order="0" transform="translate(543, 265)"><g id="tx_abilityt_3cupv6p3ggc-fill" stroke="none" fill="#A3A3A3"><g><text style="font: 15px Roboto, sans-serif; white-space: pre;" font-size="15px" font-family="Roboto, sans-serif"><tspan x="12" y="31" dominant-baseline="ideographic">Ability to easily adjust </tspan><tspan x="12" y="49" dominant-baseline="ideographic">computing capacity and </tspan><tspan x="12" y="67" dominant-baseline="ideographic">storage as needed.</tspan></text></g></g></g><g id="g-root-4.Rectangle_sy_m8ky2r6p3f29-stroke" data-item-order="-69688" transform="translate(291, 61)"><g id="4.Rectangle_sy_m8ky2r6p3f29-stroke" fill="none" stroke-linecap="round" stroke-linejoin="round" stroke-miterlimit="4" stroke="#FD6A65" stroke-width="2"><g><path d="M 10 10L 82 10L 82 82L 10 82Z"></path></g></g></g><g id="g-root-4.cu_sy_dcxxtv6p3fuy-stroke" data-item-order="-69686" transform="translate(255, 25)"><g id="4.cu_sy_dcxxtv6p3fuy-stroke" fill="none" stroke-linecap="round" stroke-linejoin="round" stroke-miterlimit="4" stroke="#FD6A65" stroke-width="2"><g><path d="M 10 10L 118 10L 118 28L 28 28L 28 118L 10 118L 10 10Z"></path></g></g></g><g id="g-root-3.Rectangle_sy_8x4fpf6p3gn7-stroke" data-item-order="-69682" transform="translate(291, 181)"><g id="3.Rectangle_sy_8x4fpf6p3gn7-stroke" fill="none" stroke-linecap="round" stroke-linejoin="round" stroke-miterlimit="4" stroke="#1AC6FF" stroke-width="2"><g><path d="M 10 10L 82 10L 82 82L 10 82Z"></path></g></g></g><g id="g-root-3.cu_sy_1hfgj6p3hfw-stroke" data-item-order="-69678" transform="translate(255, 181)"><g id="3.cu_sy_1hfgj6p3hfw-stroke" fill="none" stroke-linecap="round" stroke-linejoin="round" stroke-miterlimit="4" stroke="#1AC6FF" stroke-width="2"><g><path d="M 10 10L 10 118L 118 118L 118 100L 28 100L 28 10L 10 10Z"></path></g></g></g><g id="g-root-2.cu_sy_1umrzb76p3i11-stroke" data-item-order="-69674" transform="translate(411, 181)"><g id="2.cu_sy_1umrzb76p3i11-stroke" fill="none" stroke-linecap="round" stroke-linejoin="round" stroke-miterlimit="4" stroke="#A8DD38" stroke-width="2"><g><path d="M 100 10L 100 100L 10 100L 10 118L 118 118L 118 10L 100 10Z"></path></g></g></g><g id="g-root-2.Rectangle_sy_1lrrg5f6p3fny-stroke" data-item-order="-69672" transform="translate(411, 181)"><g id="2.Rectangle_sy_1lrrg5f6p3fny-stroke" fill="none" stroke-linecap="round" stroke-linejoin="round" stroke-miterlimit="4" stroke="#A8DD38" stroke-width="2"><g><path d="M 10 10L 82 10L 82 82L 10 82Z"></path></g></g></g><g id="g-root-1.cu_sy_18gaxs36p3h8v-stroke" data-item-order="-69668" transform="translate(411, 25)"><g id="1.cu_sy_18gaxs36p3h8v-stroke" fill="none" stroke-linecap="round" stroke-linejoin="round" stroke-miterlimit="4" stroke="#44E095" stroke-width="2"><g><path d="M 118 118L 118 10L 10 10L 10 28L 100 28L 100 118L 118 118Z"></path></g></g></g><g id="g-root-1.Rectangle_sy_140hfnn6p3i14-stroke" data-item-order="-69666" transform="translate(411, 61)"><g id="1.Rectangle_sy_140hfnn6p3i14-stroke" fill="none" stroke-linecap="round" stroke-linejoin="round" stroke-miterlimit="4" stroke="#44E095" stroke-width="2"><g><path d="M 10 10L 82 10L 82 82L 10 82Z"></path></g></g></g><g id="g-root-tx_higherse_142cuwz6p3h1j-stroke" data-item-order="0" transform="translate(87, 1)"></g><g id="g-root-tx_costsavi_dg2b9f6p3h1l-stroke" data-item-order="0" transform="translate(543, 1)"></g><g id="g-root-tx_robustse_m9tw8z6p3h8i-stroke" data-item-order="0" transform="translate(15, 37)"></g><g id="g-root-tx_predicta_1lt0ebn6p3hu5-stroke" data-item-order="0" transform="translate(543, 37)"></g><g id="g-root-lock_dffu6b6pg26f-stroke" data-item-order="0" transform="translate(303, 73)"><g id="lock_dffu6b6pg26f-stroke" fill="none" stroke-linecap="round" stroke-linejoin="round" stroke-miterlimit="4" stroke="#FD6A65" stroke-width="2"><g><path d="M 20.285715 28.857143L 47.714287 28.857143C 47.714287 28.857143 51.142857 28.857143 51.142857 32.285713L 51.142857 52.857143C 51.142857 52.857143 51.142857 56.285713 47.714287 56.285713L 20.285715 56.285713C 20.285715 56.285713 16.857143 56.285713 16.857143 52.857143L 16.857143 32.285713C 16.857143 32.285713 16.857143 28.857143 20.285715 28.857143M 46 28.857143L 46 23.714287C 46 17.086868 40.627419 11.714287 34 11.714287C 27.372585 11.714287 22 17.086868 22 23.714287L 22 28.857143M 32.285713 42.57143C 32.285713 43.518204 33.053226 44.285713 34 44.285713C 34.946774 44.285713 35.714287 43.518204 35.714287 42.57143C 35.714287 41.624657 34.946774 40.857143 34 40.857143C 33.053226 40.857143 32.285713 41.624657 32.285713 42.57143"></path></g></g></g><g id="g-root-coin_dbp5z76p7ock-stroke" data-item-order="0" transform="translate(423, 73)"><g id="coin_dbp5z76p7ock-stroke" fill="none" stroke-linecap="round" stroke-linejoin="round" stroke-miterlimit="4" stroke="#44E095" stroke-width="2"><g><path d="M 11.008 30.91C 11.008 32.014572 15.485153 32.91 21.007999 32.91C 26.530848 32.91 31.007999 32.014572 31.007999 30.91C 31.007999 29.805431 26.530848 28.91 21.007999 28.91C 15.485153 28.91 11.008 29.805431 11.008 30.91ZM 31 30.91L 31 36.91C 31 38.015999 26.524 38.91 21 38.91C 15.476 38.91 11 38.015999 11 36.91L 11 30.91M 31 36.91L 31 42.91C 31 44.015999 26.524 44.91 21 44.91C 15.476 44.91 11 44.015999 11 42.91L 11 36.91M 31 42.91L 31 48.91C 31 50.015999 26.524 50.91 21 50.91C 15.476 50.91 11 50.015999 11 48.91L 11 42.91M 31 48.91L 31 54.91C 31 56.015999 26.524 56.91 21 56.91C 15.476 56.91 11 56.015999 11 54.91L 11 48.91M 18.762001 23.908001C 21.448 18.116001 28.200001 14 36.098 14C 38.127289 14.000175 40.146675 14.282888 42.098 14.84C 43.344147 13.069212 45.143986 11.763309 47.214001 11.128C 47.515499 11.043455 47.839191 11.105017 48.088608 11.294335C 48.33802 11.483655 48.484356 11.778872 48.484001 12.092L 48.484001 18.01C 50.604637 19.867947 52.207432 22.243889 53.135998 24.906L 55.009998 24.906C 56.114571 24.906 57.009998 25.80143 57.009998 26.906L 57.009998 32.905998C 57.009998 34.010567 56.114571 34.905998 55.009998 34.905998L 53.138 34.905998C 52.084843 37.527756 50.270103 39.773712 47.927998 41.353996L 49.543999 45.736C 50.135986 47.340519 49.314919 49.121105 47.710258 49.7127C 46.105595 50.304298 44.325211 49.482803 43.733997 47.877998L 42.32 44.048C 40.302071 44.653641 38.206852 44.962872 36.099998 44.966M 44.507999 23.91C 44.231857 23.91 44.007999 24.133858 44.007999 24.41C 44.007999 24.686142 44.231857 24.91 44.507999 24.91C 44.784142 24.91 45.007999 24.686142 45.007999 24.41C 45.007999 24.133858 44.784142 23.91 44.507999 23.91M 26 21.91C 28.072859 19.623466 30.927057 18.196367 34 17.91"></path></g></g></g><g id="g-root-grea_qoejcz6peqde-stroke" data-item-order="0" transform="translate(303, 193)"><g id="grea_qoejcz6peqde-stroke" fill="none" stroke-linecap="round" stroke-linejoin="round" stroke-miterlimit="4" stroke="#1AC6FF" stroke-width="2"><g><path d="M 16.274 24.782C 19.874592 14.949579 30.168242 9.271944 40.405479 11.471878C 50.642715 13.671812 57.695129 23.077034 56.938507 33.520611C 56.181881 43.964184 47.847431 52.254646 37.400002 52.956001M 30.5 27C 30.223858 27 30 26.776142 30 26.5C 30 26.223858 30.223858 26 30.5 26C 30.776142 26 31 26.223858 31 26.5C 31 26.776142 30.776142 27 30.5 27M 48.5 27C 48.223858 27 48 26.776142 48 26.5C 48 26.223858 48.223858 26 48.5 26C 48.776142 26 49 26.223858 49 26.5C 49 26.776142 48.776142 27 48.5 27M 46.355999 33.984001C 46.859722 33.96793 47.341576 34.190132 47.656406 34.583675C 47.971241 34.977215 48.082253 35.496094 47.956001 35.984001C 46.757103 40.308628 42.311913 42.873024 37.968002 41.746002C 35.095184 41.046574 32.831078 38.838421 32.059998 35.984001C 31.954622 35.56876 32.020164 35.128601 32.241959 34.762085C 32.463753 34.395561 32.823265 34.133293 33.239998 34.034C 33.374767 34.000526 33.513138 33.983734 33.652 33.984001ZM 14 39.419998L 12.696 35.436001C 12.153709 33.788071 13.04874 32.012329 14.696 31.468L 14.696 31.468C 16.346745 30.927763 18.122971 31.827513 18.664 33.477997L 19.970001 37.461998M 26.694 37.774002L 26.676001 37.718002C 26.275019 36.496284 24.960148 35.830345 23.737999 36.23L 20.200001 37.400002L 18.75 37.874001L 16.228001 38.702C 12.252384 40.004433 10.082291 44.28019 11.378 48.258003L 12.532 51.776001C 13.83602 55.755226 18.118299 57.924568 22.098 56.622002L 24.619999 55.799999L 29.620001 54.166C 30.841978 53.764133 31.507765 52.448669 31.108 51.226002L 31.09 51.172001C 30.898296 50.584595 30.480928 50.097496 29.929848 49.818016C 29.378765 49.538536 28.739183 49.489605 28.152 49.682003C 29.373713 49.281017 30.039652 47.966148 29.639999 46.743999L 29.622 46.688C 29.221039 45.465244 27.904758 44.799046 26.681999 45.200001C 27.269409 45.008297 27.756508 44.590931 28.035988 44.039848C 28.315468 43.488766 28.364399 42.849182 28.172001 42.262001L 28.146 42.200001C 27.744133 40.97802 26.428667 40.312233 25.206001 40.711998C 25.793362 40.52034 26.280336 40.102867 26.55949 39.551689C 26.838646 39.000504 26.887041 38.360909 26.694 37.774002ZM 20.200001 37.400002L 23.742001 36.239998C 24.964149 35.840347 26.279018 36.506287 26.68 37.727997L 26.698 37.784C 27.09148 39.006096 26.421293 40.316048 25.200001 40.712002L 21.658001 41.872002M 21.664 41.872002L 25.206001 40.711998C 26.428667 40.312233 27.744133 40.97802 28.146 42.200001L 28.164 42.256001C 28.358248 42.843956 28.310255 43.485077 28.030636 44.03756C 27.751017 44.590042 27.262812 45.008362 26.674 45.200001L 23.133999 46.360001M 23.133999 46.354L 26.674 45.194C 27.896757 44.793045 29.213037 45.459244 29.614 46.681999L 29.632 46.737999C 30.031651 47.960148 29.365713 49.275017 28.143999 49.675999L 24.6 50.838001M 24.6 50.838001L 28.142 49.675999C 28.729183 49.483604 29.368765 49.532536 29.919847 49.812016C 30.470928 50.091496 30.888296 50.578594 31.080002 51.166L 31.098 51.220001C 31.497765 52.442669 30.831978 53.758133 29.610001 54.16L 26.068001 55.32"></path></g></g></g><g id="g-root-clou_1hgbfyb6p0nwu-stroke" data-item-order="0" transform="translate(423, 193)"><g id="clou_1hgbfyb6p0nwu-stroke" fill="none" stroke-linecap="round" stroke-linejoin="round" stroke-miterlimit="4" stroke="#A8DD38" stroke-width="2"><g><path d="M 33 36.956001L 33 56.993999M 46.722 21.33C 45.624313 16.128834 41.470634 12.119959 36.233807 11.207444C 30.996977 10.29493 25.732182 12.662641 22.940001 17.186001C 18.427788 16.28772 13.884916 18.584038 11.93257 22.750008C 9.980223 26.915979 11.122248 31.876478 14.699711 34.769356C 18.277172 37.662231 23.366825 37.740913 27.032 34.959999C 31.902802 38.071789 38.246403 37.577164 42.576 33.748001C 44.989243 37.015709 49.468357 37.95607 52.991989 35.934769C 56.515625 33.913467 57.965023 29.572269 56.362499 25.839497C 54.759979 22.106724 50.614346 20.167538 46.722 21.33ZM 33 49.993999L 37.877998 45.116001M 37 42.993999C 37 44.650856 38.343147 45.993999 40 45.993999C 41.656853 45.993999 43 44.650856 43 42.993999C 43 41.337147 41.656853 39.994003 40 39.994003C 38.343147 39.994003 37 41.337147 37 42.993999Z"></path></g></g></g><g id="g-root-tx_easeofus_qritmr6p3fgo-stroke" data-item-order="0" transform="translate(111, 229)"></g><g id="g-root-tx_scalabil_18i6d1f6p3g9a-stroke" data-item-order="0" transform="translate(543, 229)"></g><g id="g-root-tx_simplema_8yzuyr6p3fnn-stroke" data-item-order="0" transform="translate(27, 265)"></g><g id="g-root-tx_abilityt_3cupv6p3ggc-stroke" data-item-order="0" transform="translate(543, 265)"></g></g></g></svg>