<?xml version="1.0" encoding="utf-8" standalone="yes"?>
<!DOCTYPE svg PUBLIC "-//W3C//DTD SVG 1.1//EN" "http://www.w3.org/Graphics/SVG/1.1/DTD/svg11.dtd">
<svg width="794" height="422" viewBox="0 0 794 422" style="fill:none;stroke:none;fill-rule:evenodd;clip-rule:evenodd;stroke-linecap:round;stroke-linejoin:round;stroke-miterlimit:1.5;" version="1.1" xmlns="http://www.w3.org/2000/svg" xmlns:xlink="http://www.w3.org/1999/xlink"><style id="fontImports">@import url("https://fonts.googleapis.com/css2?family=Roboto:wght@400;700&amp;display=block");</style><g id="items" style="isolation: isolate"><g id="blend" style="mix-blend-mode:normal"><g id="g-root-ro_quo5q997gnbh-fill" data-item-order="-29232" transform="translate(267, 39)"></g><g id="g-root-ro_1lqjq4h96yepx-fill" data-item-order="-11664" transform="translate(9, 39)"></g><g id="g-root-ro_59eyp976t58-fill" data-item-order="-10368" transform="translate(477, 39)"></g><g id="g-root-ro_8wj3lt97dvk6-fill" data-item-order="-7776" transform="translate(279, 237)"></g><g id="g-root-cu_ddln2996ydxo-fill" data-item-order="0" transform="translate(502.5999755859375, 93)"></g><g id="g-root-cu_18fpou996yd52-fill" data-item-order="0" transform="translate(225, 66)"></g><g id="g-root-cu_8xs4xt96yepz-fill" data-item-order="0" transform="translate(500.076904296875, 93)"></g><g id="g-root-tx_applicat_1cvj3sx97dw5d-fill" data-item-order="0" transform="translate(531, 105)"><g id="tx_applicat_1cvj3sx97dw5d-fill" stroke="none" fill="#484848"><g><text style="font: 20px Arial, Helvetica, sans-serif; white-space: pre;" font-size="20px" font-family="Arial, Helvetica, sans-serif"><tspan x="15.05" y="33" dominant-baseline="ideographic">Application Compatibility</tspan></text></g></g></g><g id="g-root-cu_13zw6pt96ydxd-fill" data-item-order="0" transform="translate(435, 66)"></g><g id="g-root-tx_datamode_1hbclxd97dvd4-fill" data-item-order="0" transform="translate(51, 141)"><g id="tx_datamode_1hbclxd97dvd4-fill" stroke="none" fill="#484848"><g><text style="font: 20px Roboto, sans-serif; white-space: pre;" font-size="20px" font-family="Roboto, sans-serif"><tspan x="13.87" y="34" dominant-baseline="ideographic">Data Models</tspan></text></g></g></g><g id="g-root-cu_v496gx96yeq4-fill" data-item-order="0" transform="translate(351, 213)"></g><g id="g-root-tx_tablestr_1umt4ap97dts7-fill" data-item-order="0" transform="translate(15, 105)"><g id="tx_tablestr_1umt4ap97dts7-fill" stroke="none" fill="#484848"><g><text style="font: 20px Arial, Helvetica, sans-serif; white-space: pre;" font-size="20px" font-family="Arial, Helvetica, sans-serif"><tspan x="15.74" y="33" dominant-baseline="ideographic">Table Structures</tspan></text></g></g></g><g id="g-root-cu_qofoch96yfif-fill" data-item-order="0" transform="translate(177, 93)"></g><g id="g-root-cu_ddln2996ydxm-fill" data-item-order="0" transform="translate(177, 93)"></g><g id="g-root-cu_1uo25mp96ycy4-fill" data-item-order="0" transform="translate(302.6666564941406, 291)"></g><g id="g-root-tx_encrypti_qp229t97dvd7-fill" data-item-order="0" transform="translate(327, 303)"><g id="tx_encrypti_qp229t97dvd7-fill" stroke="none" fill="#484848"><g><text style="font: 20px Arial, Helvetica, sans-serif; white-space: pre;" font-size="20px" font-family="Arial, Helvetica, sans-serif"><tspan x="17.62" y="33" dominant-baseline="ideographic">Encryption Methods</tspan></text></g></g></g><g id="g-root-cu_4hymtd96yfi9-fill" data-item-order="0" transform="translate(303, 291)"></g><g id="g-root-tx_regulato_m98k5d97dw5g-fill" data-item-order="0" transform="translate(327, 339)"><g id="tx_regulato_m98k5d97dw5g-fill" stroke="none" fill="#484848"><g><text style="font: 20px Arial, Helvetica, sans-serif; white-space: pre;" font-size="20px" font-family="Arial, Helvetica, sans-serif"><tspan x="14.05" y="33" dominant-baseline="ideographic">Regulatory Compliance</tspan></text></g></g></g><g id="g-root-tx_datainte_zkp2ip97duki-fill" data-item-order="0" transform="translate(531, 141)"><g id="tx_datainte_zkp2ip97duki-fill" stroke="none" fill="#484848"><g><text style="font: 20px Arial, Helvetica, sans-serif; white-space: pre;" font-size="20px" font-family="Arial, Helvetica, sans-serif"><tspan x="16.84" y="33" dominant-baseline="ideographic">Data Integration</tspan></text></g></g></g><g id="g-root-appl_dg3g8x976uq3-fill" data-item-order="1000000000" transform="translate(495, 51)"></g><g id="g-root-serv_1d1579d97go3o-fill" data-item-order="1000000000" transform="translate(327, 75)"></g><g id="g-root-tx_integrat_qrjym9976t56-fill" data-item-order="1000000000" transform="translate(531, 54)"><g id="tx_integrat_qrjym9976t56-fill" stroke="none" fill="#b65edf"><g><text style="font: 20px Arial, Helvetica, sans-serif; white-space: pre;" font-size="20px" font-family="Arial, Helvetica, sans-serif"><tspan x="17.74" y="33" dominant-baseline="ideographic">Integrations</tspan></text></g></g></g><g id="g-root-tx_database_1hgypdt97gnbf-fill" data-item-order="1000000000" transform="translate(291, 129)"><g id="tx_database_1hgypdt97gnbf-fill" stroke="none" fill="#484848"><g><text style="font: 20px Arial, Helvetica, sans-serif; white-space: pre;" font-size="20px" font-family="Arial, Helvetica, sans-serif"><tspan x="12.42" y="33" dominant-baseline="ideographic">Database as </tspan><tspan x="26.89" y="57" dominant-baseline="ideographic">a Service</tspan></text></g></g></g><g id="g-root-tx_database_4g37k196yfpn-fill" data-item-order="1000000000" transform="translate(27, 54)"><g id="tx_database_4g37k196yfpn-fill" stroke="none" fill="#4682e3"><g><text style="font: 20px Arial, Helvetica, sans-serif; white-space: pre;" font-size="20px" font-family="Arial, Helvetica, sans-serif"><tspan x="14.91" y="33" dominant-baseline="ideographic">Database Type</tspan></text></g></g></g><g id="g-root-lock_dcclq997durx-fill" data-item-order="1000000000" transform="translate(291, 249)"></g><g id="g-root-tx_security_qnt43l97dt70-fill" data-item-order="1000000000" transform="translate(327, 252)"><g id="tx_security_qnt43l97dt70-fill" stroke="none" fill="#dd8433"><g><text style="font: bold 20px Arial, Helvetica, sans-serif; white-space: pre;" font-weight="bold" font-size="20px" font-family="Arial, Helvetica, sans-serif"><tspan x="12.53" y="33" dominant-baseline="ideographic">Security</tspan></text></g></g></g><g id="g-root-data_1q6d88x96ydxo-fill" data-item-order="1000000000" transform="translate(177, 51)"></g><g id="g-root-ro_quo5q997gnbh-stroke" data-item-order="-29232" transform="translate(267, 39)"><g id="ro_quo5q997gnbh-stroke" fill="none" stroke-linecap="round" stroke-linejoin="round" stroke-miterlimit="4" stroke="#484848" stroke-width="2"><g><path d="M 34 10L 154 10C 154 10 178 10 178 34L 178 160C 178 160 178 184 154 184L 34 184C 34 184 10 184 10 160L 10 34C 10 34 10 10 34 10"></path></g></g></g><g id="g-root-ro_1lqjq4h96yepx-stroke" data-item-order="-11664" transform="translate(9, 39)"><g id="ro_1lqjq4h96yepx-stroke" fill="none" stroke-linecap="round" stroke-linejoin="round" stroke-miterlimit="4" stroke="#4682e3" stroke-width="2"><g><path d="M 22 10L 214 10C 214 10 226 10 226 22L 226 52C 226 52 226 64 214 64L 22 64C 22 64 10 64 10 52L 10 22C 10 22 10 10 22 10"></path></g></g></g><g id="g-root-ro_59eyp976t58-stroke" data-item-order="-10368" transform="translate(477, 39)"><g id="ro_59eyp976t58-stroke" fill="none" stroke-linecap="round" stroke-linejoin="round" stroke-miterlimit="4" stroke="#b65edf" stroke-width="2"><g><path d="M 22 10L 190 10C 190 10 202 10 202 22L 202 52C 202 52 202 64 190 64L 22 64C 22 64 10 64 10 52L 10 22C 10 22 10 10 22 10"></path></g></g></g><g id="g-root-ro_8wj3lt97dvk6-stroke" data-item-order="-7776" transform="translate(279, 237)"><g id="ro_8wj3lt97dvk6-stroke" fill="none" stroke-linecap="round" stroke-linejoin="round" stroke-miterlimit="4" stroke="#dd8433" stroke-width="2"><g><path d="M 22 10L 142 10C 142 10 154 10 154 22L 154 52C 154 52 154 64 142 64L 22 64C 22 64 10 64 10 52L 10 22C 10 22 10 10 22 10"></path></g></g></g><g id="g-root-cu_ddln2996ydxo-stroke" data-item-order="0" transform="translate(502.5999755859375, 93)"><g id="cu_ddln2996ydxo-stroke" fill="none" stroke-linecap="round" stroke-linejoin="round" stroke-miterlimit="4" stroke="#888888" stroke-width="2" stroke-dasharray="5.0, 7.0"><g><path d="M 10 10L 10 22L 10 34L 21.2 34L 32.4 34"></path></g></g></g><g id="g-root-cu_18fpou996yd52-stroke" data-item-order="0" transform="translate(225, 66)"><g id="cu_18fpou996yd52-stroke" fill="none" stroke-linecap="round" stroke-linejoin="round" stroke-miterlimit="4" stroke="#888888" stroke-width="2" stroke-dasharray="5.0, 7.0"><g><path d="M 52 41L 49.4 41L 49.3 41C 45.35712 41.003034 41.13206 39.453846 37.300001 36.599999C 34.996776 34.882246 32.700935 30.837194 31.000001 25.499999C 29.299067 20.162805 27.003226 16.117752 24.700001 14.4C 20.867941 11.546154 16.642881 9.996965 12.7 10L 12.6 10L 10 10"></path></g></g></g><g id="g-root-cu_8xs4xt96yepz-stroke" data-item-order="0" transform="translate(500.076904296875, 93)"><g id="cu_8xs4xt96yepz-stroke" fill="none" stroke-linecap="round" stroke-linejoin="round" stroke-miterlimit="4" stroke="#888888" stroke-width="2" stroke-dasharray="5.0, 7.0"><g><path d="M 12.5 10L 12.5 13.8L 12.5 28C 12.505601 29.808366 12.405047 31.819433 12.2 34.000001L 11.3 40L 10.3 46C 10.094953 48.180571 9.9944 50.191638 10 52.000003L 10 52.1L 10 58C 10.000002 64.627417 15.372585 70 22.000002 69.999999L 22.1 70L 34.9 70"></path></g></g></g><g id="g-root-tx_applicat_1cvj3sx97dw5d-stroke" data-item-order="0" transform="translate(531, 105)"></g><g id="g-root-cu_13zw6pt96ydxd-stroke" data-item-order="0" transform="translate(435, 66)"><g id="cu_13zw6pt96ydxd-stroke" fill="none" stroke-linecap="round" stroke-linejoin="round" stroke-miterlimit="4" stroke="#888888" stroke-width="2" stroke-dasharray="5.0, 7.0"><g><path d="M 10 41L 12.6 41L 12.7 41C 16.642881 41.003034 20.86794 39.453846 24.699999 36.6C 27.003226 34.882246 29.299067 30.837194 31.000001 25.499999C 32.700935 20.162805 34.996776 16.117752 37.300001 14.4C 41.132059 11.546154 45.357119 9.996965 49.3 10L 49.4 10L 52 10"></path></g></g></g><g id="g-root-tx_datamode_1hbclxd97dvd4-stroke" data-item-order="0" transform="translate(51, 141)"></g><g id="g-root-cu_v496gx96yeq4-stroke" data-item-order="0" transform="translate(351, 213)"><g id="cu_v496gx96yeq4-stroke" fill="none" stroke-linecap="round" stroke-linejoin="round" stroke-miterlimit="4" stroke="#888888" stroke-width="2" stroke-dasharray="5.0, 7.0"><g><path d="M 10 10L 10 22L 10 34"></path></g></g></g><g id="g-root-tx_tablestr_1umt4ap97dts7-stroke" data-item-order="0" transform="translate(15, 105)"></g><g id="g-root-cu_qofoch96yfif-stroke" data-item-order="0" transform="translate(177, 93)"><g id="cu_qofoch96yfif-stroke" fill="none" stroke-linecap="round" stroke-linejoin="round" stroke-miterlimit="4" stroke="#888888" stroke-width="2" stroke-dasharray="5.0, 7.0"><g><path d="M 32.6 10L 32.6 22L 32.6 34L 21.3 34L 10 34"></path></g></g></g><g id="g-root-cu_ddln2996ydxm-stroke" data-item-order="0" transform="translate(177, 93)"><g id="cu_ddln2996ydxm-stroke" fill="none" stroke-linecap="round" stroke-linejoin="round" stroke-miterlimit="4" stroke="#888888" stroke-width="2" stroke-dasharray="5.0, 7.0"><g><path d="M 32.6 10L 32.6 17.5L 32.6 58C 32.599999 64.627415 27.227416 69.999998 20.6 69.999998L 20.5 70L 10 70"></path></g></g></g><g id="g-root-cu_1uo25mp96ycy4-stroke" data-item-order="0" transform="translate(302.6666564941406, 291)"><g id="cu_1uo25mp96ycy4-stroke" fill="none" stroke-linecap="round" stroke-linejoin="round" stroke-miterlimit="4" stroke="#888888" stroke-width="2" stroke-dasharray="5.0, 7.0"><g><path d="M 10.3 10L 10.3 13.8L 10.3 28L 10.3 34L 10 46L 10 52L 10 52.1L 10 58C 10.000002 64.627417 15.372585 70 22.000002 69.999999L 22.1 70L 28.3 70"></path></g></g></g><g id="g-root-tx_encrypti_qp229t97dvd7-stroke" data-item-order="0" transform="translate(327, 303)"></g><g id="g-root-cu_4hymtd96yfi9-stroke" data-item-order="0" transform="translate(303, 291)"><g id="cu_4hymtd96yfi9-stroke" fill="none" stroke-linecap="round" stroke-linejoin="round" stroke-miterlimit="4" stroke="#888888" stroke-width="2" stroke-dasharray="5.0, 7.0"><g><path d="M 10 10L 10 22L 10 34L 19 34L 28 34"></path></g></g></g><g id="g-root-tx_regulato_m98k5d97dw5g-stroke" data-item-order="0" transform="translate(327, 339)"></g><g id="g-root-tx_datainte_zkp2ip97duki-stroke" data-item-order="0" transform="translate(531, 141)"></g><g id="g-root-appl_dg3g8x976uq3-stroke" data-item-order="1000000000" transform="translate(495, 51)"><g id="appl_dg3g8x976uq3-stroke" fill="none" stroke-linecap="round" stroke-linejoin="round" stroke-miterlimit="4" stroke="#b65edf" stroke-width="2"><g><path d="M 38.92857 28.214285L 38.92857 32.5C 38.92857 33.091732 38.448875 33.571426 37.857143 33.571426L 12.142857 33.571426C 11.551124 33.571426 11.071428 33.091732 11.071428 32.5L 11.071428 28.214285M 11.071428 19.642857L 11.071428 15.357142C 11.071428 14.765409 11.551124 14.285714 12.142857 14.285714L 37.857143 14.285714C 38.448875 14.285714 38.92857 14.765409 38.92857 15.357142L 38.92857 19.642857M 22.857143 33.571426L 20.714285 38.92857M 27.142857 33.571426L 29.285713 38.92857M 18.571428 38.92857L 31.42857 38.92857M 21.785713 19.642857L 28.214285 19.642857L 28.214285 28.214285L 21.785713 28.214285ZM 16.428572 20.714285L 13.214286 23.928572L 16.428572 27.142857M 33.571426 20.714285L 36.785713 23.928572L 33.571426 27.142857"></path></g></g></g><g id="g-root-serv_1d1579d97go3o-stroke" data-item-order="1000000000" transform="translate(327, 75)"><g id="serv_1d1579d97go3o-stroke" fill="none" stroke-linecap="round" stroke-linejoin="round" stroke-miterlimit="4" stroke="#484848" stroke-width="2"><g><path d="M 51 23.854C 50.966511 21.881111 50.131657 20.006788 48.687508 18.662231C 47.243355 17.317677 45.314247 16.618662 43.343998 16.726C 41.574951 13.192698 37.951328 10.972141 34 11C 28.620384 10.922284 24.105413 15.036353 23.684 20.4C 22.078552 20.044861 20.398424 20.42691 19.104412 21.441368C 17.810402 22.455822 17.038349 23.996189 17 25.639999C 17 31.084 22.911999 31 22.911999 31L 44.348 31C 44.348 31 51 30.158001 51 23.854ZM 23.5 51.498001C 23.224117 51.498001 23.00037 51.721455 23.000004 51.997337C 22.999638 52.273216 23.222792 52.497265 23.498672 52.497997C 23.774551 52.498734 23.998898 52.275879 24 52C 24.000534 51.867226 23.948027 51.739738 23.854143 51.645855C 23.760258 51.551971 23.632771 51.499466 23.5 51.5L 23.5 51.5M 28.5 51.498001C 28.224119 51.498001 28.00037 51.721455 28.000004 51.997337C 27.999638 52.273216 28.222792 52.497265 28.498672 52.497997C 28.774553 52.498734 28.998896 52.275879 29 52C 29.000534 51.867226 28.948027 51.739738 28.854143 51.645855C 28.760258 51.551971 28.632771 51.499466 28.5 51.5L 28.5 51.5M 51 54C 51 55.656857 49.656857 57 48 57L 20 57C 18.343147 57 17 55.656857 17 54L 17 50C 17 48.343147 18.343147 47 20 47L 48 47C 49.656857 47 51 48.343147 51 50ZM 23.5 41.498001C 23.224117 41.498001 23.00037 41.721455 23.000004 41.997337C 22.999638 42.273216 23.222792 42.497265 23.498672 42.497997C 23.774551 42.498734 23.998898 42.275879 24 42C 24.000534 41.867226 23.948027 41.739738 23.854143 41.645855C 23.760258 41.551971 23.632771 41.499466 23.5 41.5L 23.5 41.5M 28.5 41.498001C 28.224119 41.498001 28.00037 41.721455 28.000004 41.997337C 27.999638 42.273216 28.222792 42.497265 28.498672 42.497997C 28.774553 42.498734 28.998896 42.275879 29 42C 29.000534 41.867226 28.948027 41.739738 28.854143 41.645855C 28.760258 41.551971 28.632771 41.499466 28.5 41.5L 28.5 41.5M 51 44C 51 45.656857 49.656857 47 48 47L 20 47C 18.343147 47 17 45.656857 17 44L 17 40C 17 38.343147 18.343147 37 20 37L 48 37C 49.656857 37 51 38.343147 51 40Z"></path></g></g></g><g id="g-root-tx_integrat_qrjym9976t56-stroke" data-item-order="1000000000" transform="translate(531, 54)"></g><g id="g-root-tx_database_1hgypdt97gnbf-stroke" data-item-order="1000000000" transform="translate(291, 129)"></g><g id="g-root-tx_database_4g37k196yfpn-stroke" data-item-order="1000000000" transform="translate(27, 54)"></g><g id="g-root-lock_dcclq997durx-stroke" data-item-order="1000000000" transform="translate(291, 249)"><g id="lock_dcclq997durx-stroke" fill="none" stroke-linecap="round" stroke-linejoin="round" stroke-miterlimit="4" stroke="#dd8433" stroke-width="2"><g><path d="M 24.375 39.375L 11.875 39.375C 11.184644 39.375 10.625 38.815353 10.625 38.125L 10.625 11.875C 10.625 11.184644 11.184644 10.625 11.875 10.625L 28.487499 10.625C 28.820293 10.624074 29.139715 10.755893 29.375 10.99125L 34 15.625C 34.234436 15.859366 34.36618 16.177258 34.366249 16.508749L 34.366249 20.625M 14.37125 29.375L 25.62125 29.375M 16.25 23.125L 17.5 23.125C 17.845179 23.125 18.125 23.404823 18.125 23.75L 18.125 29.375L 18.125 29.375L 15.625 29.375L 15.625 29.375L 15.625 23.75C 15.625 23.404823 15.904821 23.125 16.25 23.125ZM 23.125 29.375L 23.125 20C 23.125 19.654821 22.845177 19.375 22.5 19.375L 21.25 19.375C 20.904823 19.375 20.625 19.654821 20.625 20L 20.625 29.375M 28.125 24.375L 28.125 22.5C 28.125 22.154823 27.845177 21.875 27.5 21.875L 26.25 21.875C 25.904823 21.875 25.625 22.154823 25.625 22.5L 25.625 29.375M 29.37125 29.376251L 38.12125 29.376251C 38.12125 29.376251 39.37125 29.376251 39.37125 30.626249L 39.37125 38.125C 39.37125 38.125 39.37125 39.375 38.12125 39.375L 29.37125 39.375C 29.37125 39.375 28.12125 39.375 28.12125 38.125L 28.12125 30.626249C 28.12125 30.626249 28.12125 29.376251 29.37125 29.376251M 32.18375 34.453751C 32.18375 35.316696 32.883305 36.016251 33.74625 36.016251C 34.609196 36.016251 35.30875 35.316696 35.30875 34.453751C 35.30875 33.590805 34.609196 32.891251 33.74625 32.891251C 32.883305 32.891251 32.18375 33.590805 32.18375 34.453751M 36.875 27.5C 36.875 25.774111 35.475891 24.375 33.75 24.375C 32.024109 24.375 30.625 25.774111 30.625 27.5L 30.625 29.375L 36.875 29.375Z"></path></g></g></g><g id="g-root-tx_security_qnt43l97dt70-stroke" data-item-order="1000000000" transform="translate(327, 252)"></g><g id="g-root-data_1q6d88x96ydxo-stroke" data-item-order="1000000000" transform="translate(177, 51)"><g id="data_1q6d88x96ydxo-stroke" fill="none" stroke-linecap="round" stroke-linejoin="round" stroke-miterlimit="4" stroke="#4682e3" stroke-width="2"><g><path d="M 11.071428 16.428572C 11.071429 19.387239 17.307463 21.785713 25 21.785713C 32.692539 21.785713 38.92857 19.387239 38.92857 16.428572C 38.92857 13.469903 32.692539 11.071428 25 11.071428C 17.307463 11.071428 11.071429 13.469903 11.071429 16.428572M 11.071428 16.428572L 11.071428 33.571426C 11.071428 36.528572 17.307142 38.92857 25 38.92857C 32.692856 38.92857 38.92857 36.528572 38.92857 33.571426L 38.92857 16.428572M 38.92857 25C 38.92857 27.957142 32.692856 30.357141 25 30.357141C 17.307142 30.357141 11.071428 27.957142 11.071428 25"></path></g></g></g></g></g></svg>