<?xml version="1.0" encoding="utf-8" standalone="yes"?>
<!DOCTYPE svg PUBLIC "-//W3C//DTD SVG 1.1//EN" "http://www.w3.org/Graphics/SVG/1.1/DTD/svg11.dtd">
<svg width="710" height="319" viewBox="0 0 710 319" style="fill:none;stroke:none;fill-rule:evenodd;clip-rule:evenodd;stroke-linecap:round;stroke-linejoin:round;stroke-miterlimit:1.5;" version="1.1" xmlns="http://www.w3.org/2000/svg" xmlns:xlink="http://www.w3.org/1999/xlink"><style id="fontImports">@import url("https://fonts.googleapis.com/css2?family=Roboto:wght@400;700&amp;display=block");</style><g id="items" style="isolation: isolate"><g id="blend" style="mix-blend-mode:normal"><g id="g-root-6.Vector_sy_dcy0yb7jdhjg-fill" data-item-order="-109290" transform="translate(423.12298583984375, 199.9100341796875)"><g id="6.Vector_sy_dcy0yb7jdhjg-fill" stroke="none" fill="url(#gradient-dc8433-135949021)"><g><path d="M 13.147014 30.407996L 10.000014 11.658996L 28.928014 9.999996L 24.536014 15.679996L 45.127014 31.620996L 45.303014 31.770996C 52.926014 24.661996 63.560014 20.903996 74.696014 22.408996C 94.399014 25.072996 108.212014 43.204996 105.548014 62.907996C 102.884014 82.610996 84.752014 96.423996 65.049014 93.759996C 45.346014 91.095996 31.534014 72.963996 34.198014 53.260996C 34.803014 48.779996 36.210014 44.601996 38.253014 40.854996L 17.495014 24.783996L 13.147014 30.407996Z"></path></g></g></g><g id="g-root-5.Vector_sy_23zo37jdfyl-fill" data-item-order="-109286" transform="translate(183.0001220703125, 199.906982421875)"><g id="5.Vector_sy_23zo37jdfyl-fill" stroke="none" fill="url(#gradient-795ee2-184371946)"><g><path d="M 102.705863 30.424987L 105.873863 11.678987L 86.946863 9.999987L 91.332863 15.684987L 70.707863 31.616987L 70.536863 31.739987C 62.915863 24.652987 52.298863 20.909987 41.180863 22.412987C 21.477863 25.076987 7.664863 43.208987 10.328863 62.911987C 12.992863 82.614987 31.124863 96.427987 50.827863 93.763987C 70.530863 91.099987 84.343863 72.967987 81.679863 53.264987C 81.071863 48.769987 79.658863 44.581987 77.605863 40.825987L 77.713863 40.748987L 98.363863 24.796987L 102.705863 30.424987Z"></path></g></g></g><g id="g-root-4.Vector_sy_1unejir7jdgjq-fill" data-item-order="-109282" transform="translate(437.36199951171875, 110)"><g id="4.Vector_sy_1unejir7jdgjq-fill" stroke="none" fill="url(#gradient-92c031-119406507)"><g><path d="M 23.966 58.893L 10 46L 23.966 33.108L 23.966 40.284L 50.089 40.284C 52.828 23.118 67.701 10 85.638 10C 105.52 10 121.638 26.118 121.638 46C 121.638 65.882 105.52 82 85.638 82C 67.726 82 52.869 68.918 50.101 51.788L 23.966 51.788L 23.966 58.893Z"></path></g></g></g><g id="g-root-3.Vector_sy_1lrrj9v7jdhcf-fill" data-item-order="-109278" transform="translate(153, 110)"><g id="3.Vector_sy_1lrrj9v7jdhcf-fill" stroke="none" fill="url(#gradient-17afe2-38714328)"><g><path d="M 107.735 58.892L 121.701 46L 107.735 33.107L 107.735 40.284L 81.549 40.284C 78.81 23.118 63.937 10 46 10C 26.118 10 10 26.118 10 46C 10 65.882 26.118 82 46 82C 63.912 82 78.769 68.918 81.537 51.787L 107.735 51.787L 107.735 58.892Z"></path></g></g></g><g id="g-root-2.Vector_sy_1hby15f7jdi4o-fill" data-item-order="-109274" transform="translate(423.1209716796875, 8)"><g id="2.Vector_sy_1hby15f7jdi4o-fill" stroke="none" fill="url(#gradient-3bc382-226276808)"><g><path d="M 28.925998 94.116L 9.999998 92.435L 13.168998 73.69L 17.553998 79.375L 38.171998 63.451L 38.310998 63.336C 36.236998 59.562 34.810998 55.349 34.199998 50.825C 31.536998 31.122 45.350998 12.991 65.053998 10.3285C 84.757998 7.666 102.888998 21.48 105.550998 41.183C 108.213998 60.887 94.398998 79.017 74.695998 81.68C 63.603998 83.179 53.009998 79.456 45.393998 72.4L 45.209998 72.557L 24.583998 88.487L 28.925998 94.116Z"></path></g></g></g><g id="g-root-1.Vector_sy_1cwr0437jdfr5-fill" data-item-order="-109270" transform="translate(183.0001220703125, 7.999053955078125)"><g id="1.Vector_sy_1cwr0437jdfr5-fill" stroke="none" fill="url(#gradient-e05e5a-419626624)"><g><path d="M 86.975863 94.101954L 105.903863 92.443954L 102.756863 73.694954L 98.364863 79.374954L 77.737863 63.404954L 77.594863 63.287954C 79.653863 59.526954 81.070863 55.330954 81.679863 50.827954C 84.343863 31.124954 70.530863 12.992754 50.827863 10.328854C 31.124863 7.664854 12.992863 21.477954 10.328863 41.180954C 7.664863 60.883954 21.477863 79.015954 41.180863 81.679954C 52.288863 83.181954 62.897863 79.445954 70.517863 72.369954L 70.695863 72.508954L 91.323863 88.478954L 86.975863 94.101954Z"></path></g></g></g><g id="g-root-0.cr-big_cr_1413zv77jdgju-fill" data-item-order="-109266" transform="translate(279, 74)"><defs><linearGradient id="gradient-dc8433-135949021" x2="0" y2="1"><stop offset="0" stop-color="#F99539"></stop><stop offset="1" stop-color="#be722c"></stop></linearGradient><linearGradient id="gradient-795ee2-184371946" x2="0" y2="1"><stop offset="0" stop-color="#886AFF"></stop><stop offset="1" stop-color="#6952c4"></stop></linearGradient><linearGradient id="gradient-92c031-119406507" x2="0" y2="1"><stop offset="0" stop-color="#A8DD38"></stop><stop offset="1" stop-color="#7ba229"></stop></linearGradient><linearGradient id="gradient-17afe2-38714328" x2="0" y2="1"><stop offset="0" stop-color="#1AC6FF"></stop><stop offset="1" stop-color="#1498c4"></stop></linearGradient><linearGradient id="gradient-3bc382-226276808" x2="0" y2="1"><stop offset="0" stop-color="#44E095"></stop><stop offset="1" stop-color="#32a56e"></stop></linearGradient><linearGradient id="gradient-e05e5a-419626624" x2="0" y2="1"><stop offset="0" stop-color="#FD6A65"></stop><stop offset="1" stop-color="#c2514e"></stop></linearGradient><linearGradient id="gradient-878787-155498943" x2="0" y2="1"><stop offset="0" stop-color="#A3A3A3"></stop><stop offset="1" stop-color="#6a6a6a"></stop></linearGradient></defs><g id="0.cr-big_cr_1413zv77jdgju-fill" stroke="none" fill="url(#gradient-878787-155498943)"><g><path d="M 10 82C 10.000001 121.764503 42.235499 154.000001 82.000001 154.000001C 121.764503 154.000001 154.000001 121.764503 154.000001 82.000001C 154.000001 42.235499 121.764503 10.000001 82.000001 10.000001C 42.235499 10.000001 10.000001 42.235499 10.000001 82.000001"></path></g></g></g><g id="g-root-serv_8x4sb77jj4lj-fill" data-item-order="0" transform="translate(195, 20)"></g><g id="g-root-tx_ddosprot_i09kr77j6g3x-fill" data-item-order="0" transform="translate(15, 32)"><g id="tx_ddosprot_i09kr77j6g3x-fill" stroke="none" fill="#A3A3A3"><g><text style="font: 20px Roboto, sans-serif; white-space: pre;" font-size="20px" font-family="Roboto, sans-serif"><tspan x="17.52" y="34" dominant-baseline="ideographic">DDoS Protection</tspan></text></g></g></g><g id="g-root-1_1ha2vdf7j6ghs-fill" data-item-order="0" transform="translate(458.9840087890625, 20)"></g><g id="g-root-tx_sslinteg_qvwl037j6fb8-fill" data-item-order="0" transform="translate(531, 32)"><g id="tx_sslinteg_qvwl037j6fb8-fill" stroke="none" fill="#A3A3A3"><g><text style="font: 20px Roboto, sans-serif; white-space: pre;" font-size="20px" font-family="Roboto, sans-serif"><tspan x="12" y="34" dominant-baseline="ideographic">SSL Integration</tspan></text></g></g></g><g id="g-root-tx_intellig_18mk4er7j6g3u-fill" data-item-order="0" transform="translate(45, 122)"><g id="tx_intellig_18mk4er7j6g3u-fill" stroke="none" fill="#A3A3A3"><g><text style="font: 20px Roboto, sans-serif; white-space: pre;" font-size="20px" font-family="Roboto, sans-serif"><tspan x="16.44" y="34" dominant-baseline="ideographic">Intelligent </tspan><tspan x="31.5" y="58" dominant-baseline="ideographic">Caching</tspan></text></g></g></g><g id="g-root-serv_1unepub7j98ug-fill" data-item-order="0" transform="translate(165, 122)"></g><g id="g-root-shie_7qm377j6gau-fill" data-item-order="0" transform="translate(315, 110)"></g><g id="g-root-supp_zko6z77j27sx-fill" data-item-order="0" transform="translate(488.9990234375, 122)"></g><g id="g-root-tx_customer_1hi74nn7j6fb5-fill" data-item-order="0" transform="translate(561, 122)"><g id="tx_customer_1hi74nn7j6fb5-fill" stroke="none" fill="#A3A3A3"><g><text style="font: 20px Roboto, sans-serif; white-space: pre;" font-size="20px" font-family="Roboto, sans-serif"><tspan x="12" y="34" dominant-baseline="ideographic">Customer </tspan><tspan x="12" y="58" dominant-baseline="ideographic">Support</tspan></text></g></g></g><g id="g-root-tx_globalne_1lxe5oz7j6hoo-fill" data-item-order="0" transform="translate(27, 236)"><g id="tx_globalne_1lxe5oz7j6hoo-fill" stroke="none" fill="#A3A3A3"><g><text style="font: 20px Roboto, sans-serif; white-space: pre;" font-size="20px" font-family="Roboto, sans-serif"><tspan x="15.48" y="34" dominant-baseline="ideographic">Global Network</tspan></text></g></g></g><g id="g-root-3_1hgy05v7ixzws-fill" data-item-order="0" transform="translate(195, 224)"></g><g id="g-root-scre_v4nn7jdfyi-fill" data-item-order="0" transform="translate(458.9840087890625, 224)"></g><g id="g-root-tx_customiz_1qd7ntf7j6gwf-fill" data-item-order="0" transform="translate(531, 236)"><g id="tx_customiz_1qd7ntf7j6gwf-fill" stroke="none" fill="#A3A3A3"><g><text style="font: 20px Roboto, sans-serif; white-space: pre;" font-size="20px" font-family="Roboto, sans-serif"><tspan x="12" y="34" dominant-baseline="ideographic">Customization</tspan></text></g></g></g><g id="g-root-6.Vector_sy_dcy0yb7jdhjg-stroke" data-item-order="-109290" transform="translate(423.12298583984375, 199.9100341796875)"><g id="6.Vector_sy_dcy0yb7jdhjg-stroke" fill="none" stroke-linecap="round" stroke-linejoin="round" stroke-miterlimit="4" stroke="#ffffff" stroke-width="2"><g><path d="M 13.147014 30.407996L 10.000014 11.658996L 28.928014 9.999996L 24.536014 15.679996L 45.127014 31.620996L 45.303014 31.770996C 52.926014 24.661996 63.560014 20.903996 74.696014 22.408996C 94.399014 25.072996 108.212014 43.204996 105.548014 62.907996C 102.884014 82.610996 84.752014 96.423996 65.049014 93.759996C 45.346014 91.095996 31.534014 72.963996 34.198014 53.260996C 34.803014 48.779996 36.210014 44.601996 38.253014 40.854996L 17.495014 24.783996L 13.147014 30.407996Z"></path></g></g></g><g id="g-root-5.Vector_sy_23zo37jdfyl-stroke" data-item-order="-109286" transform="translate(183.0001220703125, 199.906982421875)"><g id="5.Vector_sy_23zo37jdfyl-stroke" fill="none" stroke-linecap="round" stroke-linejoin="round" stroke-miterlimit="4" stroke="#ffffff" stroke-width="2"><g><path d="M 102.705863 30.424987L 105.873863 11.678987L 86.946863 9.999987L 91.332863 15.684987L 70.707863 31.616987L 70.536863 31.739987C 62.915863 24.652987 52.298863 20.909987 41.180863 22.412987C 21.477863 25.076987 7.664863 43.208987 10.328863 62.911987C 12.992863 82.614987 31.124863 96.427987 50.827863 93.763987C 70.530863 91.099987 84.343863 72.967987 81.679863 53.264987C 81.071863 48.769987 79.658863 44.581987 77.605863 40.825987L 77.713863 40.748987L 98.363863 24.796987L 102.705863 30.424987Z"></path></g></g></g><g id="g-root-4.Vector_sy_1unejir7jdgjq-stroke" data-item-order="-109282" transform="translate(437.36199951171875, 110)"><g id="4.Vector_sy_1unejir7jdgjq-stroke" fill="none" stroke-linecap="round" stroke-linejoin="round" stroke-miterlimit="4" stroke="#ffffff" stroke-width="2"><g><path d="M 23.966 58.893L 10 46L 23.966 33.108L 23.966 40.284L 50.089 40.284C 52.828 23.118 67.701 10 85.638 10C 105.52 10 121.638 26.118 121.638 46C 121.638 65.882 105.52 82 85.638 82C 67.726 82 52.869 68.918 50.101 51.788L 23.966 51.788L 23.966 58.893Z"></path></g></g></g><g id="g-root-3.Vector_sy_1lrrj9v7jdhcf-stroke" data-item-order="-109278" transform="translate(153, 110)"><g id="3.Vector_sy_1lrrj9v7jdhcf-stroke" fill="none" stroke-linecap="round" stroke-linejoin="round" stroke-miterlimit="4" stroke="#ffffff" stroke-width="2"><g><path d="M 107.735 58.892L 121.701 46L 107.735 33.107L 107.735 40.284L 81.549 40.284C 78.81 23.118 63.937 10 46 10C 26.118 10 10 26.118 10 46C 10 65.882 26.118 82 46 82C 63.912 82 78.769 68.918 81.537 51.787L 107.735 51.787L 107.735 58.892Z"></path></g></g></g><g id="g-root-2.Vector_sy_1hby15f7jdi4o-stroke" data-item-order="-109274" transform="translate(423.1209716796875, 8)"><g id="2.Vector_sy_1hby15f7jdi4o-stroke" fill="none" stroke-linecap="round" stroke-linejoin="round" stroke-miterlimit="4" stroke="#ffffff" stroke-width="2"><g><path d="M 28.925998 94.116L 9.999998 92.435L 13.168998 73.69L 17.553998 79.375L 38.171998 63.451L 38.310998 63.336C 36.236998 59.562 34.810998 55.349 34.199998 50.825C 31.536998 31.122 45.350998 12.991 65.053998 10.3285C 84.757998 7.666 102.888998 21.48 105.550998 41.183C 108.213998 60.887 94.398998 79.017 74.695998 81.68C 63.603998 83.179 53.009998 79.456 45.393998 72.4L 45.209998 72.557L 24.583998 88.487L 28.925998 94.116Z"></path></g></g></g><g id="g-root-1.Vector_sy_1cwr0437jdfr5-stroke" data-item-order="-109270" transform="translate(183.0001220703125, 7.999053955078125)"><g id="1.Vector_sy_1cwr0437jdfr5-stroke" fill="none" stroke-linecap="round" stroke-linejoin="round" stroke-miterlimit="4" stroke="#ffffff" stroke-width="2"><g><path d="M 86.975863 94.101954L 105.903863 92.443954L 102.756863 73.694954L 98.364863 79.374954L 77.737863 63.404954L 77.594863 63.287954C 79.653863 59.526954 81.070863 55.330954 81.679863 50.827954C 84.343863 31.124954 70.530863 12.992754 50.827863 10.328854C 31.124863 7.664854 12.992863 21.477954 10.328863 41.180954C 7.664863 60.883954 21.477863 79.015954 41.180863 81.679954C 52.288863 83.181954 62.897863 79.445954 70.517863 72.369954L 70.695863 72.508954L 91.323863 88.478954L 86.975863 94.101954Z"></path></g></g></g><g id="g-root-0.cr-big_cr_1413zv77jdgju-stroke" data-item-order="-109266" transform="translate(279, 74)"><g id="0.cr-big_cr_1413zv77jdgju-stroke" fill="none" stroke-linecap="round" stroke-linejoin="round" stroke-miterlimit="4" stroke="#ffffff" stroke-width="2"><g><path d="M 10 82C 10.000001 121.764503 42.235499 154.000001 82.000001 154.000001C 121.764503 154.000001 154.000001 121.764503 154.000001 82.000001C 154.000001 42.235499 121.764503 10.000001 82.000001 10.000001C 42.235499 10.000001 10.000001 42.235499 10.000001 82.000001"></path></g></g></g><g id="g-root-serv_8x4sb77jj4lj-stroke" data-item-order="0" transform="translate(195, 20)"><g id="serv_8x4sb77jj4lj-stroke" fill="none" stroke-linecap="round" stroke-linejoin="round" stroke-miterlimit="4" stroke="#FFFFFF" stroke-width="2"><g><path d="M 35 36C 35 38.761425 39.92487 41 46 41C 52.075134 41 57 38.761425 57 36C 57 33.238579 52.075134 31 46 31C 39.92487 31 35 33.238579 35 36M 57 44C 57 46.764 52.074001 49 46 49C 39.926003 49 35 46.764 35 44M 35 36L 35 52C 35 54.764 39.926003 57 46 57C 52.074001 57 57 54.764 57 52L 57 36M 27.16 19.17C 25.771923 20.558596 25.771923 22.809402 27.16 24.197998L 30.931999 27.968C 32.320351 29.356438 34.571461 29.356251 35.959579 27.967581C 37.347698 26.578909 37.346992 24.327797 35.958 22.939999L 32.188 19.17C 30.799402 17.781925 28.548595 17.781925 27.16 19.169998ZM 27.16 19.17L 22.762001 19.798L 18.992001 16.028L 22.889999 14.9L 24.018 11L 27.790001 14.77L 27.16 19.17ZM 19.17 33.169998C 17.781925 34.558594 17.781925 36.809402 19.169998 38.197998L 22.939999 41.968002C 23.832148 42.895401 25.155735 43.26844 26.400869 42.943413C 27.646006 42.618382 28.618383 41.646004 28.943413 40.400871C 29.268442 39.155731 28.895403 37.832146 27.967999 36.939999L 24.200001 33.169998C 22.811174 31.78059 20.558825 31.78059 19.169998 33.169998ZM 19.17 33.169998L 14.77 33.798L 11 30.028L 14.9 28.9L 16.028 25L 19.798 28.77L 19.17 33.169998Z"></path></g></g></g><g id="g-root-tx_ddosprot_i09kr77j6g3x-stroke" data-item-order="0" transform="translate(15, 32)"></g><g id="g-root-1_1ha2vdf7j6ghs-stroke" data-item-order="0" transform="translate(458.9840087890625, 20)"><g id="1_1ha2vdf7j6ghs-stroke" fill="none" stroke-linecap="round" stroke-linejoin="round" stroke-miterlimit="4" stroke="#FFFFFF" stroke-width="2"><g><path d="M 57 55C 57 56.104568 56.104568 57 55 57L 41 57C 39.895432 57 39 56.104568 39 55L 39 43C 39 41.895432 39.895432 41 41 41L 55 41C 56.104568 41 57 41.895432 57 43ZM 45.5 49.125999C 45.5 50.506714 46.619289 51.625999 48 51.625999C 49.380711 51.625999 50.5 50.506714 50.5 49.125999C 50.5 47.745289 49.380711 46.625999 48 46.625999C 46.619289 46.625999 45.5 47.745289 45.5 49.125999ZM 53 38C 53 35.238579 50.761425 33 48 33C 45.238575 33 43 35.238579 43 38L 43 41L 53 41ZM 21 51L 33 51M 27.002001 41L 27.002001 51M 16.5 50C 16.223858 50 16 50.223858 16 50.5C 16 50.776142 16.223858 51 16.5 51C 16.776142 51 17 50.776142 17 50.5C 17 50.223858 16.776142 50 16.5 50L 16.5 50M 11.5 50C 11.223858 50 11 50.223858 11 50.5C 11 50.776142 11.223858 51 11.5 51C 11.776142 51 12 50.776142 12 50.5C 12 50.223858 11.776142 50 11.5 50L 11.5 50M 18.5 35.5C 18.223858 35.5 18 35.723858 18 36C 18 36.276142 18.223858 36.5 18.5 36.5C 18.776142 36.5 19 36.276142 19 36C 19 35.723858 18.776142 35.5 18.5 35.5L 18.5 35.5M 23.5 35.5C 23.223858 35.5 23 35.723858 23 36C 23 36.276142 23.223858 36.5 23.5 36.5C 23.776142 36.5 24 36.276142 24 36C 24 35.723858 23.776142 35.5 23.5 35.5L 23.5 35.5M 35 31L 16 31C 13.238577 31 11 33.238579 11 36C 11 38.761425 13.238577 41 16 41L 35 41M 18.5 15.5C 18.223858 15.5 18 15.723858 18 16C 18 16.276142 18.223858 16.5 18.5 16.5C 18.776142 16.5 19 16.276142 19 16C 19 15.723858 18.776142 15.5 18.5 15.5L 18.5 15.5M 23.5 15.5C 23.223858 15.5 23 15.723858 23 16C 23 16.276142 23.223858 16.5 23.5 16.5C 23.776142 16.5 24 16.276142 24 16C 24 15.723858 23.776142 15.5 23.5 15.5L 23.5 15.5M 45 16C 45 13.238576 42.761425 11 40 11L 16 11C 13.238577 11 11 13.238577 11 16C 11 18.761425 13.238577 21 16 21L 40 21C 42.761425 21 45 18.761425 45 16ZM 18.5 25.5C 18.223858 25.5 18 25.723858 18 26C 18 26.276142 18.223858 26.5 18.5 26.5C 18.776142 26.5 19 26.276142 19 26C 19 25.723858 18.776142 25.5 18.5 25.5L 18.5 25.5M 23.5 25.5C 23.223858 25.5 23 25.723858 23 26C 23 26.276142 23.223858 26.5 23.5 26.5C 23.776142 26.5 24 26.276142 24 26C 24 25.723858 23.776142 25.5 23.5 25.5L 23.5 25.5M 45 26C 45 23.238577 42.761425 21 40 21L 16 21C 13.238577 21 11 23.238577 11 26C 11 28.761423 13.238577 31 16 31L 40 31C 42.761425 31 45 28.761423 45 26Z"></path></g></g></g><g id="g-root-tx_sslinteg_qvwl037j6fb8-stroke" data-item-order="0" transform="translate(531, 32)"></g><g id="g-root-tx_intellig_18mk4er7j6g3u-stroke" data-item-order="0" transform="translate(45, 122)"></g><g id="g-root-serv_1unepub7j98ug-stroke" data-item-order="0" transform="translate(165, 122)"><g id="serv_1unepub7j98ug-stroke" fill="none" stroke-linecap="round" stroke-linejoin="round" stroke-miterlimit="4" stroke="#FFFFFF" stroke-width="2"><g><path d="M 51 23.854C 50.966511 21.881111 50.131657 20.006788 48.687508 18.662231C 47.243355 17.317677 45.314247 16.618662 43.343998 16.726C 41.574951 13.192698 37.951328 10.972141 34 11C 28.620384 10.922284 24.105413 15.036353 23.684 20.4C 22.078552 20.044861 20.398424 20.42691 19.104412 21.441368C 17.810402 22.455822 17.038349 23.996189 17 25.639999C 17 31.084 22.911999 31 22.911999 31L 44.348 31C 44.348 31 51 30.158001 51 23.854ZM 23.5 51.498001C 23.224117 51.498001 23.00037 51.721455 23.000004 51.997337C 22.999638 52.273216 23.222792 52.497265 23.498672 52.497997C 23.774551 52.498734 23.998898 52.275879 24 52C 24.000534 51.867226 23.948027 51.739738 23.854143 51.645855C 23.760258 51.551971 23.632771 51.499466 23.5 51.5L 23.5 51.5M 28.5 51.498001C 28.224119 51.498001 28.00037 51.721455 28.000004 51.997337C 27.999638 52.273216 28.222792 52.497265 28.498672 52.497997C 28.774553 52.498734 28.998896 52.275879 29 52C 29.000534 51.867226 28.948027 51.739738 28.854143 51.645855C 28.760258 51.551971 28.632771 51.499466 28.5 51.5L 28.5 51.5M 51 54C 51 55.656857 49.656857 57 48 57L 20 57C 18.343147 57 17 55.656857 17 54L 17 50C 17 48.343147 18.343147 47 20 47L 48 47C 49.656857 47 51 48.343147 51 50ZM 23.5 41.498001C 23.224117 41.498001 23.00037 41.721455 23.000004 41.997337C 22.999638 42.273216 23.222792 42.497265 23.498672 42.497997C 23.774551 42.498734 23.998898 42.275879 24 42C 24.000534 41.867226 23.948027 41.739738 23.854143 41.645855C 23.760258 41.551971 23.632771 41.499466 23.5 41.5L 23.5 41.5M 28.5 41.498001C 28.224119 41.498001 28.00037 41.721455 28.000004 41.997337C 27.999638 42.273216 28.222792 42.497265 28.498672 42.497997C 28.774553 42.498734 28.998896 42.275879 29 42C 29.000534 41.867226 28.948027 41.739738 28.854143 41.645855C 28.760258 41.551971 28.632771 41.499466 28.5 41.5L 28.5 41.5M 51 44C 51 45.656857 49.656857 47 48 47L 20 47C 18.343147 47 17 45.656857 17 44L 17 40C 17 38.343147 18.343147 37 20 37L 48 37C 49.656857 37 51 38.343147 51 40Z"></path></g></g></g><g id="g-root-shie_7qm377j6gau-stroke" data-item-order="0" transform="translate(315, 110)"><g id="shie_7qm377j6gau-stroke" fill="none" stroke-linecap="round" stroke-linejoin="round" stroke-miterlimit="4" stroke="#FFFFFF" stroke-width="2"><g><path d="M 15.694 62.497002L 38.5 62.497002M 17.535999 26.497L 74.487999 26.497M 38.5 44.5L 11.533 44.496998M 44.134003 80.448997C 26.133202 79.45298 11.934348 64.765282 11.54797 46.741089C 11.161592 28.716896 24.717979 13.434219 42.659561 11.667711C 60.601139 9.901204 76.877754 22.246555 80.014008 40M 43.806999 11.575C 25.806999 31.075001 26.133999 56.448997 44.134003 80.448997M 48.189999 11.575C 54.91655 18.578293 59.380058 27.443644 61.000008 37.018002M 62.5 50.5L 62.5 68.5M 71.5 59.5L 53.5 59.5M 64.104996 80.199997L 65.764 79.57C 73.653999 76.57 80.5 68.998001 80.5 60.556L 80.5 50.368C 80.500557 49.120247 79.760422 47.991188 78.615997 47.493999C 73.437973 45.558899 67.961594 44.543625 62.434002 44.494003C 56.949059 44.540844 51.515537 45.556458 46.383999 47.493996C 45.239578 47.991188 44.499447 49.120247 44.5 50.368L 44.5 60.547005C 44.5 68.988998 51.214001 76.555 59.104 79.561005L 60.763 80.190994C 61.837975 80.604927 63.027809 80.608131 64.104996 80.199997Z"></path></g></g></g><g id="g-root-supp_zko6z77j27sx-stroke" data-item-order="0" transform="translate(488.9990234375, 122)"><g id="supp_zko6z77j27sx-stroke" fill="none" stroke-linecap="round" stroke-linejoin="round" stroke-miterlimit="4" stroke="#FFFFFF" stroke-width="2"><g><path d="M 42 53L 44 53C 47.868 53 51 50.866001 51 47L 51 42.66M 49 27C 52.898228 26.99724 56.230907 29.804611 56.890362 33.646652C 57.549816 37.488701 55.344028 41.2467 51.667999 42.543999C 51.055973 42.760872 50.376751 42.66713 49.846344 42.292587C 49.315941 41.918041 49.000374 41.309319 49 40.66ZM 19 27C 15.101772 26.99724 11.769094 29.804611 11.109638 33.646652C 10.450183 37.488701 12.65597 41.2467 16.332001 42.543999C 16.944029 42.760872 17.623249 42.66713 18.153656 42.292587C 18.684059 41.918041 18.999628 41.309319 19 40.66ZM 49 30L 49 26C 49 17.715729 42.284271 11.000001 34 11.000001C 25.715729 11.000001 19 17.715729 19 26L 19 30M 33 51L 41 51C 41.552284 51 42 51.447716 42 52L 42 54C 42 54.552284 41.552284 55 41 55L 33 55C 31.89543 55 31 54.104568 31 53L 31 53C 31 51.895432 31.89543 51 33 51Z"></path></g></g></g><g id="g-root-tx_customer_1hi74nn7j6fb5-stroke" data-item-order="0" transform="translate(561, 122)"></g><g id="g-root-tx_globalne_1lxe5oz7j6hoo-stroke" data-item-order="0" transform="translate(27, 236)"></g><g id="g-root-3_1hgy05v7ixzws-stroke" data-item-order="0" transform="translate(195, 224)"><g id="3_1hgy05v7ixzws-stroke" fill="none" stroke-linecap="round" stroke-linejoin="round" stroke-miterlimit="4" stroke="#FFFFFF" stroke-width="2"><g><path d="M 57 33.882C 57.006626 46.626522 46.680523 56.963371 33.935997 56.969997C 21.136688 56.757435 10.900542 46.268688 11 33.467999C 11.010239 21.241167 20.785971 11.262015 33.010002 11C 33.341999 10.986 33.674 10.98 34.010002 10.98C 40.102139 10.946955 45.955585 13.346396 50.271698 17.645985C 54.587807 21.945574 57.009678 27.789776 56.999996 33.881996ZM 33.010002 11C 21.01 24 21.01 40.959999 33.010002 56.959999M 35.010002 11C 47.009998 24 47.009998 40.954002 35.010002 56.953999M 14.771999 20.968L 53.040001 20.968M 11.006001 32.968002L 57 32.968002M 13.97 44.967999L 54.169998 44.967999"></path></g></g></g><g id="g-root-scre_v4nn7jdfyi-stroke" data-item-order="0" transform="translate(458.9840087890625, 224)"><g id="scre_v4nn7jdfyi-stroke" fill="none" stroke-linecap="round" stroke-linejoin="round" stroke-miterlimit="4" stroke="#FFFFFF" stroke-width="2"><g><path d="M 16.119999 56.119999C 14.937962 57.221439 13.095961 57.188938 11.953511 56.04649C 10.811062 54.904041 10.778563 53.062038 11.88 51.880001L 25.02 38.739998L 29.26 42.98ZM 22.9 36.620003L 31.379999 45.099998M 47.02 21.02L 27.139999 40.860001M 51.419998 22.200001C 51.068813 22.658644 50.536472 22.943045 49.959999 22.98C 49.380432 23.022486 48.811043 22.810791 48.400002 22.4L 45.580002 19.58C 45.163685 19.16428 44.951527 18.58634 45 18C 45.05616 17.409941 45.371151 16.875187 45.860001 16.540001L 53.639999 11.18C 54.039257 10.9041 54.578979 10.9547 54.919998 11.3L 56.700001 13.08C 57.031647 13.457506 57.031647 14.022493 56.700001 14.4ZM 36 32L 26.299999 22.299999C 26.757864 21.259869 26.996166 20.136442 27 19C 27 14.581722 23.418278 11 19 11C 18.44952 11.001686 17.900425 11.055256 17.360001 11.16C 16.996407 11.234242 16.703827 11.503725 16.6 11.86C 16.498936 12.215818 16.598423 12.598468 16.860001 12.86L 19.700001 15.7C 19.895317 15.888151 20.003933 16.148829 20 16.42L 20 19C 20 19.552284 19.552284 20 19 20L 16.42 20C 16.148829 20.003933 15.888151 19.895317 15.700001 19.700001L 12.86 16.860001C 12.598468 16.598423 12.215818 16.498936 11.86 16.6C 11.508425 16.711309 11.242086 17.000477 11.16 17.360001C 11.055256 17.900425 11.001686 18.44952 11 19C 11 23.418278 14.581722 27 19 27C 20.136442 26.996166 21.259869 26.757864 22.299999 26.300001L 32 36M 39.120003 35.120003L 45.700001 41.700001C 46.740135 41.242138 47.86356 41.003838 49.000004 41C 53.418278 41 57 44.581722 57 49C 56.998314 49.55048 56.944744 50.099575 56.84 50.639999C 56.765759 51.003593 56.496273 51.296173 56.139999 51.400002C 55.78418 51.501064 55.401531 51.401577 55.139999 51.139999L 52.299999 48.299999C 52.111851 48.104683 51.851173 47.996067 51.580002 48L 49 48C 48.447716 48 48 48.447716 48 49L 48 51.580002C 47.996067 51.851173 48.104683 52.111851 48.299999 52.299999L 51.139999 55.139999C 51.401577 55.401531 51.501064 55.78418 51.399998 56.139999C 51.288689 56.491573 50.999519 56.757912 50.639996 56.839996C 50.099575 56.944744 49.55048 56.998314 49 57C 44.581722 57 41 53.418278 41 49C 41.003838 47.86356 41.242138 46.740135 41.700001 45.700001L 35.099998 39.099998"></path></g></g></g><g id="g-root-tx_customiz_1qd7ntf7j6gwf-stroke" data-item-order="0" transform="translate(531, 236)"></g></g></g></svg>