<?xml version="1.0" encoding="utf-8" standalone="yes"?>
<!DOCTYPE svg PUBLIC "-//W3C//DTD SVG 1.1//EN" "http://www.w3.org/Graphics/SVG/1.1/DTD/svg11.dtd">
<svg width="770" height="158" viewBox="0 0 770 158" style="fill:none;stroke:none;fill-rule:evenodd;clip-rule:evenodd;stroke-linecap:round;stroke-linejoin:round;stroke-miterlimit:1.5;" version="1.1" xmlns="http://www.w3.org/2000/svg" xmlns:xlink="http://www.w3.org/1999/xlink"><style id="fontImports">@import url("https://fonts.googleapis.com/css2?family=Roboto:wght@400;700&amp;display=block");</style><g id="items" style="isolation: isolate"><g id="blend" style="mix-blend-mode:normal"><g id="g-root-1.cr-1_cr_940z5e7sz2f5-fill" data-item-order="999958964" transform="translate(27, 39)"><g id="1.cr-1_cr_940z5e7sz2f5-fill" stroke="none" fill="#714486"><g><path d="M 10 40C 10.000012 56.568566 23.43147 70.000023 40.000012 70.000023C 56.568555 70.000023 70.000012 56.568566 70.000012 40.000023C 70.000012 23.431481 56.568555 10.000023 40.000012 10.000023C 23.43147 10.000023 10.000012 23.431481 10.000012 40.000023"></path></g></g></g><g id="g-root-2.cr-2_cr_90fzm7sz022-fill" data-item-order="999958976" transform="translate(183, 39)"><g id="2.cr-2_cr_90fzm7sz022-fill" stroke="none" fill="#8c5ba3"><g><path d="M 10 40C 10.00002 56.568566 23.431478 70.000023 40.00002 70.000023C 56.568563 70.000023 70.00002 56.568566 70.00002 40.000023C 70.00002 23.431481 56.568563 10.000023 40.00002 10.000023C 23.431478 10.000023 10.00002 23.431481 10.00002 40.000023"></path></g></g></g><g id="g-root-3.cr-3_cr_1uuazua7sz0n7-fill" data-item-order="999958988" transform="translate(339, 39)"><g id="3.cr-3_cr_1uuazua7sz0n7-fill" stroke="none" fill="#a871c1"><g><path d="M 10 40C 10.000028 56.568566 23.431486 70.000023 40.000028 70.000023C 56.568571 70.000023 70.000028 56.568566 70.000028 40.000023C 70.000028 23.431481 56.568571 10.000023 40.000028 10.000023C 23.431486 10.000023 10.000028 23.431481 10.000028 40.000023"></path></g></g></g><g id="g-root-4.cr-4_cr_1lynzle7sz1fw-fill" data-item-order="999959000" transform="translate(495, 39)"><g id="4.cr-4_cr_1lynzle7sz1fw-fill" stroke="none" fill="#c388de"><g><path d="M 10 40C 10.000037 56.568566 23.431494 70.000023 40.000037 70.000023C 56.568579 70.000023 70.000037 56.568566 70.000037 40.000023C 70.000037 23.431481 56.568579 10.000023 40.000037 10.000023C 23.431494 10.000023 10.000037 23.431481 10.000037 40.000023"></path></g></g></g><g id="g-root-5.cr-5_cr_1hiuhgy7sz285-fill" data-item-order="999959012" transform="translate(651, 39)"><g id="5.cr-5_cr_1hiuhgy7sz285-fill" stroke="none" fill="#de9ffb"><g><path d="M 10 40C 10.000045 56.568566 23.431502 70.000023 40.000045 70.000023C 56.568587 70.000023 70.000045 56.568566 70.000045 40.000023C 70.000045 23.431481 56.568587 10.000023 40.000045 10.000023C 23.431502 10.000023 10.000045 23.431481 10.000045 40.000023"></path></g></g></g><g id="g-root-trop_1d15k367t1urs-fill" data-item-order="1000000000" transform="translate(39, 51)"></g><g id="g-root-meda_1cw5rea7t4m4s-fill" data-item-order="1000000000" transform="translate(195, 51)"></g><g id="g-root-hand_1ly1iia7t60ao-fill" data-item-order="1000000000" transform="translate(351, 51)"></g><g id="g-root-buil_4ju5f67t8utg-fill" data-item-order="1000000000" transform="translate(507, 51)"></g><g id="g-root-2_hznzea7t8vt6-fill" data-item-order="1000000000" transform="translate(663, 51)"></g><g id="g-root-tx_benefits_18lc1yq7t1vk1-fill" data-item-order="1000000000" transform="translate(15, 123)"><g id="tx_benefits_18lc1yq7t1vk1-fill" stroke="none" fill="#8e8e8e"><g><text style="font: 20px Arial, Helvetica, sans-serif; white-space: pre;" font-size="20px" font-family="Arial, Helvetica, sans-serif"><tspan x="15.87" y="33" dominant-baseline="ideographic">Benefits</tspan></text></g></g></g><g id="g-root-tx_performa_1cw5rea7t4m4t-fill" data-item-order="1000000000" transform="translate(153, 123)"><g id="tx_performa_1cw5rea7t4m4t-fill" stroke="none" fill="#8e8e8e"><g><text style="font: 20px Roboto, sans-serif; white-space: pre;" font-size="20px" font-family="Roboto, sans-serif"><tspan x="12.19" y="34" dominant-baseline="ideographic">Performance</tspan></text></g></g></g><g id="g-root-tx_easeofus_1d2ei9e7t613d-fill" data-item-order="1000000000" transform="translate(315, 123)"><g id="tx_easeofus_1d2ei9e7t613d-fill" stroke="none" fill="#8e8e8e"><g><text style="font: 20px Roboto, sans-serif; white-space: pre;" font-size="20px" font-family="Roboto, sans-serif"><tspan x="12.33" y="34" dominant-baseline="ideographic">Ease of use</tspan></text></g></g></g><g id="g-root-tx_infrastr_1upb75e7t8vf1-fill" data-item-order="1000000000" transform="translate(459, 123)"><g id="tx_infrastr_1upb75e7t8vf1-fill" stroke="none" fill="#8e8e8e"><g><text style="font: 20px Roboto, sans-serif; white-space: pre;" font-size="20px" font-family="Roboto, sans-serif"><tspan x="15.73" y="34" dominant-baseline="ideographic">Infrastructure</tspan></text></g></g></g><g id="g-root-tx_autoscal_dkgycy7t8tfn-fill" data-item-order="1000000000" transform="translate(621, 123)"><g id="tx_autoscal_dkgycy7t8tfn-fill" stroke="none" fill="#8e8e8e"><g><text style="font: 20px Roboto, sans-serif; white-space: pre;" font-size="20px" font-family="Roboto, sans-serif"><tspan x="17.33" y="34" dominant-baseline="ideographic">Autoscaling</tspan></text></g></g></g><g id="g-root-1.cr-1_cr_940z5e7sz2f5-stroke" data-item-order="999958964" transform="translate(27, 39)"><g id="1.cr-1_cr_940z5e7sz2f5-stroke" fill="none" stroke-linecap="round" stroke-linejoin="round" stroke-miterlimit="4" stroke="#2C2C2C" stroke-width="2"><g><path d="M 10 40C 10.000012 56.568566 23.43147 70.000023 40.000012 70.000023C 56.568555 70.000023 70.000012 56.568566 70.000012 40.000023C 70.000012 23.431481 56.568555 10.000023 40.000012 10.000023C 23.43147 10.000023 10.000012 23.431481 10.000012 40.000023"></path></g></g></g><g id="g-root-2.cr-2_cr_90fzm7sz022-stroke" data-item-order="999958976" transform="translate(183, 39)"><g id="2.cr-2_cr_90fzm7sz022-stroke" fill="none" stroke-linecap="round" stroke-linejoin="round" stroke-miterlimit="4" stroke="#2C2C2C" stroke-width="2"><g><path d="M 10 40C 10.00002 56.568566 23.431478 70.000023 40.00002 70.000023C 56.568563 70.000023 70.00002 56.568566 70.00002 40.000023C 70.00002 23.431481 56.568563 10.000023 40.00002 10.000023C 23.431478 10.000023 10.00002 23.431481 10.00002 40.000023"></path></g></g></g><g id="g-root-3.cr-3_cr_1uuazua7sz0n7-stroke" data-item-order="999958988" transform="translate(339, 39)"><g id="3.cr-3_cr_1uuazua7sz0n7-stroke" fill="none" stroke-linecap="round" stroke-linejoin="round" stroke-miterlimit="4" stroke="#2C2C2C" stroke-width="2"><g><path d="M 10 40C 10.000028 56.568566 23.431486 70.000023 40.000028 70.000023C 56.568571 70.000023 70.000028 56.568566 70.000028 40.000023C 70.000028 23.431481 56.568571 10.000023 40.000028 10.000023C 23.431486 10.000023 10.000028 23.431481 10.000028 40.000023"></path></g></g></g><g id="g-root-4.cr-4_cr_1lynzle7sz1fw-stroke" data-item-order="999959000" transform="translate(495, 39)"><g id="4.cr-4_cr_1lynzle7sz1fw-stroke" fill="none" stroke-linecap="round" stroke-linejoin="round" stroke-miterlimit="4" stroke="#2C2C2C" stroke-width="2"><g><path d="M 10 40C 10.000037 56.568566 23.431494 70.000023 40.000037 70.000023C 56.568579 70.000023 70.000037 56.568566 70.000037 40.000023C 70.000037 23.431481 56.568579 10.000023 40.000037 10.000023C 23.431494 10.000023 10.000037 23.431481 10.000037 40.000023"></path></g></g></g><g id="g-root-5.cr-5_cr_1hiuhgy7sz285-stroke" data-item-order="999959012" transform="translate(651, 39)"><g id="5.cr-5_cr_1hiuhgy7sz285-stroke" fill="none" stroke-linecap="round" stroke-linejoin="round" stroke-miterlimit="4" stroke="#2C2C2C" stroke-width="2"><g><path d="M 10 40C 10.000045 56.568566 23.431502 70.000023 40.000045 70.000023C 56.568587 70.000023 70.000045 56.568566 70.000045 40.000023C 70.000045 23.431481 56.568587 10.000023 40.000045 10.000023C 23.431502 10.000023 10.000045 23.431481 10.000045 40.000023"></path></g></g></g><g id="g-root-trop_1d15k367t1urs-stroke" data-item-order="1000000000" transform="translate(39, 51)"><g id="trop_1d15k367t1urs-stroke" fill="none" stroke-linecap="round" stroke-linejoin="round" stroke-miterlimit="4" stroke="#FFFFFF" stroke-width="2"><g><path d="M 28 31.857143L 28 44.714287M 21.571428 44.714287L 34.42857 44.714287M 19 24.142857C 14.739517 24.142857 11.285714 20.689054 11.285714 16.428572L 11.285714 13.857142L 20.285713 13.857142L 20.285713 24.142857ZM 37 24.142857C 41.260483 24.142857 44.714287 20.689054 44.714287 16.428572L 44.714287 13.857142L 35.714287 13.857142L 35.714287 24.142857ZM 35.714287 24.142857C 35.714287 28.403339 32.260483 31.857143 28 31.857143C 23.739517 31.857143 20.285713 28.403339 20.285713 24.142857L 20.285713 11.285714L 35.714287 11.285714Z"></path></g></g></g><g id="g-root-meda_1cw5rea7t4m4s-stroke" data-item-order="1000000000" transform="translate(195, 51)"><g id="meda_1cw5rea7t4m4s-stroke" fill="none" stroke-linecap="round" stroke-linejoin="round" stroke-miterlimit="4" stroke="#FFFFFF" stroke-width="2"><g><path d="M 17.65 10.75L 38.349998 10.75M 35.063499 17.65L 20.936501 17.65M 25.978001 28.238501L 17.65 10.75L 12.5335 16.6C 11.996415 17.213808 11.962626 18.119894 12.452499 18.771999L 21.549999 30.8995M 30.021999 28.238501L 38.349998 10.75L 43.466499 16.6C 44.003582 17.213808 44.037373 18.119894 43.547497 18.771999L 34.449997 30.8995M 28.862499 40.074997L 28.862499 34.037498C 28.862499 33.710808 28.677921 33.412155 28.385719 33.266056C 28.093519 33.119957 27.743851 33.151482 27.4825 33.3475L 25.412498 34.900002M 27.137501 40.074997L 30.587502 40.074997M 19.375 36.625C 19.375 41.388458 23.236544 45.25 28 45.25C 32.763454 45.25 36.625 41.388458 36.625 36.625C 36.625 31.861544 32.763454 28 28 28C 23.236544 28 19.375 31.861544 19.375 36.625Z"></path></g></g></g><g id="g-root-hand_1ly1iia7t60ao-stroke" data-item-order="1000000000" transform="translate(351, 51)"><g id="hand_1ly1iia7t60ao-stroke" fill="none" stroke-linecap="round" stroke-linejoin="round" stroke-miterlimit="4" stroke="#FFFFFF" stroke-width="2"><g><path d="M 32.937141 27.074286L 26.714285 31.214285L 22.857143 27.357143L 29.285713 19.642857L 35.714287 19.642857L 42.142857 17.071428M 34.762856 33.914288L 42.142857 29.928572M 44.714287 32.5L 42.142857 32.5L 42.142857 15.785714L 44.714287 15.785714M 30.494286 28.694286L 35.714287 35.071426L 22.857143 40.214287L 13.857142 32.5M 13.857142 19.642857L 22.857143 19.642857L 26.148571 23.397142M 11.285714 18.357143L 13.857142 18.357143L 13.857142 33.785713L 11.285714 33.785713"></path></g></g></g><g id="g-root-buil_4ju5f67t8utg-stroke" data-item-order="1000000000" transform="translate(507, 51)"><g id="buil_4ju5f67t8utg-stroke" fill="none" stroke-linecap="round" stroke-linejoin="round" stroke-miterlimit="4" stroke="#FFFFFF" stroke-width="2"><g><path d="M 31.75 45.25L 12.25 45.25C 11.421573 45.25 10.75 44.578426 10.75 43.75L 10.75 12.25C 10.75 11.421573 11.421573 10.75 12.25 10.75L 43.75 10.75C 44.578426 10.75 45.25 11.421573 45.25 12.25L 45.25 36.25M 19.75 18.25C 19.75 16.593145 18.406855 15.25 16.75 15.25C 15.093145 15.25 13.75 16.593145 13.75 18.25L 13.75 23.5C 13.75 23.914213 14.085787 24.25 14.5 24.25L 19 24.25C 19.414213 24.25 19.75 23.914213 19.75 23.5ZM 28.75 18.25C 28.75 16.593145 27.406855 15.25 25.75 15.25C 24.093145 15.25 22.75 16.593145 22.75 18.25L 22.75 23.5C 22.75 23.914213 23.085787 24.25 23.5 24.25L 28 24.25C 28.414213 24.25 28.75 23.914213 28.75 23.5ZM 19.75 33.25C 19.75 31.593145 18.406855 30.25 16.75 30.25C 15.093145 30.25 13.75 31.593145 13.75 33.25L 13.75 38.5C 13.75 38.914215 14.085787 39.25 14.5 39.25L 19 39.25C 19.414213 39.25 19.75 38.914215 19.75 38.5ZM 28.75 33.25C 28.75 31.593145 27.406855 30.25 25.75 30.25C 24.093145 30.25 22.75 31.593145 22.75 33.25L 22.75 38.5C 22.75 38.914215 23.085787 39.25 23.5 39.25L 28 39.25C 28.414213 39.25 28.75 38.914215 28.75 38.5ZM 42.25 36.25L 42.25 27.25C 42.25 25.593145 40.906857 24.25 39.25 24.25L 37.75 24.25C 36.093143 24.25 34.75 25.593145 34.75 27.25L 34.75 36.25M 35.5 17.5C 35.5 19.156855 36.843143 20.5 38.5 20.5C 40.156857 20.5 41.5 19.156855 41.5 17.5C 41.5 15.843145 40.156857 14.5 38.5 14.5C 36.843143 14.5 35.5 15.843145 35.5 17.5ZM 45.25 36.25L 31.75 36.25L 31.75 45.25L 43.75 45.25C 44.578426 45.25 45.25 44.578426 45.25 43.75ZM 31.75 39.25L 45.25 39.25M 31.75 42.25L 45.25 42.25M 31.75 10.75L 31.75 36.25"></path></g></g></g><g id="g-root-2_hznzea7t8vt6-stroke" data-item-order="1000000000" transform="translate(663, 51)"><g id="2_hznzea7t8vt6-stroke" fill="none" stroke-linecap="round" stroke-linejoin="round" stroke-miterlimit="4" stroke="#FFFFFF" stroke-width="2"><g><path d="M 28 39.571426L 28 16.428572M 34.42857 22.857143L 28 16.428572L 21.571428 22.857143M 34.42857 33.142857L 28 39.571426L 21.571428 33.142857M 44.714287 11.285714L 11.285714 11.285714M 44.714287 44.714287L 11.285714 44.714287"></path></g></g></g><g id="g-root-tx_benefits_18lc1yq7t1vk1-stroke" data-item-order="1000000000" transform="translate(15, 123)"></g><g id="g-root-tx_performa_1cw5rea7t4m4t-stroke" data-item-order="1000000000" transform="translate(153, 123)"></g><g id="g-root-tx_easeofus_1d2ei9e7t613d-stroke" data-item-order="1000000000" transform="translate(315, 123)"></g><g id="g-root-tx_infrastr_1upb75e7t8vf1-stroke" data-item-order="1000000000" transform="translate(459, 123)"></g><g id="g-root-tx_autoscal_dkgycy7t8tfn-stroke" data-item-order="1000000000" transform="translate(621, 123)"></g></g></g></svg>