<?xml version="1.0" encoding="UTF-8"?><svg id="Layer_1" xmlns="http://www.w3.org/2000/svg" width="409.36" height="262.16" viewBox="0 0 409.36 262.16"><path d="M409.36,258.16c-1.83,5.35-11.98,3.97-11.98-.4v-69.86c-3.89,3.98-12.07,9.65-13.22,15.13-3.11,14.82,1.77,37.5-.41,53.09-1.06,7.6-10.81,7.69-11.88.8,1.45-16.95-2.14-37.69.02-54.18,1.34-10.21,10.46-17.2,16.7-24.41l-34.74-17.39c-3.36,4.18-10.86,9.19-13.61,13.34-.59.9-1.36,1.47-1.19,2.8v79.03c-1.15,8.18-12.01,7.63-11.97-.71l-.13-79.72-14.19-14.56c-1.23-.55-8.45,5.38-11.39-1.37-2.96-6.82,4.67-7.51,6.05-11.91.7-2.22.94-7.61.51-9.83s-3.71-4.13-5.1-6.08c-6.5-9.04-8.46-17.81-7.76-28.97-.81-2.38-5.65.11-6.32-7.26-3.12-34.44,14.84-52.63,49.17-50.77,28.28,1.53,43.83,23.87,39.44,51.49-.91,5.72-5.65,4.65-6.3,5.27-.36.34.12,8.19-.05,9.93-.5,5.14-2.46,11.3-4.93,15.83-1.39,2.55-7.41,9.03-7.67,9.9-1.36,4.59-.65,11.49,3.56,14.47,11.43,8.11,35.88,13.65,43.26,25.41l4.12,9.85v71.06ZM365.45,89.69c1.37-25.42-14.48-34.49-37.96-32.77-18.13,1.33-28.63,13.81-26.71,31.97,5.59-.78,15.37-11.63,19.55-11.62,2.33,0,11.95,5.39,15.37,6.63,9.45,3.43,19.69,5.36,29.74,5.8ZM307.27,98.58c-.79,11.43-.63,21.93,8.67,29.84,20,17.03,48.73-2.62,42.37-27.2-12.88-1.51-25.49-4.84-37.17-10.45-4.41,2.95-8.59,6.54-13.87,7.82ZM346.28,144.78c-8.93,2.26-17.4,2.49-26.34,0,.04,1.73-1.06,3.41-.83,5.15.19,1.48,12.84,14.14,13.89,13.96,2.08-2.88,12.79-11.16,13.64-13.47.42-1.13-.85-4.05-.36-5.64Z"/><path d="M127.51,257.76c-1.16,5.47-10.79,6.49-11.91-2.47,1.3-25.46-1.95-52.99-.1-78.21,2.5-33.99,32.81-30.7,54.08-44.92,4.14-2.77,4.58-11.17,3.27-15.56-.47-1.57-5.53-5.54-7-7.37-4.58-5.72-8.54-13-10.17-20.17-1.03-4.57-.71-10.91-2.02-14.74-1.06-3.09-4.78-3.5-5.84-10.13C142.6,31.52,163.94,2.31,197.33.22c22.69-1.42,44.18,3.6,56.99,23.73,5.64,8.87,11.74,28.08,4.58,37.04-.76.94-2.66,1.32-2.85,2.1-.75,3.05.31,9.63,0,13.4-.83,10.41-3.06,19.88-8.93,28.6-1.77,2.63-9.76,10.46-10.06,11.49-1.31,4.4-.87,12.79,3.27,15.56,21.27,14.22,51.58,10.94,54.08,44.92,1.86,25.22-1.39,52.74-.1,78.21-1.29,10.33-11.91,6.36-11.91,2.47v-82.64c-1.39-.35-1.6.58-2.4,1.19-3.74,2.87-16.52,15.98-17.38,20.15-2.12,18.31,2.24,41.06-.25,58.83-1.21,8.64-11.08,8.42-11.94,1.71,2.02-19.12-2.64-43.66.23-62.13,1.99-12.79,18.49-21.88,25.3-32.02-1.75-2.72-4.9-3.79-7.64-5.19-10.18-5.22-21.35-9.03-31.79-13.71l-24.43,23.53c-.89.92-.69,2.06-.8,3.19-2.58,26.12,2.65,56.91.04,83.08-1.12,11.21-11.63,11.2-12.75,0-2.63-26.15,2.62-56.96.04-83.08-.11-1.13.09-2.27-.8-3.19l-24.43-23.53c-10.45,4.68-21.62,8.49-31.79,13.71-2.74,1.4-5.89,2.47-7.64,5.19,6.81,10.14,23.31,19.23,25.3,32.02,2.88,18.47-1.78,43.01.23,62.13-.86,6.71-10.73,6.93-11.94-1.71-2.5-17.77,1.86-40.52-.25-58.83-.86-4.16-13.64-17.28-17.38-20.15-.8-.62-1.01-1.54-2.4-1.19v82.64ZM159.45,49.37c-.41,4.47.3,9.44,0,13.97,5.53-.03,12.74-10.8,17.94-4.76,7.35,8.54-10.49,13.28-11.43,16.51-.43,31.08,33.09,51.34,60.03,34.43,14.01-8.79,20.46-27.72,17.3-43.45-.57-.48-1.01.46-1.21.46h-21.56c-7.03,0-20.97-5.14-27.28-8.65-4.83-2.68-18.45-11.06-11.5-17.37,5.34-4.84,10.44,2.51,14.81,5.27,16.47,10.38,35.28,10.02,53.92,7.17.02-18.32-12.2-35.43-30.32-39.55-27.75-6.31-57.81,4.58-60.71,35.96ZM224.91,124.02c-13.32,4.39-26.57,4.4-39.91,0,1.75,3.35-2.31,9.94-2.13,11.59.17,1.56,19.55,19.55,22.38,21.88l21.66-21.47c-1.04-4.18-2.77-7.42-1.99-12Z"/><path d="M12.53,257.76c-1.1,5.12-10.52,5.6-11.81-.17,1.01-17.99-1.99-38.75-.07-56.42,2.23-20.55,21.51-20.96,34.5-30.17,6.27-4.45,3.07-12.62,3.6-19.3-17.56-12.58-20.67-31.58-19.06-52.06,1.13-14.41,8.67-25.87,19.89-34.45-7-43.28,56.45-43.28,48.88,0,19.01,12.7,21.42,32.24,19.92,53.67-.7,9.95-5.72,20.24-12.39,27.53-1.95,2.14-6.27,4.03-6.79,6.79s-.26,11.91.72,14.41c2.45,6.26,15.55,5,11.43,14.51-3.54,8.16-14.87-2.77-16.97-1.82l-14.19,14.56-.15,61.33c-.89,7.87-10.87,7.61-11.94-.07l-.21-61.26-15.05-14.62-25.51,13.68c6.28,9.26,18.25,14.89,20.4,26.69,1.21,6.63,1.18,28.63.38,35.59-.91,7.94-11.05,7.85-12.02-.8-1.06-9.46,2.55-30.54-2.37-37.55-2.47-3.52-8.05-7.56-11.18-10.77v50.7ZM77.2,60.15c1.55-20.5-26.56-21.02-26.34-.8,8.97-.87,17.57-2.39,26.34.8ZM87.31,79.59c-19.78-20.18-54.9-6.08-55.6,22.08,7.29-.76,13.98-11.69,20.34-11.23,4.54.33,4.46,3.08,6.88,5.15,10.79,9.22,23.26,13.36,37.36,9.18.87-8.84-2.76-18.84-8.98-25.19ZM96.36,116.84c-16.34,4.71-32.62-1.42-45.23-11.82-6.41,3.36-12.33,7.35-19.49,9.1.99,42.48,60.71,44.98,64.72,2.72ZM77.2,157.56c-8.55,2.56-17.78,2.51-26.34,0l-.37,12.01,14.22,13.47,12.9-12.74-.42-12.74Z"/></svg>