<?xml version="1.0" encoding="UTF-8"?><svg id="Layer_2" xmlns="http://www.w3.org/2000/svg" width="371.93" height="372.02" viewBox="0 0 371.93 372.02"><g id="Layer_1-2"><path d="M113.86,179.67l-4.23-12.01c-19.47-1.01-40.47,1.48-59.76.02-17.73-1.33-34.74-12.41-43.18-27.93C-12.58,104.28,12.03,62.16,51.61,59.78,67.97,5.09,132.5-17.52,179.97,15.13c9.21,6.34,15.81,14.36,22.7,23.01,38.86-29.13,95.09-11.23,111.02,34.15,4.64.16,9.17-.77,13.87-.4,57.36,4.41,57.86,89.84.66,95.71l-66.41.06-4.23,12.01h40.05c2.52,0,9.45,3.18,11.83,4.64,10.89,6.69,15.14,18.91,13.99,31.29,11.8,1.08,26.26-1.5,37.74.06,5.98.81,9.69,5.67,10.2,11.51,1.73,19.55-1.35,41.59-.03,61.41.38,4.03-5.75,10.85-9.36,10.85h-20.58v11.98h11.98v11.98h-71.86v-11.98h11.98v-11.98h-20.58c-.31,0-3.5-1.52-4.08-1.9-3.82-2.48-4.98-6.09-5.3-10.42-1.47-19.76,1.11-41.39.1-61.35-.1-3.78,5.89-10.17,9.29-10.17h38.55c1.71-11.56-4.49-22.87-16.81-23.98-13.56-1.23-28.94.98-42.7.03-1.76.33-5.08,6.37-6.72,8.25-12.91,14.76-28.13,22.96-47.37,26.74-2.19.43-4.74-.49-6.16,1.33v23.58h33.31c.32,0,5.25,1.98,5.88,2.35,3.65,2.16,7.87,8.21,8.54,12.42l.14,68.63c23.76,5.04,8.44,36.17-10.08,36.35-28.12-1.45-58.22,1.97-86.1.05-10.32-.71-19.12-6.42-22.4-16.52-3.29-10.11.14-18.09,10.88-19.87l.3-69.22c.41-5.31,9.28-14.19,14.26-14.19h33.31v-23.58l-1.24-1.01c-20.28-1.3-39.1-11.97-52.29-27.05-1.65-1.88-4.97-7.91-6.72-8.25-13.76.96-29.15-1.26-42.7-.03-12.32,1.12-18.52,12.42-16.81,23.98h33.31c5.62,0,14.85,10.08,14.6,16.09l.03,122.8c-.61,8.34-7.31,15.28-15.44,16.75-24.31-1.55-51.61,2.28-75.57.1-8.91-.81-16.09-7.95-16.84-16.84v-122.08c3.55-24.22,30.75-15.11,47.94-16.81-1.15-12.38,3.1-24.6,13.99-31.29,2.38-1.46,9.31-4.64,11.83-4.64h40.05ZM49.12,155.72h58.76c-2.25-33.9,17.69-66.02,49.2-78.42,53.94-21.23,110.11,21.57,106.49,78.42h64c9.06,0,21.37-9.06,26.14-16.53,16.31-25.55-4.48-58.3-34.28-55.24-5.13.53-9.59,3.3-14.69,3.65-6.78-54.02-79.44-70.89-108.6-24.74l-10.36-6.42,7.1-9.28c.74-1.43-5.43-8.93-6.78-10.47C145.91-9.33,71.73,12.59,60.76,71.55c-20.74-1.38-40.99,9.58-46.99,30.11-7.17,24.56,9.63,51.33,35.34,54.05ZM203.69,107.81c-1.96-7.21-9.29-24.38-18.32-24.01-8.57.36-15.67,16.9-17.61,24.01h35.93ZM135.57,107.81h19.09l8.6-19.09c.17-.52-.58-.47-1.12-.38-5.84.98-21.74,12.37-25.45,17.22-.58.75-1.44.94-1.12,2.25ZM235.88,107.81c-2.79-4.86-8.52-9.48-13.24-12.59-2.54-1.68-10.75-6.45-13.33-6.88-.54-.09-1.29-.15-1.12.38l8.6,19.09h19.09ZM152.04,119.79h-25.45c-2.9,7.85-5.63,15.59-6.74,23.95h29.94l2.25-23.95ZM161.77,143.74h47.91l-3.1-23.85h-41.71l-3.1,23.85ZM244.86,119.79h-25.45l2.25,23.95h29.94c-1.04-8.4-3.93-16.07-6.74-23.95ZM149.79,155.72h-29.94c1.04,8.4,3.93,16.07,6.74,23.95h25.45l-2.25-23.95ZM209.68,155.72h-47.91l3.1,23.85h41.71l3.1-23.85ZM251.6,155.72h-29.94l-2.25,23.95h25.45c2.69-7.94,5.71-15.53,6.74-23.95ZM154.66,191.65h-19.09c2.79,4.86,8.52,9.48,13.24,12.59,2.54,1.68,10.75,6.45,13.33,6.88.54.09,1.29.15,1.12-.38l-8.6-19.09ZM203.69,191.65h-35.93c1.96,7.21,9.29,24.38,18.32,24.01,8.57-.36,15.67-16.9,17.61-24.01ZM235.88,191.65h-19.09l-8.6,19.09c-.17.52.58.47,1.12.38,2.58-.43,10.79-5.21,13.33-6.88,1.28-.85,14.8-11.43,13.24-12.59ZM95.9,263.5v-31.81c0-1.42-3.76-4.58-5.6-4.13-23.16,1.61-49.08-2.09-71.91-.02-2.14.19-6.33,1.68-6.33,4.15v31.81h83.84ZM359.38,227.58h-83.84v35.93h83.84v-35.93ZM227.64,335.36v-67.74c0-1.42-3.76-4.58-5.6-4.13-23.16,1.61-49.08-2.09-71.91-.02-2.14.19-6.33,1.68-6.33,4.15v67.74h83.84ZM95.9,275.48H12.06v35.93h83.84v-35.93ZM359.38,275.48h-83.84v11.98h83.84v-11.98ZM329.44,299.43h-23.95v11.98h23.95v-11.98ZM95.9,323.39H12.06v31.81c0,1.42,3.76,4.58,5.6,4.13,23.16-1.61,49.08,2.09,71.91.02,2.14-.19,6.33-1.68,6.33-4.15v-31.81ZM239.62,347.34h-107.79c-.18,5.83,4.43,11.13,10.17,11.91,27.76-1.44,57.81,2.14,85.3.1,7.24-.54,12.04-4.45,12.32-12.01Z"/><path d="M125.69,24.19c19.93-1.94,40.15,6.22,52.52,21.86-1.65,1.51-7.66,7.77-9.67,6.77-22.49-26.18-63.74-20.87-79.81,9.27l-9.7-4.43c-1.15-1.81,3.99-8.61,5.35-10.42,9.43-12.64,25.58-21.51,41.32-23.05Z"/><path d="M215.67,275.48v47.91h-59.88v-47.91h59.88ZM203.69,287.46h-35.93v23.95h35.93v-23.95Z"/><rect x="47.99" y="287.46" width="11.98" height="11.98"/><rect x="71.95" y="287.46" width="11.98" height="11.98"/><rect x="24.04" y="239.55" width="11.98" height="11.98"/><rect x="47.99" y="239.55" width="11.98" height="11.98"/><rect x="24.04" y="335.36" width="11.98" height="11.98"/><rect x="47.99" y="335.36" width="11.98" height="11.98"/></g></svg>