<?xml version="1.0" encoding="UTF-8"?><svg id="Layer_2" xmlns="http://www.w3.org/2000/svg" width="372.59" height="371.86" viewBox="0 0 372.59 371.86"><g id="Layer_1-2"><path d="M90.2,203.82c-23.5-2.07-45.93-18.83-54.74-40.51-15.1-37.15,4.98-77.57,42.77-89.21C83.05,1.11,174.49-26.88,219.35,31.19c2.45.75,7.53-1.18,10.36-1.36,28.99-1.92,54.88,16.27,62.79,44.06,48.62,11.9,66.61,73.12,31.71,109.68-8.65,9.07-28.62,20.24-41.26,20.24h-90.38v24h34.12c2.14,0,10.61,4.67,12.4,6.35,3.4,3.18,4.71,7.78,7.2,11.55l42.67.08c1.84-.44,5.61,2.72,5.61,4.14v37.88h-12v-30h-36.38c-3.71,9.49-10.06,16.04-20.44,17.81-24.64-.94-51.16,1.91-75.59.23-11.84-.82-18.97-7.33-23.22-18.03h-36.38v30h-12v-37.88c0-1.42,3.77-4.59,5.61-4.14l42.67-.08c2.42-3.66,3.62-7.99,6.86-11.14,1.92-1.87,10.33-6.76,12.74-6.76h34.12v-24h-90.38ZM148.92,12.04c-32.32,3.15-54.75,29.69-58.33,60.92-.52,4.55,1.72,8.86-3.55,11.45-7.05,3.46-13.41,3.5-21.14,8.86-42.08,29.2-23.55,94.17,26.57,98.55l189.02.04c58.43-5.96,69.36-84.68,13.07-105.37-3.35-1.23-8.8-1.34-11.26-3.74-2.44-3.43-2.85-7.9-4.56-11.94-8.55-20.25-28.7-31.07-50.43-28.89-3.09.31-9.93,3.02-11.92,2.77-4.04-.51-7.26-7.44-9.92-10.37-15.06-16.56-34.98-24.47-57.54-22.27ZM148.13,240c-13.11,3.28-12.64,21.17.64,23.75h75.62c13.61-2.68,13.62-21.18,0-23.87l-76.25.11Z"/><path d="M4.86,299.98l166,.18c2.19.87,3.67,2.88,3.73,5.27l-.35,62.68c-1.03,2.52-3.29,3.87-6,3.75l-163.95-.37c-2.19-.87-3.67-2.88-3.73-5.27,1.35-19.36-1.74-40.97-.02-60.05.28-3.16,1.07-5.17,4.32-6.18ZM162.57,311.82H12.57v48h150v-48Z"/><path d="M202.86,299.98l166,.18c2.19.87,3.67,2.88,3.73,5.27l-.35,62.68c-1.03,2.52-3.29,3.87-6,3.75l-163.95-.37c-2.19-.87-3.67-2.88-3.73-5.27,1.35-19.36-1.74-40.97-.02-60.05.28-3.16,1.07-5.17,4.32-6.18ZM360.57,311.82h-150v48h150v-48Z"/><path d="M168.57,245.82h-12v12h12v-12ZM192.57,245.82h-12v12h12v-12ZM216.57,245.82h-12v12h12v-12Z" style="fill:#fff;"/><path d="M192.1,61.6c2.42-1.64,2.85-1.99,6.01-1.72,4.29.37,18.53,6.45,20.64,10.14,1.82,3.19-.44,7.54,2.69,10.06,3.61,2.92,7.15-.93,10.91,3.34,2.72,3.09,7.74,14.8,8.19,18.84.76,6.88-4.9,7.15-5.18,11.21-.38,5.46,5.91,4.87,5.18,11.88-.45,4.33-6.9,19.81-11.16,21.12-2.88.88-6.28-.57-8.7,1.8-2.89,2.83-.75,6.3-2.03,9.19-1.71,3.87-16.22,9.88-20.53,10.28-6.89.64-6.23-4.28-11.14-4.51-5.82-.27-5.12,3.62-8.45,4.38-5.2,1.18-18.62-4.81-22.64-8.47s-.75-8.16-3.76-11.24c-2.83-2.89-6.3-.75-9.19-2.03-3.82-1.69-9.83-16.33-10.29-20.52-.76-6.88,4.9-7.15,5.18-11.21.33-4.85-4.34-5.27-5.03-8.4-1.14-5.11,5.85-23.02,11.01-24.6,2.79-.86,6.55.58,8.64-1.86,1.94-2.26.65-5.56,1.48-8.27,1.34-4.38,16.71-10.67,21.12-11.16,7.36-.81,6.99,6.65,14.61,4.13,1.65-.55,1.76-1.91,2.47-2.39ZM165.74,151.9c.29.41,7.53,3.27,8.41,3.18,3.16-.3,6.66-4.91,13.52-4.52,4.57.26,9.89,4.68,12.41,4.23,1.16-.21,6.53-2.66,7.09-3.49,2.1-3.16,1.19-7.44,5.64-11.61,3.47-3.26,10.54-4.46,11.94-6.06.7-.8,3.07-6.43,3.02-7.45-.06-1.22-3.53-5.57-4.1-8.57-.86-4.46-.3-7.36,1.36-11.46.58-1.44,2.43-3.03,2.66-4.13.3-1.42-2.48-8.03-3.64-8.8-2.99-1.98-7.6-1.46-11.62-5.63-3.32-3.43-4.37-10.49-6.05-11.95-.8-.7-6.44-3.07-7.45-3.02-2.15.11-7.06,4.56-12.69,4.47-5.54-.09-8.41-3.72-11.47-4.38-1.42-.31-8.02,2.47-8.79,3.64-1.98,2.99-1.46,7.6-5.63,11.62-3.43,3.32-10.49,4.37-11.95,6.05-.7.8-3.07,6.43-3.02,7.45.06,1.22,3.53,5.57,4.1,8.57.86,4.46.3,7.36-1.36,11.46-.96,2.38-3.03,2.87-2.51,5.83.16.92,2.49,7.05,2.88,7.32.68.48,5.02.93,6.87,1.75,3.12,1.39,6.88,5.07,8.34,8.16.85,1.81,1.55,6.63,2.04,7.34Z"/><path d="M156.57,23.82v12c-22.94-.06-42.15,18.99-42,42h-12c-.3-29.41,24.59-54.3,54-54Z"/><rect x="156.57" y="245.82" width="12" height="12"/><rect x="180.57" y="245.82" width="12" height="12"/><rect x="204.57" y="245.82" width="12" height="12"/><rect x="72.57" y="329.82" width="72" height="12"/><rect x="24.57" y="329.82" width="12" height="12"/><rect x="48.57" y="329.82" width="12" height="12"/><rect x="228.57" y="329.82" width="72" height="12"/><rect x="312.57" y="329.82" width="12" height="12"/><rect x="336.57" y="329.82" width="12" height="12"/><path d="M182.64,90.01c35.49-5.15,37.19,50.32,2.06,47.79-28.37-2.04-29.36-43.83-2.06-47.79ZM184.12,102c-14.68,2.38-11.65,26.62,4.9,23.64,14.38-2.59,11.95-26.37-4.9-23.64Z"/></g></svg>