<?xml version="1.0" encoding="UTF-8"?>
<!-- Generator: Adobe Illustrator 21.0.0, SVG Export Plug-In . SVG Version: 6.00 Build 0)  -->
<svg version="1.1" id="Layer_1" xmlns="http://www.w3.org/2000/svg" xmlns:xlink="http://www.w3.org/1999/xlink" x="0px" y="0px" viewBox="0 0 60 60" style="enable-background:new 0 0 60 60;" xml:space="preserve">
<style type="text/css">
	.st0,.st1,.st2,.st3,.st4,.st5{fill:#000000;}
</style>
<g>
	<g>
		<g>
			<path class="st0" d="M8.2,30.5c-0.5,0-1,0.4-1,0.9v15.2c0,0.5,0.4,0.9,1,0.9s0.9-0.4,0.9-0.9V31.4C9.1,30.9,8.7,30.5,8.2,30.5z      M15.2,22.9c0.5,0,1-0.4,1-0.9c0-0.1,0-0.2-0.1-0.3C16,21.3,15.7,21,15.3,21c-2.3-0.2-4.1-2.1-4.3-4.4c0,0,0-0.1,0-0.1v-0.1     c0-0.1,0-0.1,0-0.2v-4.7h3.9c0.5,0,1-0.4,1-0.9c0-0.5-0.4-0.9-1-0.9h-4.8c-0.5,0-1,0.4-1,0.9v4.2c-1.2-1.1-1.9-2.6-1.9-4.2V4.9     h11.4c1.9,0,3.6,0.9,4.7,2.4c0.3,0.4,0.9,0.5,1.3,0.2c0.4-0.3,0.5-0.8,0.3-1.3c-1.4-2-3.7-3.2-6.2-3.2H7.2c-1,0-1.9,0.8-1.9,1.9     v5.7c0,2.7,1.5,5.3,3.9,6.6C9.4,18.6,10,20,11.1,21H8.2c-3.7,0-6.7,3-6.7,6.6v18.9c0,0.5,0.4,0.9,1,0.9s1-0.4,1-0.9V27.6     c0-2.6,2.1-4.7,4.8-4.7H15.2z M14.8,29.3l-0.7-2.6h3.1c0.5,0,0.9-0.4,0.9-0.9c0-0.5-0.4-0.9-0.9-0.9h-4.3c-0.3,0-0.6,0.1-0.8,0.4     C12,25.4,11.9,25.7,12,26l0.9,3.8c0.1,0.5,0.6,0.8,1.2,0.7C14.6,30.3,14.9,29.8,14.8,29.3z M51.9,30.5c-0.5,0-1,0.4-1,0.9v15.2     c0,0.5,0.4,0.9,1,0.9s1-0.4,1-0.9V31.4C52.8,30.9,52.4,30.5,51.9,30.5z M54.7,21.6v-9.2c0-5.2-4.3-9.5-9.5-9.5h-1.9     c-2.8,0-5.5,1.2-7.3,3.4c-0.2,0.3-0.3,0.6-0.2,1c0.1,0.3,0.4,0.6,0.8,0.6c0.4,0.1,0.7-0.1,0.9-0.4c1.4-1.7,3.6-2.7,5.8-2.7h1.9     c4.2,0,7.6,3.4,7.6,7.6v8.6c-0.2,0-0.4,0-0.7-0.1h-3.2c1.3-1.3,2-3,2-4.7v-5.7c0-0.5-0.4-0.9-0.9-0.9h-7.1     c-0.5,0-0.9,0.4-0.9,0.9c0,0.5,0.4,0.9,0.9,0.9H49v4.7c0,2.4-1.9,4.5-4.3,4.7c-0.4,0-0.7,0.3-0.8,0.7c0,0.1-0.1,0.2-0.1,0.3     c0,0.5,0.4,0.9,0.9,0.9h2.6l-3.6,6.5c-0.3,0.5-0.1,1,0.4,1.3c0.1,0.1,0.3,0.1,0.5,0.1c0.3,0,0.7-0.2,0.8-0.5l4.1-7.4h2.5     c0.5,0,0.9,0.1,1.4,0.3h0.1c1.9,0.7,3.1,2.5,3.1,4.5v18.9c0,0.5,0.4,0.9,1,0.9s0.9-0.4,0.9-0.9V27.6C58.5,25.1,57,22.7,54.7,21.6     z M38.6,30.5h-3.2c1.5-1.2,2.5-2.8,3-4.7c2.5-1.3,4-3.9,4-6.7v-1.9c0-4.2-3.4-7.6-7.6-7.6H19.5c-1,0-1.9,0.8-1.9,1.9v7.6     c0,2.8,1.6,5.4,4,6.7c0.4,1.8,1.5,3.5,3,4.7h-3.2c-3.7,0-6.7,3-6.7,6.6v18.9c0,0.5,0.4,0.9,1,0.9c0.5,0,1-0.4,1-0.9V37.1     c0-2.6,2.1-4.7,4.8-4.7h17.1c2.6,0,4.8,2.1,4.8,4.7v18.9c0,0.5,0.4,0.9,1,0.9c0.5,0,0.9-0.4,0.9-0.9V37.1     C45.2,33.4,42.2,30.5,38.6,30.5z M21.5,16.3v7.1c-1.2-1.1-1.9-2.6-1.9-4.2v-7.6h15.2c3.1,0,5.7,2.5,5.7,5.7v1.9     c0,1.6-0.7,3.1-1.9,4.2v-7.1c0-0.5-0.4-0.9-1-0.9H22.4C21.9,15.3,21.5,15.7,21.5,16.3z M30,30.5c-3.2,0-5.9-2.3-6.5-5.4h0     c0,0,0-0.1,0-0.1c-0.1-0.3-0.1-0.7-0.1-1v-6.8h13.3V24c0,0.3,0,0.7-0.1,1c0,0,0,0.1,0,0.1C36,28.2,33.2,30.5,30,30.5z M33.1,34.3     c-0.5-0.1-1,0.2-1.1,0.7l-0.8,3.1h-2.3L28.1,35c-0.1-0.3-0.3-0.6-0.7-0.7c-0.3-0.1-0.7,0-0.9,0.2c-0.2,0.2-0.3,0.6-0.2,0.9l1,3.6     l-1,10.6c0,0.3,0.1,0.6,0.3,0.8l2.9,2.5c0.4,0.3,0.9,0.3,1.3,0l2.8-2.5c0.2-0.2,0.3-0.5,0.3-0.8l-1-10.6l1-3.6     c0.1-0.3,0-0.5-0.1-0.7C33.6,34.5,33.3,34.3,33.1,34.3z M30,51l-1.9-1.6l0.8-9.5H31l0.9,9.5L30,51z M21.5,39.9     c-0.5,0-1,0.4-1,0.9v15.2c0,0.5,0.4,0.9,1,0.9s1-0.4,1-0.9V40.9C22.4,40.4,22,39.9,21.5,39.9z M38.6,39.9c-0.5,0-1,0.4-1,0.9     v15.2c0,0.5,0.4,0.9,1,0.9s1-0.4,1-0.9V40.9C39.5,40.4,39.1,39.9,38.6,39.9z"/>
		</g>
	</g>
</g>
</svg>