<?xml version="1.0" encoding="utf-8" standalone="yes"?>
<!DOCTYPE svg PUBLIC "-//W3C//DTD SVG 1.1//EN" "http://www.w3.org/Graphics/SVG/1.1/DTD/svg11.dtd">
<svg width="856" height="525" viewBox="0 0 856 525" style="fill:none;stroke:none;fill-rule:evenodd;clip-rule:evenodd;stroke-linecap:round;stroke-linejoin:round;stroke-miterlimit:1.5;" version="1.1" xmlns="http://www.w3.org/2000/svg" xmlns:xlink="http://www.w3.org/1999/xlink"><style id="fontImports"></style><g id="items" style="isolation: isolate"><g id="blend" style="mix-blend-mode:normal"><g id="g-root--1.line_sy_vaheip5vliq7-fill" data-item-order="-273784" transform="translate(166.32928466796875, 70.4227294921875)"></g><g id="g-root-coin_m7zm4h5vd3i9-fill" data-item-order="0" transform="translate(771, 7.25146484375)"></g><g id="g-root-tx_costeffi_5ur4165gwsi-fill" data-item-order="0" transform="translate(616.2453002929688, 20.1046142578125)"><g id="tx_costeffi_5ur4165gwsi-fill" stroke="none" fill="#484848"><g><text style="font: 20px Arial, Helvetica, sans-serif; white-space: pre;" font-size="20px" font-family="Arial, Helvetica, sans-serif"><tspan x="20.09" y="33" dominant-baseline="ideographic">Cost Efficiency</tspan></text></g></g></g><g id="g-root-tx_customer_dgose965gydd-fill" data-item-order="0" transform="translate(539.0545043945312, 58.7490234375)"><g id="tx_customer_dgose965gydd-fill" stroke="none" fill="#666666"><g><text style="font: 20px Arial, Helvetica, sans-serif; white-space: pre;" font-size="20px" font-family="Arial, Helvetica, sans-serif"><tspan x="29.3" y="33" dominant-baseline="ideographic">Customer </tspan><tspan x="15.94" y="57" dominant-baseline="ideographic">Experience</tspan></text></g></g></g><g id="g-root-face_1hbciwx5viqkk-fill" data-item-order="0" transform="translate(659.1802368164062, 57.8958740234375)"></g><g id="g-root-tx_centrali_1qbbsu965gxe3-fill" data-item-order="0" transform="translate(428.117919921875, 132.7066650390625)"><g id="tx_centrali_1qbbsu965gxe3-fill" stroke="none" fill="#666666"><g><text style="font: 20px Arial, Helvetica, sans-serif; white-space: pre;" font-size="20px" font-family="Arial, Helvetica, sans-serif"><tspan x="14.83" y="33" dominant-baseline="ideographic">Centralized </tspan><tspan x="51.53" y="57" dominant-baseline="ideographic">Access</tspan></text></g></g></g><g id="g-root-2_1upxl1d5v1vrg-fill" data-item-order="0" transform="translate(548.2435913085938, 131.8536376953125)"></g><g id="g-root-tx_resource_1lviapt65gy6c-fill" data-item-order="0" transform="translate(329.18133544921875, 206.66455078125)"><g id="tx_resource_1lviapt65gy6c-fill" stroke="none" fill="#666666"><g><text style="font: 20px Arial, Helvetica, sans-serif; white-space: pre;" font-size="20px" font-family="Arial, Helvetica, sans-serif"><tspan x="18.39" y="33" dominant-baseline="ideographic">Resource </tspan><tspan x="40.61" y="57" dominant-baseline="ideographic">Linking</tspan></text></g></g></g><g id="g-root-hype_1lpx96p5vabk9-fill" data-item-order="0" transform="translate(437.3070068359375, 205.8114013671875)"></g><g id="g-root-tx_branding_zp196p65gxe5-fill" data-item-order="0" transform="translate(182.2447509765625, 280.6221923828125)"><g id="tx_branding_zp196p65gxe5-fill" stroke="none" fill="#666666"><g><text style="font: 20px Arial, Helvetica, sans-serif; white-space: pre;" font-size="20px" font-family="Arial, Helvetica, sans-serif"><tspan x="41.03" y="33" dominant-baseline="ideographic">Branding &amp; </tspan><tspan x="13.28" y="57" dominant-baseline="ideographic">Customization</tspan></text></g></g></g><g id="g-root-mega_vbqytd5v0gsn-fill" data-item-order="0" transform="translate(326.3704528808594, 279.7691650390625)"></g><g id="g-root-tx_userfrie_v97r2965gy6e-fill" data-item-order="0" transform="translate(71.30816650390625, 354.580078125)"><g id="tx_userfrie_v97r2965gy6e-fill" stroke="none" fill="#666666"><g><text style="font: 20px Arial, Helvetica, sans-serif; white-space: pre;" font-size="20px" font-family="Arial, Helvetica, sans-serif"><tspan x="19.97" y="33" dominant-baseline="ideographic">User-Friendly </tspan><tspan x="62.17" y="57" dominant-baseline="ideographic">Interface</tspan></text></g></g></g><g id="g-root-lapt_zjezep6501z4-fill" data-item-order="0" transform="translate(215.43386840820312, 353.7269287109375)"></g><g id="g-root-tx_servicer_hydps165gwlj-fill" data-item-order="0" transform="translate(8.697845458984375, 428.53759765625)"><g id="tx_servicer_hydps165gwlj-fill" stroke="none" fill="#666666"><g><text style="font: 20px Arial, Helvetica, sans-serif; white-space: pre;" font-size="20px" font-family="Arial, Helvetica, sans-serif"><tspan x="37.3" y="33" dominant-baseline="ideographic">Service </tspan><tspan x="11.73" y="57" dominant-baseline="ideographic">Resilience</tspan></text></g></g></g><g id="g-root-hand_hwiaip65gxl4-fill" data-item-order="0" transform="translate(104.49726867675781, 427.6846923828125)"></g><g id="g-root--1.line_sy_vaheip5vliq7-stroke" data-item-order="-273784" transform="translate(166.32928466796875, 70.4227294921875)"><g id="-1.line_sy_vaheip5vliq7-stroke" fill="none" stroke-linecap="round" stroke-linejoin="round" stroke-miterlimit="4" stroke="#4F92FF" stroke-width="2"><g><path d="M 10 429.093872L 10 404.441284L 46.97887 404.441284L 46.97887 379.788696L 83.95771 379.788696L 83.95771 355.136108L 120.936584 355.136108L 120.936584 330.483551L 157.915451 330.483551L 157.915451 305.830963L 194.894287 305.830963L 194.894287 281.178375L 231.873169 281.178375L 231.873169 256.525803L 268.85202 256.525803L 268.85202 231.873215L 305.830902 231.873215L 305.830902 207.220642L 342.809784 207.220642L 342.809784 182.568054L 379.788574 182.568054L 379.788574 157.915482L 416.767456 157.915482L 416.767456 133.262901L 453.746338 133.262901L 453.746338 108.610321L 490.725189 108.610321L 490.725189 83.957741L 527.704041 83.957741L 527.704041 59.305161L 564.682922 59.305161L 564.682922 34.65258L 601.661743 34.65258L 601.661743 10L 663.293213 10"></path></g></g></g><g id="g-root-coin_m7zm4h5vd3i9-stroke" data-item-order="0" transform="translate(771, 7.25146484375)"><g id="coin_m7zm4h5vd3i9-stroke" fill="none" stroke-linecap="round" stroke-linejoin="round" stroke-miterlimit="4" stroke="#888888" stroke-width="2"><g><path d="M 11.043832 31.653305C 11.043833 32.797142 15.680139 33.7244 21.399311 33.7244C 27.118484 33.7244 31.754789 32.797142 31.754789 31.653305C 31.754789 30.509472 27.118484 29.582211 21.399311 29.582211C 15.680139 29.582211 11.043833 30.509472 11.043833 31.653305ZM 31.746506 31.653305L 31.746506 37.866592C 31.746506 39.011909 27.111393 39.937687 21.391026 39.937687C 15.67066 39.937687 11.035548 39.011909 11.035548 37.866592L 11.035548 31.653305M 31.746506 37.866592L 31.746506 44.07988C 31.746506 45.225193 27.111393 46.150974 21.391026 46.150974C 15.67066 46.150974 11.035548 45.225193 11.035548 44.07988L 11.035548 37.866592M 31.746506 44.07988L 31.746506 50.293167C 31.746506 51.43848 27.111393 52.364262 21.391026 52.364262C 15.67066 52.364262 11.035548 51.43848 11.035548 50.293167L 11.035548 44.07988M 31.746506 50.293167L 31.746506 56.506454C 31.746506 57.651768 27.111393 58.577549 21.391026 58.577549C 15.67066 58.577549 11.035548 57.651768 11.035548 56.506454L 11.035548 50.293167M 19.073471 24.402399C 21.854952 18.404507 28.846972 14.142191 37.025726 14.142191C 39.127155 14.142372 41.218327 14.435136 43.239014 15.012052C 44.529461 13.178316 46.39328 11.825991 48.536877 11.168098C 48.849094 11.080547 49.184292 11.144298 49.442577 11.340346C 49.700855 11.536396 49.85239 11.842107 49.852024 12.166367L 49.852024 18.294739C 52.048046 20.218733 53.707817 22.679132 54.669392 25.435877L 56.610008 25.435877C 57.753845 25.435877 58.681103 26.363138 58.681103 27.506971L 58.681103 33.720261C 58.681103 34.864094 57.753845 35.791355 56.610008 35.791355L 54.671463 35.791355C 53.580868 38.50631 51.701618 40.832108 49.276257 42.468567L 50.949703 47.00634C 51.562733 48.667892 50.712479 50.511776 49.050777 51.124401C 47.389072 51.73703 45.545399 50.886333 44.93317 49.22448L 43.468906 45.258335C 41.379246 45.885502 39.209545 46.205727 37.027798 46.208965M 45.734684 24.40447C 45.448727 24.40447 45.216911 24.636286 45.216911 24.922245C 45.216911 25.208202 45.448727 25.440018 45.734684 25.440018C 46.020641 25.440018 46.25246 25.208202 46.25246 24.922245C 46.25246 24.636286 46.020641 24.40447 45.734684 24.40447M 26.568766 22.333374C 28.715311 19.965561 31.670969 18.48773 34.853149 18.191183"></path></g></g></g><g id="g-root-tx_costeffi_5ur4165gwsi-stroke" data-item-order="0" transform="translate(616.2453002929688, 20.1046142578125)"></g><g id="g-root-tx_customer_dgose965gydd-stroke" data-item-order="0" transform="translate(539.0545043945312, 58.7490234375)"></g><g id="g-root-face_1hbciwx5viqkk-stroke" data-item-order="0" transform="translate(659.1802368164062, 57.8958740234375)"><g id="face_1hbciwx5viqkk-stroke" fill="none" stroke-linecap="round" stroke-linejoin="round" stroke-miterlimit="4" stroke="#A3A3A3" stroke-width="2"><g><path d="M 11.775225 34.853149C 11.775226 47.598736 22.107565 57.931072 34.853149 57.931072C 47.598736 57.931072 57.931072 47.598736 57.931072 34.853149C 57.931072 22.107565 47.598736 11.775226 34.853149 11.775226C 22.107565 11.775226 11.775226 22.107565 11.775226 34.853149M 23.136665 38.403599C 24.911888 44.794411 32.012787 48.699902 38.403599 46.924679C 42.309093 45.504498 45.504498 42.309093 46.569633 38.403599M 26.332069 28.462339C 26.332069 28.854511 26.649988 29.17243 27.04216 29.17243C 27.434332 29.17243 27.752249 28.854511 27.752249 28.462339C 27.752249 28.070168 27.434332 27.752249 27.04216 27.752249C 26.649988 27.752249 26.332069 28.070168 26.332069 28.462339M 41.954048 28.462339C 41.954048 28.854511 42.271969 29.17243 42.664139 29.17243C 43.056313 29.17243 43.374229 28.854511 43.374229 28.462339C 43.374229 28.070168 43.056313 27.752249 42.664139 27.752249C 42.271969 27.752249 41.954048 28.070168 41.954048 28.462339"></path></g></g></g><g id="g-root-tx_centrali_1qbbsu965gxe3-stroke" data-item-order="0" transform="translate(428.117919921875, 132.7066650390625)"></g><g id="g-root-2_1upxl1d5v1vrg-stroke" data-item-order="0" transform="translate(548.2435913085938, 131.8536376953125)"><g id="2_1upxl1d5v1vrg-stroke" fill="none" stroke-linecap="round" stroke-linejoin="round" stroke-miterlimit="4" stroke="#A3A3A3" stroke-width="2"><g><path d="M 35.888695 15.177739L 51.421913 15.177739C 51.993832 15.177739 52.457462 15.64137 52.457462 16.213287L 52.457462 53.493011C 52.457462 54.064926 51.993832 54.528557 51.421913 54.528557L 35.888695 54.528557M 17.248835 53.954865C 17.249025 54.440441 17.58659 54.860676 18.060705 54.965561L 34.629471 58.645897C 34.935921 58.713688 35.256577 58.638844 35.501347 58.442383C 35.746113 58.245926 35.888573 57.949062 35.888695 57.635201L 35.888695 12.071095C 35.888573 11.757237 35.746113 11.460372 35.501347 11.263914C 35.256577 11.067456 34.935921 10.992608 34.629471 11.060401L 18.060705 14.742809C 17.58659 14.847693 17.249025 15.267927 17.248835 15.753504ZM 25.533218 34.853149C 25.533218 36.568901 26.924109 37.959793 28.639862 37.959793C 30.355614 37.959793 31.746506 36.568901 31.746506 34.853149C 31.746506 33.137398 30.355614 31.746506 28.639862 31.746506C 26.924109 31.746506 25.533218 33.137398 25.533218 34.853149Z"></path></g></g></g><g id="g-root-tx_resource_1lviapt65gy6c-stroke" data-item-order="0" transform="translate(329.18133544921875, 206.66455078125)"></g><g id="g-root-hype_1lpx96p5vabk9-stroke" data-item-order="0" transform="translate(437.3070068359375, 205.8114013671875)"><g id="hype_1lpx96p5vabk9-stroke" fill="none" stroke-linecap="round" stroke-linejoin="round" stroke-miterlimit="4" stroke="#A3A3A3" stroke-width="2"><g><path d="M 37.959793 38.995338C 37.959793 41.283009 39.814316 43.137531 42.101982 43.137531L 52.457462 43.137531C 55.885185 43.128426 58.661644 40.351967 58.67075 36.924244L 58.67075 32.782051C 58.660519 29.354799 55.88472 26.579002 52.457466 26.568766L 42.101982 26.568766C 39.814316 26.568766 37.959793 28.423288 37.959793 30.710957M 31.746506 38.995338C 31.746506 41.283009 29.891983 43.137531 27.604313 43.137531L 17.248835 43.137531C 13.82111 43.128426 11.044652 40.351967 11.035548 36.924244L 11.035548 32.782051C 11.045784 29.354799 13.82158 26.579002 17.248835 26.568766L 27.604313 26.568766C 29.891983 26.568766 31.746506 28.423288 31.746506 30.710957M 23.462122 34.851078L 46.244175 34.851078"></path></g></g></g><g id="g-root-tx_branding_zp196p65gxe5-stroke" data-item-order="0" transform="translate(182.2447509765625, 280.6221923828125)"></g><g id="g-root-mega_vbqytd5v0gsn-stroke" data-item-order="0" transform="translate(326.3704528808594, 279.7691650390625)"><g id="mega_vbqytd5v0gsn-stroke" fill="none" stroke-linecap="round" stroke-linejoin="round" stroke-miterlimit="4" stroke="#A3A3A3" stroke-width="2"><g><path d="M 10 10M 11.23023 50.452641L 14.707598 55.692513M 10 10M 30.460342 27.117607L 43.675999 47.02705M 42.982182 45.979073L 14.01171 54.644539L 11.926118 51.500614L 31.15416 28.165581L 42.982182 45.979073ZM 29.087206 50.133694C 30.164289 51.369396 30.465361 53.101303 29.868492 54.628002C 29.271622 56.154705 27.875731 57.223171 26.246143 57.400692C 24.616558 57.578209 23.02335 56.835358 22.111761 55.472977L 20.295412 52.737061M 10 10M 17.431087 35.805851L 16.041384 34.333302C 15.665274 33.934387 15.665274 33.311447 16.041384 32.912533L 19.769352 28.977449L 18.526697 23.704441C 18.400732 23.17037 18.713234 22.630758 19.239153 22.474209L 24.433458 20.927101L 25.980566 15.732793C 26.134136 15.214087 26.661087 14.900985 27.190084 15.014123L 32.461021 16.267136L 36.396099 12.539164C 36.795017 12.163054 37.417953 12.163054 37.816872 12.539164L 41.751949 16.267136L 47.02496 15.024478C 47.559029 14.898513 48.098637 15.211015 48.255188 15.736935L 49.802296 20.931242L 54.996597 22.478352C 55.528469 22.635036 55.842548 23.182852 55.709057 23.721008L 54.474686 28.971237L 58.202656 32.906319C 58.578762 33.305237 58.578762 33.928173 58.202656 34.327091L 54.474686 38.262173L 55.727695 43.533112C 55.854908 44.067867 55.542145 44.608837 55.01524 44.765411L 49.820934 46.312523L 48.273827 51.506828C 48.116383 52.032898 47.575668 52.344604 47.041527 52.217216L 41.770592 50.97456L 37.83551 54.70253C 37.436592 55.078636 36.813656 55.078636 36.414738 54.70253L 35.667072 53.996284"></path></g></g></g><g id="g-root-tx_userfrie_v97r2965gy6e-stroke" data-item-order="0" transform="translate(71.30816650390625, 354.580078125)"></g><g id="g-root-lapt_zjezep6501z4-stroke" data-item-order="0" transform="translate(215.43386840820312, 353.7269287109375)"><g id="lapt_zjezep6501z4-stroke" fill="none" stroke-linecap="round" stroke-linejoin="round" stroke-miterlimit="4" stroke="#A3A3A3" stroke-width="2"><g><path d="M 33.077911 22.426575C 33.077911 27.328724 37.051884 31.3027 41.954029 31.3027C 46.856174 31.3027 50.830147 27.328724 50.830147 22.426575C 50.830147 17.524427 46.856174 13.550449 41.954029 13.550449C 37.051884 13.550449 33.077911 17.524427 33.077911 22.426575M 41.954029 40.178825C 46.194286 40.169365 50.263599 41.849621 53.261921 44.847946C 56.260242 47.846272 57.940498 51.915585 57.931042 56.155846M 33.077911 38.403599L 11.775224 38.403599L 15.325671 56.155849L 36.628357 56.155849L 33.077911 38.403599ZM 22.426567 47.279724L 25.977015 47.279724M 36.628357 56.155849L 47.279701 56.155849"></path></g></g></g><g id="g-root-tx_servicer_hydps165gwlj-stroke" data-item-order="0" transform="translate(8.697845458984375, 428.53759765625)"></g><g id="g-root-hand_hwiaip65gxl4-stroke" data-item-order="0" transform="translate(104.49726867675781, 427.6846923828125)"><g id="hand_hwiaip65gxl4-stroke" fill="none" stroke-linecap="round" stroke-linejoin="round" stroke-miterlimit="4" stroke="#A3A3A3" stroke-width="2"><g><path d="M 51.811272 30.541128C 51.823578 26.054705 50.030582 21.751938 46.83606 18.60183C 43.641544 15.451722 39.314098 13.719131 34.828289 13.794247C 32.307766 13.794248 28.552872 14.355515 29.650551 18.901569L 29.650551 18.901569C 31.543533 24.031673 40.923523 16.51981 43.903831 28.720633C 46.119904 37.789963 38.32637 39.467548 36.462383 37.603565L 32.206284 33.347462C 30.993311 32.133476 29.02582 32.132835 27.812054 33.346024C 26.598289 34.559219 26.598005 36.526711 27.811419 37.740257L 35.532463 46.488564C 37.086193 48.041828 37.959316 50.148647 37.959785 52.345619L 37.959785 55.912048M 49.76503 22.275385C 53.480572 22.275385 58.670738 25.551857 58.670738 29.505579L 58.670738 55.912048M 18.626112 26.390652C 18.625772 27.789801 19.759912 28.924213 21.159061 28.924213C 22.55821 28.924213 23.692348 27.789801 23.692011 26.390652C 23.692348 24.991503 22.55821 23.857088 21.159061 23.857088C 19.759912 23.857088 18.625772 24.991503 18.626112 26.390652M 28.126225 33.069935L 26.036489 32.587372C 25.176739 32.388157 24.309851 32.889992 24.054453 33.73476L 23.308859 36.189007C 23.023157 37.138672 22.148703 37.788769 21.15699 37.788769C 20.165279 37.788769 19.290823 37.138672 19.005121 36.189007L 18.261599 33.734756C 18.006201 32.889992 17.139313 32.388157 16.279562 32.587372L 13.794247 33.163136C 12.82711 33.380283 11.831273 32.942371 11.337601 32.08284C 10.843929 31.223309 10.967475 30.142479 11.642379 29.416523L 13.380028 27.552536C 13.980775 26.903175 13.980775 25.900911 13.380028 25.251549L 11.642379 23.366852C 10.966777 22.640665 10.84317 21.559013 11.337521 20.699129C 11.831872 19.839243 12.828812 19.401798 13.796318 19.620239L 16.281631 20.196003C 17.141304 20.393803 18.007099 19.891171 18.261599 19.046547L 19.007193 16.594368C 19.297354 15.651557 20.168467 15.008218 21.154919 15.008218C 22.141371 15.008218 23.012484 15.651557 23.302645 16.59437L 24.048239 19.046547C 24.303637 19.891466 25.170082 20.39395 26.030277 20.196003L 28.515591 19.620239C 29.483839 19.399208 30.482992 19.835711 30.978704 20.696308C 31.474415 21.556906 31.350679 22.640203 30.673674 23.366852L 28.936024 25.241194C 28.333267 25.889767 28.333267 26.893606 28.936024 27.542181L 30.673674 29.406166C 31.487024 30.275627 31.487024 31.626781 30.673674 32.496243"></path></g></g></g></g></g></svg>