<?xml version="1.0" encoding="UTF-8"?><svg id="Layer_1" xmlns="http://www.w3.org/2000/svg" width="408.83" height="365.95" viewBox="0 0 408.83 365.95"><path d="M408.83,349.15c-2.77,8.46-8.4,15.95-17.93,16.8H43.51c-23.66-2.58-41.17-21.68-43.51-45.12L.04,44.56C2.38,26.58,13.11,10.49,30.16,3.62c5.03-2.03,20.65-6.26,24.07-1.29.27.39,1.69,3.68,1.69,3.9v78.65h37.93c1.9,0,4.23,4.68,4.16,6.66-.06,1.77-2.47,6.11-4.16,6.11h-37.93v177.65c0,.21-1.37,3.53-1.57,3.82-2.25,3.23-10.09,2.57-13.64,3.33-37.96,8.09-37.18,67.81,9.18,70.74h336.22c3.54.13,6.84-.97,8.54-4.24V101.84c-2.38-5.6-13.39-2.05-13.02-10.96.32-7.73,9.67-6.63,14.84-4.43,6.74,2.87,10.06,8.54,12.36,15.19v247.52ZM42.35,13.81c-9.65,1.68-18.72,8.18-23.8,16.53-1.13,1.85-4.95,10.27-4.95,11.82v240.73c4.47-2.78,8.09-6.66,12.86-9.09,5.21-2.66,10.65-3.4,15.88-5.68V13.81Z"/><path d="M117.17,42.71c3-.89,6.36.15,8.21,2.64l184.08,241.5c1.57,4.64-1.35,9-6.37,8.84l-186.27-.64c-2.35-1.22-3.56-3.47-3.43-6.15V47.7c-.16-1.72,2.33-4.55,3.8-4.98ZM289.06,282.08L126.18,68.9v213.18h162.88Z"/><path d="M350.3,15.65l16.22,40.87v254.71c-.38,5.02-4.64,10.71-9.56,12-3.89,1.02-20.55.8-24.17-.64-4.63-1.84-7.17-6.63-7.8-11.37V55.72s15.28-39.02,15.28-39.02c2.98-3.23,6.5-3.69,10.03-1.05ZM338.57,56.12h14.37l-6.79-16.77c-1.66-.35-1.1.68-1.54,1.61-2.32,4.87-3.75,10.27-6.03,15.16ZM352.94,69.7h-14.37v212.39h14.37V69.7ZM352.94,295.66h-14.37v15.17h14.37v-15.17Z"/><path d="M188.23,85.04l115.62-.19c8.07.8,8.09,12.01,0,12.81h-114.21c-7-.67-7.91-10.21-1.41-12.62Z"/><path d="M150.37,258.69c-1.09-.93-1.96-3.4-1.88-4.9l.47-103.43c2.94-4.05,7.17-5.06,11.1-1.56l77.09,100.96c3.61,4.97-.15,10.6-5.97,10.76-24.04-1.52-50.55,2.03-74.29.03-1.82-.15-5.17-.72-6.52-1.87ZM218,246.95l-56.69-73.46v73.46h56.69Z"/></svg>