<?xml version="1.0" encoding="UTF-8"?><svg id="Layer_1" xmlns="http://www.w3.org/2000/svg" width="349.65" height="336.26" viewBox="0 0 349.65 336.26"><path d="M164.96,110.61c82.54-6.97,134.32,81.13,89.54,150.02l28.77,49.97c1.37,4.71-.66,9.11-5.91,8.98-8.19-.2-18.69-4.04-27.15-4.46-.96-.05-1.91-.16-2.85.13l-15.86,19.4c-2.51,2.15-7.17,2.32-9.28-.5l-20.81-35.43c-17.19,5.08-35.94,5.07-53.1,0l-20.81,35.43c-1.47,2.2-4.51,2.36-6.85,1.83-4.11-.93-14.09-17.38-18.29-20.72-.94-.29-1.89-.17-2.84-.13-8.24.39-20.08,4.67-27.81,4.53-3.82-.07-6.06-3.51-5.65-7.13l29.15-51.89c-40.63-58.98-2.01-143.96,69.74-150.02ZM165.71,122.61c-58.2,5.15-92.21,70.5-65.74,122.3,31.79,62.21,123.73,60,151.75-4.04,26.4-60.35-20.91-124.01-86-118.25ZM135.81,294.19c-12.56-5.23-23.21-13.97-32.94-23.31l-19.51,34.49c1.67,1.23,18.79-4.1,23.29-2.66,3.53,1.14,11,13.09,14.15,16.43l1.55.47c2.81-7.73,9.84-15.46,12.93-22.71.38-.88.85-1.72.53-2.73ZM266.36,305.38l-19.51-34.49c-9.8,9.51-20.62,17.85-33.05,23.69l13.57,25.05,1.55-.48c2.92-3.33,10.52-15.27,14.15-16.43,4.33-1.39,21.81,3.74,23.29,2.66Z"/><path d="M204.63,88.39c-1.46,1.33-3.86,1.93-5.77,1.42-6.9-1.86-16.4-10.03-23.68-12.44-5.69,1.24-22.26,13.46-26.76,12.65-2.46-.44-5.05-3.74-5.07-6.24-.05-6.37,3.95-16.55,4.45-23.39.07-.92.27-1.81-.07-2.72-1.12-3.76-16.05-14.01-18.95-18.57-2.47-3.88-.39-8.38,3.88-9.55,7.33-2.01,17.89-1.48,25.59-3.29,2.48-4.05,10.56-24.35,13.63-25.74,1.54-.69,4.43-.7,5.98,0,3.1,1.4,11.03,21.48,13.48,25.51l25.74,3.51c15.12,7.9-10.69,20.6-15.09,28.13-1,3.51,4.24,20.1,4.4,25.37.06,1.9-.28,3.99-1.76,5.34ZM175.6,20.39c-1.75-.38-1.2.24-1.67.96-2.41,3.72-5.22,13.67-8.54,15.44-4.55,2.43-13.18,1.61-18.28,3.1l13.36,14.04-2.85,18.95c4.25-1.79,12.68-8.14,16.85-8.33,4.78-.22,12.95,6.36,17.64,8.33.59-.75-3.49-15.14-2.69-18.79,1.13-5.14,10.58-9.37,13.2-14.2-4.71-1.61-14.97-.7-18.74-3.39-2.7-1.93-6.5-12.66-8.27-16.11Z"/><path d="M300.66,54.28c2.68-.58,4.81.04,6.55,2.13,3.48,4.2,9.12,22.03,12.1,23.9,5.96,2.6,24.29,1.63,28.45,5.3,2.69,2.38,2.22,5.22.35,7.9-2.67,3.83-18,16.49-18.64,18.92l4.44,26.07c-3.94,14.45-23-5.06-31.3-6.95-6.39,1.91-20.94,13.29-26.8,12.57-2.91-.36-3.88-2.56-4.82-5.05l4.22-27.4c-.9-2.99-15.65-13.69-18.6-18.15-8.73-13.18,23.61-10.28,29.21-13.55l11.41-23.09c.74-1.25,2-2.28,3.43-2.59ZM330.11,93.89c-4.74-.68-14.62-.52-18.38-3s-6.36-12.36-8.63-16.5c-1.01-.77-7.76,15.05-9.47,16.4-3.39,2.67-14.44,2.42-19.02,3.11,2.22,4.02,12.53,10.91,13.36,14.79.95,4.43-2.61,13.32-2.86,18.2.67.66,14.23-8.04,16.92-8.22,3.47-.23,16.92,8.95,17.58,8.22.29-5.06-3.78-14.15-2.53-18.59,1.18-4.2,10.62-10.15,13.03-14.4Z"/><path d="M45.66,54.28c2.05-.45,4.31-.22,5.79,1.39l13.15,25.1,25.68,3.57c3.94.94,4.89,6.08,2.85,9.2l-18.62,18.13c-.39,1.16-.16,2.32-.07,3.49.51,6.27,4.73,17.96,4.38,23.31-.29,4.42-4.1,6.43-8.24,5.31-6.76-1.83-15.99-9.67-22.98-12.23-3.04-.25-19.15,11.44-24.05,12.42s-7.94-2-7.63-6.85c.5-7.93,4.37-17.18,4.32-25.44-.41-1.46-16.14-14.61-18.63-18.17-9.2-13.18,23.67-10.22,29.21-13.54,2.59-1.97,8.28-18.76,11.4-23.1.9-1.25,1.85-2.25,3.43-2.59ZM75.11,93.89c-4.58-.69-15.64-.44-19.02-3.11-1.71-1.35-8.46-17.16-9.47-16.4-2.31,4.38-5.05,14.93-9.48,17.15-3.94,1.98-12.92,1.63-17.53,2.35l13.38,14.8-2.87,18.2c.6.77,14.1-8.46,17.57-8.23,2.75.18,16.05,9.08,16.92,8.22-.41-4.92-4.09-14.34-2.66-18.79,1.22-3.8,10.97-10.14,13.16-14.2Z"/><path d="M170.21,147.36c78.08-6.5,86.68,113.58,8.02,118.27-76.13,4.54-85.4-111.82-8.02-118.27ZM170.96,159.35c-67.88,6.17-48.76,111.07,17.24,92.24,53.84-15.36,38.49-97.31-17.24-92.24Z"/><path d="M196.42,188.49c5.07-.97,9.26,5.31,5.78,9.6l-34.87,34.87c-2.42,1.81-4.8,1.5-7.11-.33-4.65-3.68-9.2-17.51-13.52-22.48-1.99-5.95,4.07-11.02,9.4-7.14,2.19,1.59,8.44,15.34,9.39,15.35,5.61-3.9,26.36-29,30.93-29.87Z"/></svg>