<?xml version="1.0" encoding="UTF-8"?><svg id="Layer_2" xmlns="http://www.w3.org/2000/svg" width="360.12" height="359.47" viewBox="0 0 360.12 359.47"><g id="Layer_1-2"><path d="M196.3,16.15c8.15,8.18,15.73,17.03,24.3,24.82,3.44,8.62-4.96,8.5-10.3,10.78-15.1,6.46-19.51,25.69-8.51,38.02,11.68,13.09,33.06,9.42,39.9-6.63,2.34-5.48,1.33-12.49,9.84-10.85l41.36,41.13c.93,2.38.64,5.18-1.08,7.09l-33,33c35.38,9.74,35.06,60.71-.68,69.44-1.21,1.4.56,31.62-.14,36.99-.71,5.43-5.35,11.43-10.26,13.74-11.53,5.42-27.75-2.12-36.91-9.55-.14,7.19,4.61,13.17,7.1,19.51,5.62,14.3,5.79,28.56.21,42.93-1.75,4.52-7.11,12.21-7.9,16.1-1.05,5.11,2.43,15.73-5.11,16.69-8.8,1.12-7.65-10.92-7.05-16.85.77-7.66,7.68-15.99,10.12-23.63,8.04-25.1-8.39-34.82-10.12-56.64-1.98-25.06,2.64-54.2,0-78.74-2.29-21.19-34.01-21.52-36.04.72-2.47,27.14,1.9,58.01.05,85.55-.59,6.87-9.71,7.77-11.86,1.32l-.18-62.82c-.21-1.09-8.37-9.71-9.37-10.14-1.2-.51-1.01.42-1.27.94-1.93,3.83-2.74,7.31-5.53,10.99-7.25,9.57-19,14.77-30.99,14.39l-15.49,44.88c-1.06,5.21-.17,8.75,1.56,13.53,6.45,17.85,17.24,36.22,23.22,54.03,2.08,6.19,5.48,24.8-5.81,22.34-6.12-1.34-3.81-12.13-5.46-17.82-5.23-18.1-17.81-38.04-23.96-56.29-1.69-5.02-2.35-9.24-1.88-14.61l16.5-49.12c-25.72-10.03-30.38-45.01-8.19-61.82,3.68-2.79,7.16-3.61,10.99-5.53.71-.36,1.21.2.94-1.27l-34.19-34.86c-.71-2.1.18-4.38,1.54-6.05l32.64-32.59c-23.09-8.33-34.13-33.88-20.09-55.36,16.58-25.36,57.46-18.87,64.37,10.73L174.77.48c3.44-1.09,4.83-.23,7.47,1.61,3.14,2.17,10.66,10.66,14.06,14.07ZM210.07,184.64c3.98-2.91,7.74-9.49,13.13-5.26,4.22,3.31,1.79,5.62,2.07,9.17,1.92,24.62,32.17,33.04,44.65,12.06,8.76-14.73-.49-34.21-17.56-36.14-3-.34-7.52.57-10.03-.47-3.65-1.52-4.13-7.52-1.16-10.12l37.88-37.86-26.61-26.61c-13.31,26.02-51.07,27.51-64.74.98-9.56-18.56-1.46-39.77,16.35-49.36l-26.61-26.61-37.86,37.88c-2.61,2.98-8.6,2.49-10.12-1.16-1.04-2.5-.13-7.03-.47-10.03-2.09-18.47-24.42-26.88-38.85-15.77-13.21,10.17-11.51,30.71,2.71,39.16,8.17,4.85,11.73,1.49,18.26,3.49,4.93,1.51,5.6,7.6,1.85,10.93l-37.09,37.75c4.5,6.38,39.36,36.79,39.67,41.39.56,8.27-8.85,5.84-13.77,6.41-18.8,2.19-27.25,25.72-14.58,39.92,13.66,15.3,39.82,6.84,41.87-13.39.49-4.81-1.86-12.82,5.71-13.08,4.48-.15,11.18,10.4,15.29,12.72-3.78-42.57,56.1-48.7,60.01-6ZM214.19,198.16c-1.74,1.94-3.79,2.78-4.16,5.57-1.02,7.64-.58,33.3,1.92,40.15,3.21,8.81,11.35,16.23,20.46,18.54,5.31,1.35,12.81,2.68,13.67-4.64.4-3.42.63-32.08-.34-33.44-15.53-2.26-25.96-11.89-31.55-26.18Z"/><path d="M4.35,113.55l38.8-.12c6.64,1.04,6.62,10.88,0,11.91-5.91.92-32.26.92-38.16,0-6.33-.99-6.73-10.01-.63-11.8Z"/><path d="M316.35,113.55l38.8-.12c6.64,1.04,6.62,10.88,0,11.91-5.91.92-32.26.92-38.16,0-6.33-.99-6.73-10.01-.63-11.8Z"/><path d="M53.1,184.1c3.44,3.45,1.14,7.33-2.09,9.86-8.5,6.68-22.34,11.6-31.42,18.08-7.06,2.21-10.86-5.67-6.01-10.51l32.97-18.8c1.68-.86,5.33.14,6.55,1.37Z"/><path d="M307.02,184.1c1.22-1.23,4.87-2.22,6.55-1.37l32.5,18.52c5.52,4.69,1.49,13.04-5.54,10.79-9.28-6.53-22.03-11.22-30.98-17.77-3.38-2.47-6.21-6.48-2.54-10.17Z"/><path d="M15.61,26.54c2.11-.46,3.14-.06,5.01.68,4.72,1.88,26.52,14.46,30.39,17.6,6.42,5.2,3.26,12.23-4.46,11.23L13.58,37.25c-3.65-2.73-2.29-9.76,2.03-10.71Z"/><path d="M347.07,28.13c2.62,2.87,1.9,6.97-.99,9.41l-32.5,18.52c-6.98,1.82-11.36-6.21-4.01-11.53,8.91-6.46,21.31-11.01,30.45-17.54,2.21-1.17,5.41-.65,7.06,1.16Z"/></g></svg>