<?xml version="1.0" encoding="UTF-8"?>
<!-- Generator: Adobe Illustrator 21.0.0, SVG Export Plug-In . SVG Version: 6.00 Build 0)  -->
<svg version="1.1" id="Layer_1" xmlns="http://www.w3.org/2000/svg" xmlns:xlink="http://www.w3.org/1999/xlink" x="0px" y="0px" viewBox="0 0 60 60" style="enable-background:new 0 0 60 60;" xml:space="preserve">
<style type="text/css">
	.st0,.st1,.st2,.st3,.st4,.st5{fill:#000000;}
</style>
<g>
	<g>
		<g>
			<path class="st1" d="M24.1,14.8h11.8c0.5,0,0.8-0.4,0.8-0.8c0-0.5-0.4-0.8-0.8-0.8H24.1c-0.5,0-0.8,0.4-0.8,0.8     C23.3,14.4,23.6,14.8,24.1,14.8z M46.9,7.2c0-0.5-0.4-0.8-0.8-0.8H34.2c-0.5,0-0.8,0.4-0.8,0.8s0.4,0.8,0.8,0.8H46     C46.5,8.1,46.9,7.7,46.9,7.2z M27.5,16.5h-3.4c-0.5,0-0.8,0.4-0.8,0.8c0,0.5,0.4,0.8,0.8,0.8h3.4c0.5,0,0.8-0.4,0.8-0.8     C28.3,16.9,27.9,16.5,27.5,16.5z M35.9,16.5h-3.4c-0.5,0-0.8,0.4-0.8,0.8c0,0.5,0.4,0.8,0.8,0.8h3.4c0.5,0,0.8-0.4,0.8-0.8     C36.7,16.9,36.4,16.5,35.9,16.5z M56.2,6.4h-5.9V3.8c0-0.5-0.4-0.8-0.8-0.8H30.8C30.4,3,30,3.4,30,3.8v2.5H3.8     C3.4,6.4,3,6.8,3,7.2v25.3c0,0.5,0.4,0.8,0.8,0.8h12.4c-0.4,1.1-0.6,2.2-0.6,3.4v0.8c0,0.3,0.1,0.6,0.1,0.8h-4.4     c-1.4,0-2.5,1.1-2.5,2.5c0,1.1,0.7,2,1.7,2.4v12.8c0,0.5,0.4,0.8,0.8,0.8h3.4c0.5,0,0.8-0.4,0.8-0.8V43.5h2l1.2,8.6     c-0.9,0.4-1.6,1.3-1.6,2.3v1.7c0,0.5,0.4,0.8,0.8,0.8h6.8c1.4,0,2.5-1.1,2.5-2.5c0-0.4-0.1-0.8-0.3-1.2l2.8-0.5l2.8,0.5     c-0.2,0.4-0.3,0.8-0.3,1.2c0,1.4,1.1,2.5,2.5,2.5h6.8c0.5,0,0.8-0.4,0.8-0.8v-1.7c0-1.1-0.7-2-1.6-2.3l1.2-8.6h2v12.7     c0,0.5,0.4,0.8,0.8,0.8h3.4c0.5,0,0.8-0.4,0.8-0.8V43.4c1-0.3,1.7-1.3,1.7-2.4c0-1.4-1.1-2.5-2.5-2.5h-4.4     c0.1-0.3,0.1-0.5,0.1-0.8v-0.8c0-1.2-0.2-2.3-0.6-3.4h12.4c0.5,0,0.8-0.4,0.8-0.8V7.2C57,6.8,56.6,6.4,56.2,6.4z M31.7,4.7h16.9     v8.4c0,0.9-0.8,1.7-1.7,1.7s-1.7-0.8-1.7-1.7c0-1.9-1.5-3.4-3.4-3.4H31.7V4.7z M44,14.8h-3.8v-1.7c0-0.9,0.8-1.7,1.7-1.7     c0.9,0,1.7,0.8,1.7,1.7C43.5,13.7,43.7,14.3,44,14.8z M38.9,11.4c-0.3,0.5-0.5,1.1-0.5,1.7v15c-1-0.4-2-0.6-3.1-0.6     c0.3-0.5,0.4-1.1,0.5-1.7h0.1c0.5,0,0.8-0.4,0.8-0.8c0-0.5-0.4-0.8-0.8-0.8h-0.1c-0.4-2.6-2.4-4.6-5-5V19c0-0.5-0.4-0.8-0.8-0.8     c-0.5,0-0.8,0.4-0.8,0.8v0.1c-2.6,0.4-4.6,2.4-5,5h-0.1c-0.5,0-0.8,0.4-0.8,0.8c0,0.5,0.4,0.8,0.8,0.8h0.1     c0.1,0.6,0.3,1.2,0.5,1.7c-1.1,0-2.1,0.2-3.1,0.6v-15c0-0.9,0.8-1.7,1.7-1.7H38.9z M30,35.1c-1.4,0-2.5,1.1-2.5,2.5v0.8h-0.8     c-0.5,0-0.8-0.4-0.8-0.8v-3.4c0-0.5,0.4-0.8,0.8-0.8h6.7c0.5,0,0.8,0.4,0.8,0.8v3.4c0,0.5-0.4,0.8-0.8,0.8h-0.8v-0.8     c0-0.7-0.3-1.3-0.7-1.8C31.3,35.3,30.7,35.1,30,35.1z M30.8,37.6v5.9h-1.7v-5.9c0-0.5,0.4-0.8,0.8-0.8c0.2,0,0.4,0.1,0.6,0.2     c0,0,0,0,0,0C30.8,37.2,30.8,37.4,30.8,37.6z M19.5,41.5c0.3,0.7,0.7,1.4,1.3,1.9c0.6,0.6,1.2,1,2,1.3c-0.2,0.4-0.3,0.8-0.3,1.3     c0,1.1,0.7,2,1.7,2.4v3.5h-3.5l-1.2-8.7c0-0.2,0-0.4,0-0.6C19.3,42.3,19.4,41.9,19.5,41.5z M19.1,35.9h-1.7c0.1-1,0.4-2.1,1-3     c0.7-1.2,1.6-2.1,2.8-2.8c0.4-0.2,0.8-0.4,1.3-0.6c-0.8,0.7-1.6,1.5-2.1,2.5C19.6,33.3,19.2,34.6,19.1,35.9z M22,42.3     c-0.6-0.6-1-1.3-1.2-2.1h6.7v3.4h-2.5C23.8,43.5,22.7,43.1,22,42.3z M32.5,40.1h6.7c-0.2,0.8-0.6,1.5-1.2,2.1     c-0.8,0.8-1.8,1.2-3,1.2h-2.5V40.1z M35.8,38.4c0.1-0.3,0.1-0.5,0.1-0.8v-3.4c0-1.4-1.1-2.5-2.5-2.5h-6.7c-1.4,0-2.5,1.1-2.5,2.5     v3.4c0,0.3,0.1,0.6,0.1,0.8h-3.5v-1.7c0-1.3,0.4-2.6,1-3.8c1.2-2.1,3.4-3.5,5.8-3.8c0.2,0,2,0,2.5,0c0.4,0,2.2,0,2.4,0     c2.4,0.2,4.6,1.6,5.8,3.8c0.7,1.1,1,2.5,1,3.8v1.7H35.8z M34.1,25.8c-0.1,0.6-0.4,1.2-0.8,1.7h-0.8v0c-0.5,0-2.4,0-2.5,0     c-0.1,0-2,0-2.5,0v0h-0.8c-0.4-0.5-0.6-1.1-0.8-1.7H34.1z M30.8,24.1v-3.3c1.7,0.3,3,1.6,3.3,3.3H30.8z M29.2,24.1h-3.3     c0.3-1.7,1.6-3,3.3-3.3V24.1z M37.6,29.6c0.4,0.2,0.9,0.3,1.3,0.6c1.2,0.7,2.1,1.6,2.8,2.8c0.5,0.9,0.9,1.9,1,2.9h-1.7     c-0.1-1.3-0.5-2.6-1.2-3.8C39.2,31.1,38.4,30.3,37.6,29.6z M4.7,8.1H30v1.7h-6.8c-1.9,0-3.4,1.5-3.4,3.4v10.1h-2.5     c-0.5,0-0.8,0.4-0.8,0.8v2.5H14v-16c0-0.5-0.4-0.8-0.8-0.8c0,0-5,0-5.1,0c-0.5,0-0.8,0.4-0.8,0.8v13.5H4.7V8.1z M11.1,16.5     l-2.2,2.2v-2.2H11.1z M8.9,14.8v-2.2l2.2,2.2H8.9z M12.3,17.7v2.2h-2.2L12.3,17.7z M10.1,11.4h2.2v2.2L10.1,11.4z M4.7,31.7v-5.9     h3.4c0.5,0,0.8-0.4,0.8-0.8v-3.4h3.4v5.9c0,0.5,0.4,0.8,0.8,0.8h4.2c0.5,0,0.8-0.4,0.8-0.8v-2.5h1.7v4c-1.1,0.7-2,1.6-2.7,2.7     H4.7z M14,55.3h-1.7V43.5H14V55.3z M17.7,41.8h-6.3c-0.5,0-0.8-0.4-0.8-0.8c0-0.5,0.4-0.8,0.8-0.8h6.8     C18,40.7,17.8,41.2,17.7,41.8z M18.2,38.4c-0.5,0-0.8-0.4-0.8-0.8H19v0.8H18.2z M22.6,55.3H19v-0.8c0-0.5,0.4-0.8,0.8-0.8h2.7     c-0.1,0.3-0.1,0.5-0.1,0.8C22.4,54.8,22.5,55,22.6,55.3z M24.9,55.3c-0.5,0-0.8-0.4-0.8-0.8c0-0.5,0.4-0.8,0.8-0.8     c0.5,0,0.8,0.4,0.8,0.8C25.8,54.9,25.4,55.3,24.9,55.3z M29.2,51.2l-3.4,0.6v-3.2h3.4V51.2z M24.9,46.9c-0.5,0-0.8-0.4-0.8-0.8     c0-0.2,0.1-0.4,0.2-0.6c0,0,0,0,0,0c0.2-0.2,0.4-0.2,0.6-0.2h3.4h3.4h3.4c0.5,0,0.8,0.4,0.8,0.8c0,0.2-0.1,0.4-0.2,0.6     c0,0,0,0,0,0c-0.2,0.2-0.4,0.2-0.6,0.2H24.9z M30.8,51.2v-2.7h3.4v3.2L30.8,51.2z M35.1,55.3c-0.5,0-0.8-0.4-0.8-0.8     c0-0.5,0.4-0.8,0.8-0.8c0,0,0,0,0,0c0,0,0,0,0,0c0.5,0,0.8,0.4,0.8,0.8C35.9,54.9,35.5,55.3,35.1,55.3z M35.9,48.4     c0.4-0.1,0.7-0.3,0.9-0.6c0.5-0.5,0.7-1.1,0.7-1.8c0-0.5-0.1-0.9-0.3-1.3c0.7-0.3,1.4-0.7,2-1.3c0.6-0.6,1-1.2,1.3-1.9     c0.1,0.4,0.2,0.7,0.2,1.1c0,0,0,0,0,0c0,0.2,0,0.4,0,0.6l-1.2,8.7h-3.5V48.4z M41,55.3h-3.5c0.1-0.3,0.1-0.5,0.1-0.8     c0-0.3-0.1-0.6-0.1-0.8h2.7c0.5,0,0.8,0.4,0.8,0.8V55.3z M41,38.4v-0.8h1.7c0,0.5-0.4,0.8-0.8,0.8H41z M47.7,55.3H46V43.5h1.7     V55.3z M48.6,40.1c0.5,0,0.8,0.4,0.8,0.8c0,0.5-0.4,0.8-0.8,0.8h-6.3c-0.1-0.6-0.3-1.2-0.5-1.7H48.6z M55.3,31.7H42.8     c-0.7-1.1-1.6-2-2.7-2.7v-9.1h1.7v2.5c0,0.5,0.4,0.8,0.8,0.8h0.8v3.4c0,0.5,0.4,0.8,0.8,0.8h3.4c0.5,0,0.8-0.4,0.8-0.8v-1.7h3.4     v1.7c0,0.5,0.4,0.8,0.8,0.8h2.5V31.7z M50.7,23.2h-2.2v-2.2L50.7,23.2z M49.8,19.9h2.2v2.2L49.8,19.9z M55.3,25.8h-1.7v-1.7V19     c0-0.5-0.4-0.8-0.8-0.8h-5.1c0,0,0,0,0,0c0,0,0,0-0.1,0c0,0,0,0-0.1,0c0,0,0,0-0.1,0c0,0,0,0-0.1,0c0,0,0,0,0,0c0,0,0,0,0,0     c0,0,0,0-0.1,0c0,0,0,0-0.1,0c0,0,0,0-0.1,0c0,0,0,0,0,0c0,0,0,0,0,0c0,0,0,0,0,0c0,0,0,0,0,0c0,0,0,0,0,0.1c0,0,0,0,0,0.1     c0,0,0,0,0,0.1c0,0,0,0,0,0c0,0,0,0,0,0c0,0,0,0,0,0.1c0,0,0,0,0,0.1c0,0,0,0,0,0.1c0,0,0,0,0,0.1c0,0,0,0,0,0v5.1v1.7h-1.7v-3.4     c0-0.5-0.4-0.8-0.8-0.8h-0.8V19c0-0.5-0.4-0.8-0.8-0.8h-2.5v-1.7h6.8c1.9,0,3.4-1.5,3.4-3.4V8.1h5.1V25.8z"/>
		</g>
	</g>
</g>
</svg>